<?xml version="1.0" encoding="UTF-8" standalone="no"?>
<!-- Created with Inkscape (http://www.inkscape.org/) -->

<svg
   xmlns:dc="http://purl.org/dc/elements/1.1/"
   xmlns:cc="http://creativecommons.org/ns#"
   xmlns:rdf="http://www.w3.org/1999/02/22-rdf-syntax-ns#"
   xmlns:svg="http://www.w3.org/2000/svg"
   xmlns="http://www.w3.org/2000/svg"
   xmlns:sodipodi="http://sodipodi.sourceforge.net/DTD/sodipodi-0.dtd"
   xmlns:inkscape="http://www.inkscape.org/namespaces/inkscape"
   width="1839.5536"
   height="645.99994"
   viewBox="0 0 1839.5535 645.99997"
   id="svg2"
   version="1.1"
   inkscape:version="0.91 r13725"
   sodipodi:docname="akward_she_head_thing.svg">
  <defs
     id="defs4">
    <marker
       inkscape:stockid="Arrow1Lend"
       orient="auto"
       refY="0"
       refX="0"
       id="marker22638"
       style="overflow:visible"
       inkscape:isstock="true">
      <path
         id="path22640"
         d="M 0,0 5,-5 -12.5,0 5,5 0,0 Z"
         style="fill:#000000;fill-opacity:1;fill-rule:evenodd;stroke:#000000;stroke-width:1pt;stroke-opacity:1"
         transform="matrix(-0.8,0,0,-0.8,-10,0)"
         inkscape:connector-curvature="0" />
    </marker>
    <marker
       inkscape:stockid="Arrow1Lend"
       orient="auto"
       refY="0"
       refX="0"
       id="marker18329"
       style="overflow:visible"
       inkscape:isstock="true">
      <path
         id="path18331"
         d="M 0,0 5,-5 -12.5,0 5,5 0,0 Z"
         style="fill:#000000;fill-opacity:1;fill-rule:evenodd;stroke:#000000;stroke-width:1pt;stroke-opacity:1"
         transform="matrix(-0.8,0,0,-0.8,-10,0)"
         inkscape:connector-curvature="0" />
    </marker>
    <marker
       inkscape:isstock="true"
       style="overflow:visible"
       id="marker11570"
       refX="0"
       refY="0"
       orient="auto"
       inkscape:stockid="Arrow1Lend">
      <path
         inkscape:connector-curvature="0"
         transform="matrix(-0.8,0,0,-0.8,-10,0)"
         style="fill:#000000;fill-opacity:1;fill-rule:evenodd;stroke:#000000;stroke-width:1pt;stroke-opacity:1"
         d="M 0,0 5,-5 -12.5,0 5,5 0,0 Z"
         id="path11572" />
    </marker>
    <marker
       inkscape:isstock="true"
       style="overflow:visible"
       id="marker11326"
       refX="0"
       refY="0"
       orient="auto"
       inkscape:stockid="Arrow1Lend">
      <path
         inkscape:connector-curvature="0"
         transform="matrix(-0.8,0,0,-0.8,-10,0)"
         style="fill:#000000;fill-opacity:1;fill-rule:evenodd;stroke:#000000;stroke-width:1pt;stroke-opacity:1"
         d="M 0,0 5,-5 -12.5,0 5,5 0,0 Z"
         id="path11328" />
    </marker>
    <marker
       inkscape:stockid="Arrow1Lend"
       orient="auto"
       refY="0"
       refX="0"
       id="marker9818"
       style="overflow:visible"
       inkscape:isstock="true">
      <path
         inkscape:connector-curvature="0"
         id="path9820"
         d="M 0,0 5,-5 -12.5,0 5,5 0,0 Z"
         style="fill:#000000;fill-opacity:1;fill-rule:evenodd;stroke:#000000;stroke-width:1pt;stroke-opacity:1"
         transform="matrix(-0.8,0,0,-0.8,-10,0)" />
    </marker>
    <marker
       inkscape:isstock="true"
       style="overflow:visible"
       id="marker9572"
       refX="0"
       refY="0"
       orient="auto"
       inkscape:stockid="Arrow1Lend">
      <path
         inkscape:connector-curvature="0"
         transform="matrix(-0.8,0,0,-0.8,-10,0)"
         style="fill:#000000;fill-opacity:1;fill-rule:evenodd;stroke:#000000;stroke-width:1pt;stroke-opacity:1"
         d="M 0,0 5,-5 -12.5,0 5,5 0,0 Z"
         id="path9574" />
    </marker>
    <marker
       inkscape:isstock="true"
       style="overflow:visible"
       id="marker9349"
       refX="0"
       refY="0"
       orient="auto"
       inkscape:stockid="Arrow1Lend">
      <path
         inkscape:connector-curvature="0"
         transform="matrix(-0.8,0,0,-0.8,-10,0)"
         style="fill:#000000;fill-opacity:1;fill-rule:evenodd;stroke:#000000;stroke-width:1pt;stroke-opacity:1"
         d="M 0,0 5,-5 -12.5,0 5,5 0,0 Z"
         id="path9351" />
    </marker>
    <marker
       inkscape:isstock="true"
       style="overflow:visible"
       id="marker8273"
       refX="0"
       refY="0"
       orient="auto"
       inkscape:stockid="Arrow1Lend">
      <path
         inkscape:connector-curvature="0"
         transform="matrix(-0.8,0,0,-0.8,-10,0)"
         style="fill:#000000;fill-opacity:1;fill-rule:evenodd;stroke:#000000;stroke-width:1pt;stroke-opacity:1"
         d="M 0,0 5,-5 -12.5,0 5,5 0,0 Z"
         id="path8275" />
    </marker>
    <marker
       inkscape:stockid="Arrow1Lend"
       orient="auto"
       refY="0"
       refX="0"
       id="marker7296"
       style="overflow:visible"
       inkscape:isstock="true">
      <path
         inkscape:connector-curvature="0"
         id="path7298"
         d="M 0,0 5,-5 -12.5,0 5,5 0,0 Z"
         style="fill:#000000;fill-opacity:1;fill-rule:evenodd;stroke:#000000;stroke-width:1pt;stroke-opacity:1"
         transform="matrix(-0.8,0,0,-0.8,-10,0)" />
    </marker>
    <marker
       inkscape:stockid="Arrow1Lend"
       orient="auto"
       refY="0"
       refX="0"
       id="marker7060"
       style="overflow:visible"
       inkscape:isstock="true">
      <path
         inkscape:connector-curvature="0"
         id="path7062"
         d="M 0,0 5,-5 -12.5,0 5,5 0,0 Z"
         style="fill:#000000;fill-opacity:1;fill-rule:evenodd;stroke:#000000;stroke-width:1pt;stroke-opacity:1"
         transform="matrix(-0.8,0,0,-0.8,-10,0)" />
    </marker>
    <marker
       inkscape:stockid="Arrow1Lend"
       orient="auto"
       refY="0"
       refX="0"
       id="marker7724"
       style="overflow:visible"
       inkscape:isstock="true">
      <path
         id="path7726"
         d="M 0,0 5,-5 -12.5,0 5,5 0,0 Z"
         style="fill:#000000;fill-opacity:1;fill-rule:evenodd;stroke:#000000;stroke-width:1pt;stroke-opacity:1"
         transform="matrix(-0.8,0,0,-0.8,-10,0)"
         inkscape:connector-curvature="0" />
    </marker>
    <marker
       inkscape:isstock="true"
       style="overflow:visible"
       id="marker7176"
       refX="0"
       refY="0"
       orient="auto"
       inkscape:stockid="Arrow1Lend">
      <path
         transform="matrix(-0.8,0,0,-0.8,-10,0)"
         style="fill:#000000;fill-opacity:1;fill-rule:evenodd;stroke:#000000;stroke-width:1pt;stroke-opacity:1"
         d="M 0,0 5,-5 -12.5,0 5,5 0,0 Z"
         id="path7178"
         inkscape:connector-curvature="0" />
    </marker>
    <marker
       inkscape:isstock="true"
       style="overflow:visible"
       id="marker6998"
       refX="0"
       refY="0"
       orient="auto"
       inkscape:stockid="Arrow1Lend">
      <path
         transform="matrix(-0.8,0,0,-0.8,-10,0)"
         style="fill:#000000;fill-opacity:1;fill-rule:evenodd;stroke:#000000;stroke-width:1pt;stroke-opacity:1"
         d="M 0,0 5,-5 -12.5,0 5,5 0,0 Z"
         id="path7000"
         inkscape:connector-curvature="0" />
    </marker>
    <marker
       inkscape:stockid="Arrow1Lend"
       orient="auto"
       refY="0"
       refX="0"
       id="marker6826"
       style="overflow:visible"
       inkscape:isstock="true">
      <path
         id="path6828"
         d="M 0,0 5,-5 -12.5,0 5,5 0,0 Z"
         style="fill:#000000;fill-opacity:1;fill-rule:evenodd;stroke:#000000;stroke-width:1pt;stroke-opacity:1"
         transform="matrix(-0.8,0,0,-0.8,-10,0)"
         inkscape:connector-curvature="0" />
    </marker>
    <marker
       inkscape:isstock="true"
       style="overflow:visible"
       id="marker6555"
       refX="0"
       refY="0"
       orient="auto"
       inkscape:stockid="Arrow1Lend">
      <path
         transform="matrix(-0.8,0,0,-0.8,-10,0)"
         style="fill:#000000;fill-opacity:1;fill-rule:evenodd;stroke:#000000;stroke-width:1pt;stroke-opacity:1"
         d="M 0,0 5,-5 -12.5,0 5,5 0,0 Z"
         id="path6557"
         inkscape:connector-curvature="0" />
    </marker>
    <marker
       inkscape:stockid="Arrow1Lend"
       orient="auto"
       refY="0"
       refX="0"
       id="marker6349"
       style="overflow:visible"
       inkscape:isstock="true">
      <path
         id="path6351"
         d="M 0,0 5,-5 -12.5,0 5,5 0,0 Z"
         style="fill:#000000;fill-opacity:1;fill-rule:evenodd;stroke:#000000;stroke-width:1pt;stroke-opacity:1"
         transform="matrix(-0.8,0,0,-0.8,-10,0)"
         inkscape:connector-curvature="0" />
    </marker>
    <marker
       inkscape:isstock="true"
       style="overflow:visible"
       id="marker6195"
       refX="0"
       refY="0"
       orient="auto"
       inkscape:stockid="Arrow1Lend">
      <path
         transform="matrix(-0.8,0,0,-0.8,-10,0)"
         style="fill:#000000;fill-opacity:1;fill-rule:evenodd;stroke:#000000;stroke-width:1pt;stroke-opacity:1"
         d="M 0,0 5,-5 -12.5,0 5,5 0,0 Z"
         id="path6197"
         inkscape:connector-curvature="0" />
    </marker>
    <marker
       inkscape:stockid="Arrow1Lend"
       orient="auto"
       refY="0"
       refX="0"
       id="marker5400"
       style="overflow:visible"
       inkscape:isstock="true">
      <path
         id="path5402"
         d="M 0,0 5,-5 -12.5,0 5,5 0,0 Z"
         style="fill:#000000;fill-opacity:1;fill-rule:evenodd;stroke:#000000;stroke-width:1pt;stroke-opacity:1"
         transform="matrix(-0.8,0,0,-0.8,-10,0)"
         inkscape:connector-curvature="0" />
    </marker>
    <marker
       inkscape:stockid="Arrow1Lend"
       orient="auto"
       refY="0"
       refX="0"
       id="marker5120"
       style="overflow:visible"
       inkscape:isstock="true">
      <path
         id="path5122"
         d="M 0,0 5,-5 -12.5,0 5,5 0,0 Z"
         style="fill:#000000;fill-opacity:1;fill-rule:evenodd;stroke:#000000;stroke-width:1pt;stroke-opacity:1"
         transform="matrix(-0.8,0,0,-0.8,-10,0)"
         inkscape:connector-curvature="0" />
    </marker>
    <marker
       inkscape:stockid="Arrow1Lend"
       orient="auto"
       refY="0"
       refX="0"
       id="marker14952"
       style="overflow:visible"
       inkscape:isstock="true">
      <path
         id="path14954"
         d="M 0,0 5,-5 -12.5,0 5,5 0,0 Z"
         style="fill:#000000;fill-opacity:1;fill-rule:evenodd;stroke:#000000;stroke-width:1pt;stroke-opacity:1"
         transform="matrix(-0.8,0,0,-0.8,-10,0)"
         inkscape:connector-curvature="0" />
    </marker>
    <marker
       inkscape:isstock="true"
       style="overflow:visible"
       id="marker12886"
       refX="0"
       refY="0"
       orient="auto"
       inkscape:stockid="Arrow1Lend">
      <path
         transform="matrix(-0.8,0,0,-0.8,-10,0)"
         style="fill:#000000;fill-opacity:1;fill-rule:evenodd;stroke:#000000;stroke-width:1pt;stroke-opacity:1"
         d="M 0,0 5,-5 -12.5,0 5,5 0,0 Z"
         id="path12888"
         inkscape:connector-curvature="0" />
    </marker>
    <marker
       inkscape:isstock="true"
       style="overflow:visible"
       id="marker11987"
       refX="0"
       refY="0"
       orient="auto"
       inkscape:stockid="Arrow1Lend">
      <path
         transform="matrix(-0.8,0,0,-0.8,-10,0)"
         style="fill:#000000;fill-opacity:1;fill-rule:evenodd;stroke:#000000;stroke-width:1pt;stroke-opacity:1"
         d="M 0,0 5,-5 -12.5,0 5,5 0,0 Z"
         id="path11989"
         inkscape:connector-curvature="0" />
    </marker>
    <marker
       inkscape:isstock="true"
       style="overflow:visible"
       id="marker11408"
       refX="0"
       refY="0"
       orient="auto"
       inkscape:stockid="Arrow1Lend">
      <path
         transform="matrix(-0.8,0,0,-0.8,-10,0)"
         style="fill:#000000;fill-opacity:1;fill-rule:evenodd;stroke:#000000;stroke-width:1pt;stroke-opacity:1"
         d="M 0,0 5,-5 -12.5,0 5,5 0,0 Z"
         id="path11410"
         inkscape:connector-curvature="0" />
    </marker>
    <marker
       inkscape:stockid="Arrow1Lend"
       orient="auto"
       refY="0"
       refX="0"
       id="marker11332"
       style="overflow:visible"
       inkscape:isstock="true">
      <path
         id="path11334"
         d="M 0,0 5,-5 -12.5,0 5,5 0,0 Z"
         style="fill:#000000;fill-opacity:1;fill-rule:evenodd;stroke:#000000;stroke-width:1pt;stroke-opacity:1"
         transform="matrix(-0.8,0,0,-0.8,-10,0)"
         inkscape:connector-curvature="0" />
    </marker>
    <marker
       inkscape:stockid="Arrow1Lend"
       orient="auto"
       refY="0"
       refX="0"
       id="marker9287"
       style="overflow:visible"
       inkscape:isstock="true">
      <path
         id="path9289"
         d="M 0,0 5,-5 -12.5,0 5,5 0,0 Z"
         style="fill:#000000;fill-opacity:1;fill-rule:evenodd;stroke:#000000;stroke-width:1pt;stroke-opacity:1"
         transform="matrix(-0.8,0,0,-0.8,-10,0)"
         inkscape:connector-curvature="0" />
    </marker>
    <marker
       inkscape:isstock="true"
       style="overflow:visible"
       id="marker4941"
       refX="0"
       refY="0"
       orient="auto"
       inkscape:stockid="Arrow1Lend">
      <path
         transform="matrix(-0.8,0,0,-0.8,-10,0)"
         style="fill:#000000;fill-opacity:1;fill-rule:evenodd;stroke:#000000;stroke-width:1pt;stroke-opacity:1"
         d="M 0,0 5,-5 -12.5,0 5,5 0,0 Z"
         id="path4943"
         inkscape:connector-curvature="0" />
    </marker>
  </defs>
  <sodipodi:namedview
     id="base"
     pagecolor="#ffffff"
     bordercolor="#666666"
     borderopacity="1.0"
     inkscape:pageopacity="0.0"
     inkscape:pageshadow="2"
     inkscape:zoom="0.62054756"
     inkscape:cx="572.6701"
     inkscape:cy="181.59233"
     inkscape:document-units="px"
     inkscape:current-layer="layer1"
     showgrid="false"
     units="px"
     inkscape:window-width="1436"
     inkscape:window-height="855"
     inkscape:window-x="0"
     inkscape:window-y="1"
     inkscape:window-maximized="1"
     fit-margin-top="20"
     fit-margin-left="20"
     fit-margin-right="20"
     fit-margin-bottom="20"
     showguides="true"
     inkscape:guide-bbox="true" />
  <metadata
     id="metadata7">
    <rdf:RDF>
      <cc:Work
         rdf:about="">
        <dc:format>image/svg+xml</dc:format>
        <dc:type
           rdf:resource="http://purl.org/dc/dcmitype/StillImage" />
        <dc:title></dc:title>
      </cc:Work>
    </rdf:RDF>
  </metadata>
  <g
     inkscape:label="Layer 1"
     inkscape:groupmode="layer"
     id="layer1"
     transform="translate(22.999881,-15174.838)">
    <g
       id="g4411">
      <rect
         y="15197.838"
         x="-2.2083461e-07"
         height="600"
         width="800"
         id="rect16360"
         style="opacity:1;fill:none;fill-opacity:1;stroke:#000000;stroke-width:6;stroke-linejoin:miter;stroke-miterlimit:4;stroke-dasharray:none;stroke-dashoffset:0;stroke-opacity:1" />
      <text
         sodipodi:linespacing="125%"
         id="text16362"
         y="15622.066"
         x="399.91797"
         style="font-style:normal;font-weight:normal;font-size:33.60118103px;line-height:125%;font-family:sans-serif;letter-spacing:0px;word-spacing:0px;fill:#000000;fill-opacity:1;stroke:none;stroke-width:1px;stroke-linecap:butt;stroke-linejoin:miter;stroke-opacity:1"
         xml:space="preserve"><tspan
           y="15622.066"
           x="399.91797"
           sodipodi:role="line"
           style="text-align:center;text-anchor:middle"
           id="tspan5955">The timmocs' God can see all,</tspan><tspan
           y="15664.068"
           x="405.2666"
           sodipodi:role="line"
           style="text-align:center;text-anchor:middle"
           id="tspan5959">but She likes to focus on one </tspan><tspan
           y="15706.069"
           x="405.26657"
           sodipodi:role="line"
           style="text-align:center;text-anchor:middle"
           id="tspan5961">timmoc at a time, and that's where </tspan><tspan
           y="15748.071"
           x="399.91797"
           sodipodi:role="line"
           style="text-align:center;text-anchor:middle"
           id="tspan5963">She keeps her HEAD.</tspan></text>
      <g
         transform="matrix(0.35417503,0,0,0.35417503,177.42679,15111.696)"
         id="g16370">
        <circle
           r="139.30339"
           cy="712.95087"
           cx="391.0079"
           id="circle16372"
           style="opacity:1;fill:none;fill-opacity:1;stroke:#000000;stroke-width:2.15473938;stroke-linejoin:miter;stroke-miterlimit:4;stroke-dasharray:none;stroke-dashoffset:0;stroke-opacity:1" />
        <g
           transform="matrix(0.23826265,0,0,0.23826265,449.31475,684.83218)"
           id="g16374">
          <circle
             style="opacity:1;fill:none;fill-opacity:1;stroke:#000000;stroke-width:6;stroke-linejoin:miter;stroke-miterlimit:4;stroke-dasharray:none;stroke-dashoffset:0;stroke-opacity:1"
             id="circle16376"
             cx="-480.83261"
             cy="38.169014"
             r="105.05586" />
          <circle
             style="opacity:1;fill:#000000;fill-opacity:1;stroke:#000000;stroke-width:6;stroke-linejoin:miter;stroke-miterlimit:4;stroke-dasharray:none;stroke-dashoffset:0;stroke-opacity:1"
             id="circle16378"
             cx="-480.83261"
             cy="38.169014"
             r="52.527931" />
        </g>
        <g
           id="g16380"
           transform="matrix(0.23826265,0,0,0.23826265,547.98805,684.83218)">
          <circle
             r="105.05586"
             cy="38.169014"
             cx="-480.83261"
             id="circle16382"
             style="opacity:1;fill:none;fill-opacity:1;stroke:#000000;stroke-width:6;stroke-linejoin:miter;stroke-miterlimit:4;stroke-dasharray:none;stroke-dashoffset:0;stroke-opacity:1" />
          <circle
             r="52.527931"
             cy="38.169014"
             cx="-480.83261"
             id="circle16384"
             style="opacity:1;fill:#000000;fill-opacity:1;stroke:#000000;stroke-width:6;stroke-linejoin:miter;stroke-miterlimit:4;stroke-dasharray:none;stroke-dashoffset:0;stroke-opacity:1" />
        </g>
      </g>
      <path
         style="fill:none;fill-rule:evenodd;stroke:#000000;stroke-width:0.54155016px;stroke-linecap:butt;stroke-linejoin:miter;stroke-opacity:1"
         d="m 312.89053,15367.755 -3.86821,13.152 9.28372,0"
         id="path16386"
         inkscape:connector-curvature="0" />
      <path
         style="fill:none;fill-rule:evenodd;stroke:#000000;stroke-width:1.13725531;stroke-linecap:butt;stroke-linejoin:miter;stroke-miterlimit:4;stroke-dasharray:none;stroke-opacity:1"
         d="m 366.54453,15364.661 51.83409,0"
         id="path16388"
         inkscape:connector-curvature="0" />
      <circle
         style="opacity:1;fill:none;fill-opacity:1;stroke:#0012ff;stroke-width:0.76315486;stroke-linejoin:miter;stroke-miterlimit:4;stroke-dasharray:none;stroke-dashoffset:0;stroke-opacity:1"
         id="circle16390"
         cx="470.40918"
         cy="15364.205"
         r="49.337784" />
      <circle
         style="opacity:1;fill:none;fill-opacity:1;stroke:#0012ff;stroke-width:0.50632006;stroke-linejoin:miter;stroke-miterlimit:4;stroke-dasharray:none;stroke-dashoffset:0;stroke-opacity:1"
         id="circle16392"
         cx="450.48413"
         cy="15357.468"
         r="8.8653154" />
      <circle
         style="opacity:1;fill:#0007ff;fill-opacity:1;stroke:#0012ff;stroke-width:0.50632006;stroke-linejoin:miter;stroke-miterlimit:4;stroke-dasharray:none;stroke-dashoffset:0;stroke-opacity:1"
         id="circle16394"
         cx="450.48413"
         cy="15357.468"
         r="4.4326577" />
      <circle
         r="8.8653154"
         cy="15357.468"
         cx="485.43176"
         id="circle16396"
         style="opacity:1;fill:none;fill-opacity:1;stroke:#0012ff;stroke-width:0.50632006;stroke-linejoin:miter;stroke-miterlimit:4;stroke-dasharray:none;stroke-dashoffset:0;stroke-opacity:1" />
      <circle
         r="4.4326577"
         cy="15357.468"
         cx="485.43176"
         id="circle16398"
         style="opacity:1;fill:#0007ff;fill-opacity:1;stroke:#0012ff;stroke-width:0.50632006;stroke-linejoin:miter;stroke-miterlimit:4;stroke-dasharray:none;stroke-dashoffset:0;stroke-opacity:1" />
      <path
         style="fill:none;fill-rule:evenodd;stroke:#004dff;stroke-width:0.54155016px;stroke-linecap:butt;stroke-linejoin:miter;stroke-opacity:1"
         d="m 469.81648,15367.755 -3.86822,13.152 9.28372,0"
         id="path16400"
         inkscape:connector-curvature="0" />
      <g
         id="g16402"
         transform="translate(145.1755,12719.7)">
        <g
           transform="matrix(0.35417503,0,0,0.35417503,337.92394,2463.9284)"
           id="g16404">
          <circle
             r="139.30339"
             cy="712.95087"
             cx="391.0079"
             id="circle16406"
             style="opacity:1;fill:none;fill-opacity:1;stroke:#000000;stroke-width:2.15473938;stroke-linejoin:miter;stroke-miterlimit:4;stroke-dasharray:none;stroke-dashoffset:0;stroke-opacity:1" />
          <g
             transform="matrix(0.23826265,0,0,0.23826265,449.31475,684.83218)"
             id="g16408">
            <circle
               style="opacity:1;fill:none;fill-opacity:1;stroke:#000000;stroke-width:6;stroke-linejoin:miter;stroke-miterlimit:4;stroke-dasharray:none;stroke-dashoffset:0;stroke-opacity:1"
               id="circle16410"
               cx="-480.83261"
               cy="38.169014"
               r="105.05586" />
            <circle
               style="opacity:1;fill:#000000;fill-opacity:1;stroke:#000000;stroke-width:6;stroke-linejoin:miter;stroke-miterlimit:4;stroke-dasharray:none;stroke-dashoffset:0;stroke-opacity:1"
               id="circle16412"
               cx="-480.83261"
               cy="38.169014"
               r="52.527931" />
          </g>
          <g
             id="g16414"
             transform="matrix(0.23826265,0,0,0.23826265,547.98805,684.83218)">
            <circle
               r="105.05586"
               cy="38.169014"
               cx="-480.83261"
               id="circle16416"
               style="opacity:1;fill:none;fill-opacity:1;stroke:#000000;stroke-width:6;stroke-linejoin:miter;stroke-miterlimit:4;stroke-dasharray:none;stroke-dashoffset:0;stroke-opacity:1" />
            <circle
               r="52.527931"
               cy="38.169014"
               cx="-480.83261"
               id="circle16418"
               style="opacity:1;fill:#000000;fill-opacity:1;stroke:#000000;stroke-width:6;stroke-linejoin:miter;stroke-miterlimit:4;stroke-dasharray:none;stroke-dashoffset:0;stroke-opacity:1" />
          </g>
        </g>
      </g>
      <path
         inkscape:connector-curvature="0"
         id="path16420"
         d="m 620.99198,15439.688 -3.86822,13.152 9.28372,0"
         style="fill:none;fill-rule:evenodd;stroke:#000000;stroke-width:0.54155016px;stroke-linecap:butt;stroke-linejoin:miter;stroke-opacity:1" />
      <path
         style="fill:none;fill-rule:evenodd;stroke:#000000;stroke-width:1px;stroke-linecap:butt;stroke-linejoin:miter;stroke-opacity:1"
         d="m 598.34123,15462.848 c 16.64549,8.057 32.01075,7.153 46.48318,0"
         id="path16422"
         inkscape:connector-curvature="0"
         sodipodi:nodetypes="cc" />
      <path
         style="opacity:1;fill:#ffffff;fill-opacity:1;stroke:#000000;stroke-width:0.82408696;stroke-linejoin:miter;stroke-miterlimit:4;stroke-dasharray:none;stroke-dashoffset:0;stroke-opacity:1"
         inkscape:transform-center-x="104.68937"
         inkscape:transform-center-y="-50.625377"
         d="m 643.53399,15396.707 c 1.73613,-3.126 -0.25334,-18.322 -0.25334,-18.322 0,0 6.90202,8.398 8.34926,13.569 2.75579,9.847 3.48136,19.316 -6.79491,18.537 -8.97015,-0.675 -3.47246,-9.874 -1.30101,-13.784 z"
         id="path16424"
         inkscape:connector-curvature="0"
         sodipodi:nodetypes="scsss" />
      <path
         sodipodi:nodetypes="scsss"
         inkscape:connector-curvature="0"
         id="path16426"
         d="m 603.74056,15396.707 c -1.73613,-3.126 0.25334,-18.322 0.25334,-18.322 0,0 -6.90202,8.398 -8.34926,13.569 -2.75579,9.847 -3.48136,19.316 6.79491,18.537 8.97015,-0.675 3.47246,-9.874 1.30101,-13.784 z"
         inkscape:transform-center-y="-50.625377"
         inkscape:transform-center-x="-104.68937"
         style="opacity:1;fill:#ffffff;fill-opacity:1;stroke:#000000;stroke-width:0.82408696;stroke-linejoin:miter;stroke-miterlimit:4;stroke-dasharray:none;stroke-dashoffset:0;stroke-opacity:1" />
      <path
         sodipodi:nodetypes="cc"
         style="fill:none;fill-rule:evenodd;stroke:#000000;stroke-width:1.13725531;stroke-linecap:butt;stroke-linejoin:miter;stroke-miterlimit:4;stroke-dasharray:none;stroke-opacity:1"
         d="m 518.58326,15374.735 52.96039,51.383"
         id="path16428"
         inkscape:connector-curvature="0" />
      <circle
         style="opacity:1;fill:none;fill-opacity:1;stroke:#ff0000;stroke-width:0.76300001;stroke-linejoin:miter;stroke-miterlimit:4;stroke-dasharray:none;stroke-dashoffset:0;stroke-opacity:1"
         id="circle16430"
         cx="167.95705"
         cy="15440.102"
         r="49.337784" />
      <circle
         style="opacity:1;fill:none;fill-opacity:1;stroke:#ff0000;stroke-width:0.76299995;stroke-linejoin:miter;stroke-miterlimit:4;stroke-dasharray:none;stroke-dashoffset:0;stroke-opacity:1"
         id="circle16432"
         cx="148.032"
         cy="15433.362"
         r="8.8653154" />
      <circle
         style="opacity:1;fill:#ff0000;fill-opacity:1;stroke:#ff0000;stroke-width:0.76299995;stroke-linejoin:miter;stroke-miterlimit:4;stroke-dasharray:none;stroke-dashoffset:0;stroke-opacity:1"
         id="circle16434"
         cx="148.032"
         cy="15433.362"
         r="4.4326577" />
      <circle
         r="8.8653154"
         cy="15433.362"
         cx="182.97963"
         id="circle16436"
         style="opacity:1;fill:none;fill-opacity:1;stroke:#ff0000;stroke-width:0.76299995;stroke-linejoin:miter;stroke-miterlimit:4;stroke-dasharray:none;stroke-dashoffset:0;stroke-opacity:1" />
      <circle
         r="4.4326577"
         cy="15433.362"
         cx="182.97963"
         id="circle16438"
         style="opacity:1;fill:#ff0000;fill-opacity:1;stroke:#ff0000;stroke-width:0.76299995;stroke-linejoin:miter;stroke-miterlimit:4;stroke-dasharray:none;stroke-dashoffset:0;stroke-opacity:1" />
      <g
         id="g16440"
         transform="matrix(0.35417503,0,0,0.35417503,177.42679,15251.593)">
        <circle
           style="opacity:1;fill:none;fill-opacity:1;stroke:#000000;stroke-width:2.15473938;stroke-linejoin:miter;stroke-miterlimit:4;stroke-dasharray:none;stroke-dashoffset:0;stroke-opacity:1"
           id="circle16442"
           cx="391.0079"
           cy="712.95087"
           r="139.30339" />
        <g
           id="g16444"
           transform="matrix(0.23826265,0,0,0.23826265,449.31475,684.83218)">
          <circle
             r="105.05586"
             cy="38.169014"
             cx="-480.83261"
             id="circle16446"
             style="opacity:1;fill:none;fill-opacity:1;stroke:#000000;stroke-width:6;stroke-linejoin:miter;stroke-miterlimit:4;stroke-dasharray:none;stroke-dashoffset:0;stroke-opacity:1" />
          <circle
             r="52.527931"
             cy="38.169014"
             cx="-480.83261"
             id="circle16448"
             style="opacity:1;fill:#000000;fill-opacity:1;stroke:#000000;stroke-width:6;stroke-linejoin:miter;stroke-miterlimit:4;stroke-dasharray:none;stroke-dashoffset:0;stroke-opacity:1" />
        </g>
        <g
           transform="matrix(0.23826265,0,0,0.23826265,547.98805,684.83218)"
           id="g16450">
          <circle
             style="opacity:1;fill:none;fill-opacity:1;stroke:#000000;stroke-width:6;stroke-linejoin:miter;stroke-miterlimit:4;stroke-dasharray:none;stroke-dashoffset:0;stroke-opacity:1"
             id="circle16452"
             cx="-480.83261"
             cy="38.169014"
             r="105.05586" />
          <circle
             style="opacity:1;fill:#000000;fill-opacity:1;stroke:#000000;stroke-width:6;stroke-linejoin:miter;stroke-miterlimit:4;stroke-dasharray:none;stroke-dashoffset:0;stroke-opacity:1"
             id="circle16454"
             cx="-480.83261"
             cy="38.169014"
             r="52.527931" />
        </g>
      </g>
      <path
         sodipodi:nodetypes="cc"
         inkscape:connector-curvature="0"
         id="path16456"
         d="m 208.68948,15466.951 54.84262,37.607"
         style="fill:none;fill-rule:evenodd;stroke:#000000;stroke-width:1.13725531;stroke-linecap:butt;stroke-linejoin:miter;stroke-miterlimit:4;stroke-dasharray:none;stroke-opacity:1" />
      <path
         inkscape:connector-curvature="0"
         id="path16458"
         d="m 366.54453,15504.558 51.83409,0"
         style="fill:none;fill-rule:evenodd;stroke:#000000;stroke-width:1.13725531;stroke-linecap:butt;stroke-linejoin:miter;stroke-miterlimit:4;stroke-dasharray:none;stroke-opacity:1" />
      <circle
         r="49.337784"
         cy="15504.102"
         cx="470.40918"
         id="circle16460"
         style="opacity:1;fill:none;fill-opacity:1;stroke:#0007ff;stroke-width:0.76315486;stroke-linejoin:miter;stroke-miterlimit:4;stroke-dasharray:none;stroke-dashoffset:0;stroke-opacity:1" />
      <circle
         r="8.8653154"
         cy="15497.362"
         cx="450.48413"
         id="circle16462"
         style="opacity:1;fill:none;fill-opacity:1;stroke:#0007ff;stroke-width:0.50632006;stroke-linejoin:miter;stroke-miterlimit:4;stroke-dasharray:none;stroke-dashoffset:0;stroke-opacity:1" />
      <circle
         r="4.4326577"
         cy="15497.362"
         cx="450.48413"
         id="circle16464"
         style="opacity:1;fill:#0007ff;fill-opacity:1;stroke:#0007ff;stroke-width:0.50632006;stroke-linejoin:miter;stroke-miterlimit:4;stroke-dasharray:none;stroke-dashoffset:0;stroke-opacity:1" />
      <circle
         style="opacity:1;fill:none;fill-opacity:1;stroke:#0007ff;stroke-width:0.50632006;stroke-linejoin:miter;stroke-miterlimit:4;stroke-dasharray:none;stroke-dashoffset:0;stroke-opacity:1"
         id="circle16466"
         cx="485.43176"
         cy="15497.362"
         r="8.8653154" />
      <circle
         style="opacity:1;fill:#0007ff;fill-opacity:1;stroke:#0007ff;stroke-width:0.50632006;stroke-linejoin:miter;stroke-miterlimit:4;stroke-dasharray:none;stroke-dashoffset:0;stroke-opacity:1"
         id="circle16468"
         cx="485.43176"
         cy="15497.362"
         r="4.4326577" />
      <path
         style="fill:none;fill-rule:evenodd;stroke:#0007ff;stroke-width:1px;stroke-linecap:butt;stroke-linejoin:miter;stroke-opacity:1"
         d="m 447.16573,15530.812 c 16.64549,8.057 32.01075,7.153 46.48318,0"
         id="path16470"
         inkscape:connector-curvature="0"
         sodipodi:nodetypes="cc" />
      <path
         inkscape:connector-curvature="0"
         id="path16472"
         d="m 518.58326,15503.151 52.96039,-51.382"
         style="fill:none;fill-rule:evenodd;stroke:#000000;stroke-width:1.13725531;stroke-linecap:butt;stroke-linejoin:miter;stroke-miterlimit:4;stroke-dasharray:none;stroke-opacity:1"
         sodipodi:nodetypes="cc" />
      <path
         style="opacity:1;fill:#ffffff;fill-opacity:1;stroke:#000000;stroke-width:0.82408696;stroke-linejoin:miter;stroke-miterlimit:4;stroke-dasharray:none;stroke-dashoffset:0;stroke-opacity:1"
         inkscape:transform-center-x="-104.68937"
         inkscape:transform-center-y="-50.625377"
         d="m 299.12625,15459.887 c -1.73613,-3.126 0.25334,-18.322 0.25334,-18.322 0,0 -6.90202,8.397 -8.34926,13.568 -2.75579,9.848 -3.48136,19.316 6.79491,18.538 8.97015,-0.675 3.47246,-9.875 1.30101,-13.784 z"
         id="path16474"
         inkscape:connector-curvature="0"
         sodipodi:nodetypes="scsss" />
      <path
         sodipodi:nodetypes="scsss"
         inkscape:connector-curvature="0"
         id="path16476"
         d="m 489.3465,15319.99 c 1.73613,-3.126 -0.25334,-18.323 -0.25334,-18.323 0,0 6.90202,8.398 8.34926,13.569 2.75579,9.847 3.48136,19.316 -6.79491,18.538 -8.97015,-0.675 -3.47246,-9.875 -1.30101,-13.784 z"
         inkscape:transform-center-y="-50.625377"
         inkscape:transform-center-x="104.68937"
         style="opacity:1;fill:#ffffff;fill-opacity:1;stroke:#0007ff;stroke-width:0.82408696;stroke-linejoin:miter;stroke-miterlimit:4;stroke-dasharray:none;stroke-dashoffset:0;stroke-opacity:1" />
      <path
         sodipodi:nodetypes="scsss"
         inkscape:connector-curvature="0"
         id="path16478"
         d="m 451.05734,15459.887 c -1.73613,-3.126 0.25334,-18.322 0.25334,-18.322 0,0 -6.90202,8.397 -8.34926,13.568 -2.75579,9.848 -3.48136,19.316 6.79491,18.538 8.97015,-0.675 3.47246,-9.875 1.30101,-13.784 z"
         inkscape:transform-center-y="-50.625377"
         inkscape:transform-center-x="-104.68937"
         style="opacity:1;fill:#ffffff;fill-opacity:1;stroke:#0007ff;stroke-width:0.82408696;stroke-linejoin:miter;stroke-miterlimit:4;stroke-dasharray:none;stroke-dashoffset:0;stroke-opacity:1" />
      <path
         style="fill:none;fill-rule:evenodd;stroke:#000000;stroke-width:1.13725531;stroke-linecap:butt;stroke-linejoin:miter;stroke-miterlimit:4;stroke-dasharray:none;stroke-opacity:1"
         d="m 213.95441,15421.845 54.09049,-38.359"
         id="path16480"
         inkscape:connector-curvature="0"
         sodipodi:nodetypes="cc" />
      <path
         transform="matrix(0.56116397,0,0,1.4953183,218.89155,5525.1565)"
         inkscape:transform-center-y="-4.4460219"
         d="m 487.89054,6649.514 -20.59804,0 10.29902,-17.8384 z"
         inkscape:randomized="0"
         inkscape:rounded="0"
         inkscape:flatsided="true"
         sodipodi:arg2="1.5707963"
         sodipodi:arg1="0.52359878"
         sodipodi:r2="5.9461422"
         sodipodi:r1="11.892284"
         sodipodi:cy="6643.5679"
         sodipodi:cx="477.59152"
         sodipodi:sides="3"
         id="path16482"
         style="opacity:1;fill:#ffffff;fill-opacity:1;stroke:#0007ff;stroke-width:1.30599177;stroke-linejoin:miter;stroke-miterlimit:4;stroke-dasharray:none;stroke-dashoffset:0;stroke-opacity:1"
         sodipodi:type="star" />
      <path
         inkscape:connector-curvature="0"
         id="path3923"
         d="m 640.4679,15352.208 c -0.0433,-0.112 -0.0616,-0.387 -0.0407,-0.611 0.0684,-0.734 0.332,-2.836 0.44569,-3.554 0.13844,-0.874 0.2621,-1.89 0.34477,-2.833 0.0348,-0.397 0.0852,-0.791 0.11195,-0.875 0.0952,-0.3 -0.20605,-0.726 -0.45699,-0.646 -0.0348,0.01 -0.17541,-0.03 -0.31254,-0.08 -0.23562,-0.1 -0.25662,-0.09 -0.38185,0.07 l -0.1325,0.176 -0.0838,-0.311 c -0.0491,-0.183 -0.15731,-0.36 -0.26137,-0.428 -0.0976,-0.06 -0.19685,-0.206 -0.22047,-0.315 -0.0965,-0.445 -0.12409,-0.586 -0.19205,-0.985 -0.0671,-0.394 -0.28217,-0.96 -0.58729,-1.545 -0.0743,-0.143 -0.16896,-0.376 -0.21033,-0.518 -0.22701,-0.783 -0.55721,-1.538 -0.93835,-2.148 -0.14005,-0.224 -0.32898,-0.548 -0.41986,-0.721 -0.23295,-0.444 -0.38322,-0.467 -0.71515,-0.11 -0.14984,0.16 -0.39444,0.332 -0.54356,0.38 -0.337,0.11 -0.40753,0.274 -0.22392,0.523 0.0774,0.104 0.28156,0.473 0.4536,0.818 0.17204,0.345 0.39335,0.734 0.49181,0.864 0.0985,0.129 0.17901,0.272 0.17901,0.317 0,0.05 0.0886,0.255 0.19693,0.468 0.23392,0.459 0.60462,1.451 0.69742,1.867 0.0363,0.163 0.10211,0.429 0.14613,0.592 0.20322,0.752 0.23581,0.942 0.29916,1.74 0.0371,0.469 0.10223,1.044 0.14461,1.279 0.0424,0.235 0.0972,0.757 0.12176,1.161 l 0.0447,0.733 -0.26223,0.05 c -0.14844,0.03 -0.32774,0.01 -0.41322,-0.03 -0.0831,-0.04 -0.29895,-0.08 -0.47978,-0.08 -0.18082,0 -0.47306,-0.05 -0.64945,-0.113 -0.17638,-0.06 -0.37217,-0.108 -0.43508,-0.102 -0.33947,0.03 -0.52283,-0.02 -0.60046,-0.164 -0.0963,-0.18 -0.25495,-1.057 -0.36674,-2.027 -0.0422,-0.367 -0.12507,-0.783 -0.1841,-0.926 -0.1879,-0.453 -0.33798,-0.91 -0.47562,-1.448 -0.1346,-0.525 -0.27386,-0.85 -0.67287,-1.571 -0.11896,-0.215 -0.25065,-0.514 -0.29264,-0.666 -0.042,-0.152 -0.2093,-0.526 -0.37182,-0.831 -0.36076,-0.678 -0.39855,-0.76 -0.55527,-1.204 -0.088,-0.249 -0.17124,-0.361 -0.28479,-0.382 -0.80579,-0.154 -1.0444,-0.228 -1.31885,-0.413 -0.51141,-0.343 -0.61291,-0.106 -0.15183,0.355 0.1584,0.159 0.35737,0.475 0.45457,0.722 0.20504,0.522 0.44064,1.063 0.53049,1.218 0.25721,0.443 0.36228,0.683 0.36251,0.83 1.5e-4,0.09 0.0679,0.28 0.15048,0.416 0.0826,0.135 0.19844,0.454 0.25739,0.708 0.0589,0.254 0.24184,0.75 0.40643,1.101 0.17243,0.368 0.3614,0.936 0.44587,1.341 0.0806,0.386 0.19375,0.896 0.25138,1.133 0.0576,0.237 0.12592,0.64 0.15177,0.895 0.0606,0.598 -0.0156,0.63 -0.67622,0.277 -0.39987,-0.213 -0.56052,-0.262 -0.76542,-0.23 -0.15771,0.02 -0.44321,-0.02 -0.72853,-0.105 -0.25807,-0.08 -0.598,-0.146 -0.75544,-0.146 -0.27356,0 -0.28818,-0.01 -0.33025,-0.278 -0.13223,-0.834 -0.59319,-2.495 -0.8468,-3.052 -0.1584,-0.347 -0.33786,-0.782 -0.39881,-0.965 -0.0609,-0.183 -0.28035,-0.671 -0.48758,-1.085 -0.20724,-0.413 -0.37681,-0.78 -0.37681,-0.816 0,-0.09 -0.55745,-1.173 -0.72916,-1.419 -0.0758,-0.108 -0.16189,-0.297 -0.19136,-0.419 -0.13769,-0.571 -0.53787,-0.639 -0.98125,-0.167 -0.16257,0.173 -0.40555,0.399 -0.53997,0.501 l -0.24438,0.187 0.16698,0.332 c 0.0918,0.182 0.21033,0.381 0.26334,0.443 0.053,0.06 0.19893,0.369 0.3243,0.686 0.21977,0.554 0.78443,1.606 1.05852,1.971 0.0729,0.1 0.13264,0.23 0.13273,0.296 7e-5,0.07 0.0966,0.303 0.21454,0.527 0.11791,0.224 0.2544,0.557 0.30331,0.74 0.0489,0.183 0.18469,0.533 0.30172,0.778 0.11702,0.244 0.22203,0.56 0.23335,0.703 l 0.0206,0.259 -0.3332,-0.01 c -0.18326,-0.01 -0.51647,-0.04 -0.74046,-0.07 -0.34882,-0.05 -0.41074,-0.08 -0.43165,-0.232 -0.0167,-0.118 -0.0594,-0.159 -0.13563,-0.129 -0.0612,0.02 -0.12517,0.04 -0.1422,0.04 -0.017,0 -0.031,0.07 -0.031,0.148 0,0.14 -0.0943,0.182 -0.37022,0.164 -0.0611,0 -0.25072,0.02 -0.42141,0.06 -0.17069,0.04 -0.35858,0.05 -0.41751,0.03 -0.0999,-0.04 -0.34578,-0.568 -0.34578,-0.745 0,-0.04 -0.17212,-0.392 -0.38249,-0.775 -0.21037,-0.383 -0.52704,-0.983 -0.70369,-1.335 -0.17666,-0.351 -0.37108,-0.68 -0.432,-0.731 -0.0609,-0.05 -0.11173,-0.129 -0.11286,-0.175 -10e-4,-0.05 -0.10109,-0.215 -0.22213,-0.375 -0.12105,-0.16 -0.22008,-0.327 -0.22008,-0.372 0,-0.05 -0.14972,-0.314 -0.33271,-0.598 -0.18299,-0.284 -0.33294,-0.544 -0.33322,-0.579 -2.5e-4,-0.03 -0.0873,-0.167 -0.19344,-0.293 -0.10612,-0.126 -0.28522,-0.414 -0.398,-0.64 -0.38537,-0.772 -0.66336,-1.225 -0.92382,-1.506 -0.14322,-0.154 -0.29935,-0.354 -0.347,-0.444 -0.0476,-0.09 -0.33129,-0.482 -0.63034,-0.871 -0.29906,-0.389 -0.54375,-0.744 -0.54375,-0.787 0,-0.04 -0.0543,-0.125 -0.12077,-0.18 -0.0664,-0.06 -0.26723,-0.322 -0.44625,-0.594 -0.17901,-0.272 -0.37569,-0.513 -0.43708,-0.537 -0.11129,-0.04 -0.55069,-0.89 -0.55081,-1.062 -4e-5,-0.05 -0.10276,-0.144 -0.22828,-0.208 -0.12552,-0.07 -0.3671,-0.263 -0.53682,-0.439 -0.28268,-0.293 -0.67543,-0.481 -1.01205,-0.484 -0.0611,0 -0.27203,-0.139 -0.46875,-0.307 -0.45626,-0.391 -0.71993,-0.95 -0.79191,-1.679 -0.0295,-0.298 -0.0827,-0.568 -0.11839,-0.599 -0.15119,-0.131 -0.76902,-0.291 -1.26429,-0.328 -0.47615,-0.03 -0.80313,-0.13 -0.91082,-0.265 -0.0204,-0.02 -0.17497,-0.154 -0.34358,-0.285 -0.37488,-0.292 -0.53236,-0.66 -0.59403,-1.39 -0.0596,-0.705 -0.23979,-1.034 -0.52851,-0.964 -0.82959,0.203 -1.60777,0.07 -2.29457,-0.387 -0.71256,-0.475 -1.68616,-0.841 -2.82935,-1.062 -1.39276,-0.27 -2.11644,-0.355 -3.08406,-0.36 -1.15764,-0.01 -1.69859,0.07 -2.38355,0.338 -0.41954,0.164 -0.59,0.282 -0.85864,0.593 -0.18436,0.214 -0.40061,0.5 -0.48057,0.635 -0.13317,0.227 -0.67175,1.754 -0.67175,1.905 0,0.04 -0.0561,0.194 -0.12468,0.351 -0.0686,0.158 -0.13438,0.473 -0.14624,0.701 -0.0119,0.228 -0.0488,0.488 -0.0821,0.578 -0.13309,0.36 0.27705,2.016 0.68975,2.784 0.65431,1.219 1.0667,2.042 1.16904,2.334 0.0642,0.182 0.22188,0.615 0.35032,0.961 0.12846,0.346 0.32904,0.913 0.44575,1.259 0.1167,0.346 0.31512,0.913 0.44095,1.259 0.12582,0.346 0.27898,0.769 0.34036,0.939 0.0614,0.171 0.15891,0.35 0.21673,0.398 0.0578,0.05 0.14078,0.219 0.18435,0.381 0.0436,0.162 0.31036,0.764 0.59289,1.338 0.28253,0.573 0.51422,1.128 0.5149,1.233 10e-4,0.214 0.10282,0.392 0.86376,1.52 0.29246,0.434 0.55168,0.879 0.57601,0.99 0.0243,0.111 0.17556,0.367 0.33605,0.57 0.1605,0.203 0.41776,0.596 0.57167,0.875 0.49879,0.903 0.98957,1.709 1.21104,1.988 0.11909,0.151 0.21652,0.309 0.21652,0.353 0,0.04 -0.11163,0.133 -0.24806,0.198 -0.21422,0.102 -0.3797,0.108 -1.21289,0.05 -1.22156,-0.09 -1.56109,-0.239 -2.22694,-0.96 -0.48814,-0.53 -0.57765,-0.663 -1.19322,-1.775 -0.20723,-0.374 -0.40557,-0.698 -0.44075,-0.72 -0.13187,-0.08 -0.95882,-1.876 -1.07664,-2.336 -0.0674,-0.263 -0.21927,-0.63 -0.33743,-0.814 -0.11815,-0.185 -0.24948,-0.428 -0.29185,-0.54 -0.24087,-0.637 -1.0344,-2.262 -1.13516,-2.325 -0.10465,-0.07 -0.21275,0.134 -0.16761,0.308 0.0212,0.08 0.0886,0.531 0.14996,0.999 0.45771,3.496 0.45446,3.481 0.80836,3.69 0.17648,0.104 0.32034,0.299 0.50831,0.689 0.14421,0.3 0.34916,0.673 0.45548,0.829 0.10631,0.157 0.29145,0.479 0.41145,0.717 0.11999,0.238 0.25498,0.455 0.30002,0.483 0.17501,0.108 0.57073,0.831 0.65941,1.204 0.0513,0.216 0.0812,0.399 0.0664,0.407 -0.0148,0.01 -0.0914,0.05 -0.17029,0.09 -0.11616,0.06 -0.21471,0.03 -0.51832,-0.159 -0.48482,-0.309 -0.51557,-0.342 -0.87547,-0.956 -0.16709,-0.285 -0.34774,-0.563 -0.40142,-0.617 -0.0537,-0.05 -0.0976,-0.155 -0.0976,-0.226 0,-0.148 -0.26479,-0.724 -0.35022,-0.761 -0.0314,-0.01 -0.13713,-0.225 -0.23502,-0.47 -0.0979,-0.244 -0.3093,-0.672 -0.46977,-0.95 -0.19012,-0.33 -0.27756,-0.561 -0.251,-0.662 0.0224,-0.09 -0.006,-0.258 -0.0634,-0.383 -0.10315,-0.224 -0.21576,-0.889 -0.33385,-1.971 -0.0336,-0.309 -0.11381,-0.925 -0.17815,-1.37 -0.0643,-0.445 -0.15069,-1.126 -0.19188,-1.513 -0.0682,-0.641 -0.13763,-1.173 -0.25415,-1.949 -0.0234,-0.155 -0.0709,-0.339 -0.10561,-0.407 -0.0347,-0.07 -0.10626,-0.434 -0.15897,-0.812 -0.0527,-0.378 -0.12416,-0.705 -0.15878,-0.726 -0.0346,-0.02 -0.063,-0.102 -0.063,-0.18 0,-0.08 -0.0455,-0.284 -0.10118,-0.459 -0.28306,-0.887 -0.41135,-1.49 -0.44579,-2.094 -0.0209,-0.366 -0.0606,-0.885 -0.0882,-1.153 -0.0402,-0.39 -0.0204,-0.574 0.10003,-0.926 0.0826,-0.241 0.17083,-0.581 0.19598,-0.756 0.0252,-0.175 0.0761,-0.375 0.11307,-0.445 0.037,-0.07 0.10929,-0.343 0.16059,-0.607 0.0984,-0.508 0.38712,-1.129 0.6953,-1.495 0.10158,-0.121 0.18469,-0.264 0.18469,-0.317 0,-0.122 0.24888,-0.42 0.96942,-1.161 0.30919,-0.318 0.70837,-0.779 0.88704,-1.025 0.17869,-0.245 0.39219,-0.467 0.47446,-0.492 0.0823,-0.03 0.31337,-0.184 0.51356,-0.352 0.20018,-0.167 0.47195,-0.371 0.60394,-0.452 0.39153,-0.242 1.12897,-0.879 1.17969,-1.019 0.0509,-0.141 -0.21551,-0.532 -0.40755,-0.598 -0.68032,-0.235 -1.453,-0.586 -1.81412,-0.824 -0.24434,-0.161 -0.53561,-0.344 -0.64722,-0.407 -1.00791,-0.568 -2.02839,-1.625 -2.51119,-2.601 -0.59772,-1.209 -0.65262,-1.352 -0.73524,-1.92 -0.12582,-0.864 -0.16941,-2.509 -0.0757,-2.857 0.0793,-0.295 0.29363,-0.581 0.54884,-0.733 0.11267,-0.07 0.11483,-0.118 0.0235,-0.555 -0.13885,-0.665 -0.20934,-2.401 -0.11427,-2.814 0.0421,-0.183 0.10813,-0.529 0.14668,-0.768 0.0722,-0.448 0.25635,-1.058 0.35991,-1.192 0.0322,-0.04 0.16171,-0.267 0.28775,-0.5 0.12604,-0.233 0.39741,-0.643 0.60302,-0.912 0.20562,-0.268 0.37655,-0.527 0.37987,-0.575 0.003,-0.05 0.0125,-0.174 0.0204,-0.279 0.009,-0.119 0.1623,-0.342 0.4056,-0.589 0.21518,-0.218 0.44285,-0.485 0.50593,-0.591 0.0971,-0.165 0.88249,-0.697 1.39448,-0.945 0.26471,-0.128 0.72594,-0.181 1.4809,-0.171 0.95352,0.01 1.57859,0.13 1.81411,0.337 0.10181,0.09 0.30174,0.218 0.44427,0.284 0.24511,0.114 0.41736,0.302 1.11253,1.215 0.46906,0.616 0.39131,0.77 -0.27487,0.545 -0.50332,-0.171 -1.81267,-0.411 -2.13344,-0.392 -0.12218,0.01 -0.38875,0.01 -0.59236,0 -1.03972,-0.03 -1.09742,-0.02 -1.68309,0.3 -0.67743,0.374 -0.99349,0.655 -1.06204,0.944 -0.028,0.118 -0.17731,0.381 -0.3317,0.585 -0.49564,0.654 -0.45702,1.037 0.0678,0.673 0.15252,-0.105 0.36077,-0.192 0.4628,-0.192 0.10202,0 0.25017,-0.05 0.32921,-0.109 0.21467,-0.162 0.2834,-0.143 0.82144,0.225 0.53241,0.365 0.67844,0.38 1.05918,0.109 0.38466,-0.274 0.58939,-0.229 1.0699,0.238 0.789,0.766 0.926,0.822 1.86087,0.753 0.61433,-0.05 0.72029,-0.03 0.94304,0.1 0.13801,0.08 0.37402,0.189 0.52445,0.238 0.6065,0.2 1.17587,0.947 1.2648,1.659 0.0577,0.462 0.0427,0.492 -0.68032,1.392 -0.36135,0.449 -0.29069,0.843 0.22391,1.247 l 0.20216,0.159 0.20347,-0.168 c 0.36568,-0.303 0.78664,-0.902 1.18352,-1.684 0.42498,-0.837 0.46718,-1.076 0.24082,-1.364 -0.20302,-0.258 -0.59151,-1.187 -0.59151,-1.414 0,-0.102 0.0296,-0.203 0.0658,-0.225 0.0362,-0.02 0.0887,-0.133 0.11656,-0.245 0.0279,-0.113 0.11101,-0.271 0.18472,-0.353 0.42823,-0.473 1.11286,-3.258 1.86442,-7.583 0.0383,-0.22 0.086,-0.427 0.1061,-0.459 0.0201,-0.03 -0.0167,-0.186 -0.0818,-0.34 -0.18263,-0.434 -0.24867,-0.896 -0.16914,-1.184 0.0392,-0.142 0.051,-0.311 0.0262,-0.376 -0.039,-0.101 -0.0586,-0.103 -0.14473,-0.01 -0.10099,0.107 -0.3783,0.809 -0.48168,1.218 -0.0311,0.124 -0.0917,0.29 -0.13474,0.371 -0.12158,0.227 -0.67678,1.942 -0.80045,2.473 -0.061,0.262 -0.22668,0.694 -0.36814,0.96 -0.14147,0.266 -0.25721,0.53 -0.25721,0.587 0,0.06 -0.0448,0.207 -0.0995,0.335 -0.0547,0.129 -0.27764,0.681 -0.49537,1.227 -0.21772,0.546 -0.5312,1.246 -0.69661,1.555 l -0.30075,0.562 -0.41379,0.02 c -0.56714,0.03 -0.62484,-0.05 -0.61438,-0.876 0.006,-0.495 0.0433,-0.711 0.15994,-0.932 0.35704,-0.677 0.74528,-1.503 0.89992,-1.917 0.0915,-0.244 0.20962,-0.527 0.26254,-0.629 0.0529,-0.102 0.12051,-0.299 0.15022,-0.437 0.0753,-0.352 0.61925,-1.646 0.75638,-1.8 0.0623,-0.07 0.0955,-0.173 0.0739,-0.229 -0.0216,-0.06 0.0188,-0.233 0.0898,-0.392 0.071,-0.159 0.15384,-0.389 0.18415,-0.511 0.0303,-0.122 0.0992,-0.272 0.15305,-0.333 0.0539,-0.06 0.13128,-0.228 0.17204,-0.37 0.0881,-0.308 0.73526,-1.848 0.82341,-1.959 0.0338,-0.04 0.11228,-0.244 0.17437,-0.448 0.22164,-0.727 0.52816,-1.507 0.84354,-2.147 0.0602,-0.122 0.16007,-0.369 0.22197,-0.549 0.11326,-0.328 0.47068,-1.134 0.80775,-1.821 0.1,-0.203 0.18124,-0.406 0.18061,-0.451 -7.6e-4,-0.04 0.0656,-0.141 0.14724,-0.215 0.0816,-0.07 0.18327,-0.264 0.22588,-0.422 0.0426,-0.159 0.20907,-0.492 0.36991,-0.74 0.16084,-0.249 0.29244,-0.486 0.29244,-0.527 0,-0.116 0.37779,-0.873 0.60416,-1.209 0.11345,-0.169 0.32916,-0.552 0.4794,-0.852 0.15022,-0.299 0.3299,-0.628 0.39931,-0.73 0.0694,-0.102 0.25299,-0.385 0.40798,-0.629 0.15499,-0.244 0.37924,-0.561 0.49833,-0.704 0.1191,-0.142 0.47159,-0.625 0.78332,-1.073 0.31172,-0.447 0.86667,-1.125 1.23319,-1.506 0.36652,-0.381 0.69973,-0.75 0.74046,-0.821 0.16177,-0.279 1.47438,-1.313 2.01344,-1.586 0.437,-0.221 0.4773,-0.267 0.82526,-0.928 0.28494,-0.541 0.99223,-1.25 1.70205,-1.706 0.19042,-0.122 0.4795,-0.32 0.6424,-0.44 0.3818,-0.281 1.65461,-0.888 2.4435,-1.165 0.20362,-0.07 0.40354,-0.153 0.44427,-0.181 0.0407,-0.03 0.25706,-0.1 0.48077,-0.147 0.48603,-0.114 1.13888,-0.542 1.44088,-0.944 0.12023,-0.16 0.32014,-0.357 0.44427,-0.438 0.26578,-0.175 2.07728,-0.985 2.20861,-0.988 0.0497,0 0.155,-0.05 0.23405,-0.111 0.079,-0.06 0.28839,-0.109 0.46516,-0.109 0.17678,0 0.44105,-0.05 0.58726,-0.111 0.1462,-0.06 0.37941,-0.111 0.51827,-0.111 0.13885,0 0.45687,-0.07 0.70671,-0.153 0.24983,-0.08 0.53203,-0.134 0.62712,-0.11 0.0951,0.02 0.54684,0.06 1.00391,0.08 1.33342,0.07 1.89638,0.174 3.62919,0.705 0.61803,0.189 0.79282,0.281 1.22173,0.641 0.27531,0.232 0.54654,0.484 0.60277,0.561 0.16673,0.227 0.54337,0.349 0.8318,0.27 0.24035,-0.07 1.57971,0 1.99074,0.102 0.10181,0.02 0.28506,0.07 0.40724,0.09 0.74931,0.149 1.80197,0.642 2.39709,1.122 0.67913,0.548 1.78155,1.584 1.88006,1.768 0.0503,0.09 0.31641,0.503 0.59134,0.909 0.2749,0.406 0.52202,0.799 0.54912,0.874 0.0271,0.07 0.14114,0.253 0.2534,0.398 0.11225,0.144 0.29228,0.483 0.40009,0.752 0.23794,0.594 0.33005,0.683 0.85413,0.819 0.50441,0.131 1.20232,0.567 1.55267,0.972 0.44909,0.518 1.03663,1.352 1.03673,1.471 7e-5,0.07 0.13341,0.326 0.29632,0.565 0.16289,0.238 0.29619,0.477 0.29619,0.53 0,0.05 0.0987,0.299 0.21928,0.546 0.20254,0.416 0.47052,1.662 0.47085,2.19 1.5e-4,0.233 -0.0891,1.37 -0.13081,1.666 -0.14144,1.005 -0.22347,1.342 -0.43966,1.807 -0.0454,0.1 -0.073,0.235 -0.0613,0.304 0.0118,0.07 -0.0882,0.26 -0.22214,0.423 -0.13394,0.163 -0.31018,0.38 -0.3916,0.483 -0.29576,0.375 -0.8593,0.945 -0.9346,0.945 -0.0424,0 -0.21601,0.112 -0.38578,0.25 -0.34604,0.281 -1.81502,1.008 -2.03528,1.008 -0.1899,0 -0.75306,0.619 -0.75694,0.832 -0.007,0.358 -0.32893,0.829 -0.88547,1.292 -1.19444,0.993 -1.18737,0.985 -1.2923,1.488 -0.0529,0.253 -0.12924,0.502 -0.1697,0.553 -0.0405,0.05 -0.1158,0.276 -0.16742,0.5 -0.0516,0.224 -0.16665,0.624 -0.25561,0.889 -0.089,0.264 -0.24221,0.73 -0.34049,1.035 -0.0983,0.305 -0.28375,0.692 -0.41209,0.86 -0.12835,0.168 -0.29051,0.426 -0.36036,0.573 -0.12326,0.26 -0.57892,0.815 -1.04281,1.272 -0.29515,0.29 -0.34282,0.487 -0.1716,0.71 0.0751,0.1 0.13735,0.221 0.13826,0.273 9.1e-4,0.05 0.0749,0.195 0.16448,0.316 0.23973,0.324 0.0943,0.431 -0.66901,0.49 -0.33527,0.03 -0.62936,0.08 -0.65356,0.118 -0.0636,0.103 0.12427,0.2 0.38927,0.201 0.29209,0 0.52996,0.233 0.37311,0.363 -0.0577,0.05 -0.23346,0.09 -0.39059,0.09 -0.15715,0 -0.52266,0.02 -0.81224,0.04 l -0.52651,0.04 -0.12138,-0.303 c -0.0668,-0.167 -0.12137,-0.33 -0.12137,-0.363 0,-0.03 0.14994,-0.253 0.33319,-0.489 0.29601,-0.381 0.33316,-0.471 0.33293,-0.809 -3.8e-4,-0.509 -0.19838,-0.824 -0.63594,-1.012 -0.18626,-0.08 -0.48421,-0.145 -0.6621,-0.145 l -0.32346,0 0.0412,0.611 c 0.0376,0.558 0.026,0.633 -0.13318,0.863 -0.25226,0.365 -0.5186,0.536 -0.90114,0.58 -0.31748,0.04 -0.35544,0.02 -0.675,-0.286 -0.22533,-0.216 -0.35511,-0.411 -0.38796,-0.583 -0.0444,-0.233 -0.0373,-0.249 0.0709,-0.16 0.14464,0.119 0.2749,0.05 0.2749,-0.135 0,-0.08 0.1164,-0.291 0.25865,-0.477 0.14227,-0.186 0.22017,-0.339 0.17311,-0.339 -0.24843,0 -0.8967,0.27 -0.96903,0.404 -0.045,0.08 -0.0965,0.601 -0.1144,1.151 -0.0265,0.814 -0.003,1.15 0.12443,1.804 0.39462,2.02 0.056,2.768 -1.3754,3.038 -0.35856,0.07 -0.90184,0.135 -1.20728,0.15 -0.30544,0.01 -0.61058,0.05 -0.67807,0.08 -0.0675,0.03 -0.19505,0.207 -0.28344,0.397 -0.0884,0.191 -0.22314,0.463 -0.29946,0.606 -0.18067,0.337 -0.1796,0.812 0.003,1.395 0.31608,1.008 0.14757,1.587 -0.48987,1.683 -0.26332,0.04 -0.39604,0.114 -0.60883,0.345 -0.37962,0.41 -0.63429,0.525 -1.13592,0.51 -0.3784,-0.01 -0.48923,-0.06 -1.05127,-0.424 -0.34556,-0.226 -0.64641,-0.459 -0.66856,-0.516 -0.0222,-0.06 -0.11059,-0.105 -0.19651,-0.105 -0.38811,0 -1.54251,-1.641 -1.64138,-2.333 -0.0151,-0.106 0.0212,-0.148 0.12694,-0.148 0.0963,0 0.2258,0.123 0.37021,0.353 0.12218,0.194 0.29417,0.372 0.38218,0.395 0.088,0.02 0.24656,0.139 0.35228,0.258 0.17024,0.191 0.24102,0.216 0.61851,0.216 0.47516,0 0.90879,0.186 1.15153,0.495 0.17976,0.228 0.41695,0.323 0.58688,0.234 0.2083,-0.109 0.15476,-0.251 -0.27766,-0.736 -0.22399,-0.251 -0.40725,-0.486 -0.40725,-0.522 0,-0.103 -0.64765,-0.49 -1.03358,-0.618 -0.42215,-0.14 -1.46906,-0.669 -1.66076,-0.839 -0.0769,-0.07 -0.18746,-0.237 -0.24571,-0.375 -0.13962,-0.33 -0.04,-0.43 0.26871,-0.271 0.46146,0.239 1.31777,0.485 2.20988,0.636 0.4996,0.08 1.02421,0.202 1.1658,0.261 0.24649,0.103 0.48536,0.405 0.68539,0.866 0.0836,0.192 0.11201,0.203 0.4962,0.18 0.22413,-0.01 0.4257,-0.04 0.44795,-0.07 0.0223,-0.02 0.0916,-0.254 0.1541,-0.514 0.0625,-0.26 0.14205,-0.539 0.17676,-0.62 0.30387,-0.713 0.46146,-1.003 0.68014,-1.252 0.23045,-0.262 0.29979,-0.295 0.74135,-0.348 0.26791,-0.03 0.75022,-0.144 1.07181,-0.248 0.52068,-0.168 0.60743,-0.223 0.79254,-0.503 0.18901,-0.286 0.20442,-0.359 0.16993,-0.801 -0.0209,-0.267 -0.10639,-0.681 -0.19006,-0.919 -0.1299,-0.37 -0.14619,-0.547 -0.1116,-1.217 0.11071,-2.143 0.76682,-3.492 2.01719,-4.148 0.25295,-0.133 0.9753,-0.165 0.9753,-0.04 0,0.134 0.17201,0.186 0.62226,0.186 0.46731,0 1.02796,0.175 1.36652,0.427 0.2917,0.217 0.56491,0.754 0.44184,0.868 -0.0531,0.05 -0.0893,0.05 -0.10861,0 -0.27746,-0.711 -0.98857,-0.944 -2.49707,-0.818 -0.54864,0.05 -0.69441,0.09 -0.99296,0.288 -0.26152,0.174 -0.34989,0.28 -0.34989,0.418 0,0.169 0.026,0.184 0.29619,0.172 1.17135,-0.05 1.50591,-0.03 2.18433,0.155 0.38689,0.105 0.83763,0.192 1.00165,0.192 0.3094,0 0.66162,0.181 0.58719,0.301 -0.0234,0.04 -0.10731,0.07 -0.18635,0.07 -0.17174,0 -0.18877,0.167 -0.0305,0.298 0.1579,0.131 0.42998,0 0.63481,-0.314 0.0883,-0.134 0.28777,-0.343 0.44321,-0.465 0.37331,-0.294 1.00185,-1.062 1.14114,-1.396 0.14021,-0.335 0.14232,-0.67 0.005,-0.785 -0.13401,-0.111 -0.65866,-0.127 -1.75611,-0.06 l -0.86261,0.06 -0.16828,-0.272 c -0.15335,-0.248 -0.15876,-0.289 -0.0611,-0.463 0.14132,-0.252 0.55662,-0.343 1.51237,-0.333 0.64515,0.01 0.79847,0.03 1.16917,0.209 0.23467,0.111 0.46861,0.186 0.51988,0.166 0.0917,-0.03 0.14521,-0.169 0.41773,-1.051 0.0755,-0.244 0.22612,-0.728 0.33464,-1.074 0.42843,-1.366 0.57162,-2.243 0.56744,-3.473 -0.002,-0.627 -0.0422,-1.527 -0.0891,-1.999 -0.11174,-1.125 -0.22684,-1.319 -0.94891,-1.595 -0.51967,-0.198 -0.60307,-0.281 -0.60307,-0.594 0,-0.222 -0.24335,-0.525 -0.36267,-0.451 -0.0643,0.04 -0.0756,0.177 -0.0391,0.474 l 0.0513,0.419 -0.16585,-0.148 c -0.0912,-0.08 -0.22612,-0.265 -0.29979,-0.407 -0.0737,-0.143 -0.27328,-0.393 -0.44361,-0.556 -0.50877,-0.486 -0.84944,-1.058 -1.13646,-1.908 -0.14821,-0.439 -0.26947,-0.836 -0.26947,-0.882 0,-0.05 -0.22932,-0.553 -0.50958,-1.127 -0.77704,-1.592 -0.91711,-2.634 -0.52304,-3.892 0.0825,-0.264 0.16751,-0.597 0.1889,-0.741 0.0214,-0.143 0.0748,-0.364 0.11859,-0.49 0.10305,-0.295 0.0105,-0.465 -0.35892,-0.66 -0.30273,-0.159 -0.61574,-0.623 -0.6178,-0.915 -6.6e-4,-0.1 0.0545,-0.332 0.12269,-0.524 0.0681,-0.192 0.10077,-0.409 0.0725,-0.483 -0.0465,-0.121 -0.0635,-0.123 -0.17944,-0.02 -0.0704,0.06 -0.37019,0.238 -0.66615,0.39 -0.46592,0.239 -0.58268,0.27 -0.87027,0.231 -0.18268,-0.03 -0.46399,-0.113 -0.62515,-0.195 -0.21105,-0.108 -0.43753,-0.15 -0.80973,-0.15 l -0.51673,0 -0.0443,-0.314 c -0.0244,-0.173 -0.0348,-0.448 -0.0231,-0.611 l 0.0213,-0.296 -0.34794,0 c -0.43176,0 -0.5384,-0.102 -0.52261,-0.498 0.0149,-0.374 -0.0771,-0.502 -0.36264,-0.502 -0.3148,0 -0.70359,-0.184 -0.80818,-0.383 -0.11797,-0.223 -0.20988,-0.281 -0.45178,-0.282 -0.28415,0 -0.35384,-0.351 -0.14173,-0.711 0.29117,-0.493 0.17787,-0.524 -0.42354,-0.113 -0.23193,0.158 -0.59859,0.458 -0.81479,0.666 -0.42431,0.409 -0.47124,0.431 -0.59743,0.279 -0.0615,-0.07 -0.0607,-0.166 0.003,-0.352 0.10347,-0.302 0.66311,-1.051 0.92121,-1.232 0.45342,-0.319 0.78836,-0.678 0.74284,-0.797 -0.14022,-0.365 -1.37714,0.527 -2.36085,1.703 -0.13623,0.163 -0.37336,0.563 -0.52691,0.889 -0.15357,0.326 -0.35768,0.742 -0.45355,0.926 -0.26002,0.498 -0.6161,2.065 -0.67419,2.968 -0.0514,0.799 0.0289,1.637 0.23198,2.421 0.25718,0.992 1.37207,2.623 1.95218,2.855 0.43761,0.175 0.49015,0.287 0.26183,0.558 -0.19555,0.233 -0.56159,0.319 -0.66203,0.157 -0.0563,-0.09 -0.55532,-0.1 -0.55532,-0.01 0,0.04 -0.0969,0.105 -0.2153,0.154 -0.18725,0.08 -0.25566,0.07 -0.52532,-0.08 -0.2986,-0.166 -0.31319,-0.168 -0.39559,-0.03 -0.31296,0.503 -0.31443,0.504 -0.96434,0.454 -0.33116,-0.02 -0.73086,-0.1 -0.88824,-0.167 -0.27206,-0.116 -0.2912,-0.115 -0.38874,0.02 -0.0564,0.08 -0.10259,0.214 -0.10259,0.305 0,0.126 -0.0568,0.178 -0.23632,0.217 -0.25302,0.06 -0.26299,0.05 -1.03036,-0.841 -0.14689,-0.17 -0.306,-0.31 -0.35355,-0.31 -0.16041,0 -0.24604,0.38 -0.16141,0.716 0.0432,0.172 0.0795,0.556 0.0805,0.854 0.002,0.661 0.20092,1.573 0.47648,2.187 0.11324,0.252 0.18626,0.51 0.16226,0.572 -0.0525,0.137 -0.29888,0.15 -0.39625,0.02 -0.0833,-0.11 -0.50162,-1.11 -0.59646,-1.425 -0.0436,-0.145 -0.12312,-0.23 -0.22937,-0.246 -0.15655,-0.02 -0.16098,-0.01 -0.11932,0.444 0.0423,0.458 0.12828,0.838 0.25686,1.135 0.27277,0.63 0.36986,0.883 0.36986,0.963 0,0.285 -1.09484,0.105 -1.54856,-0.255 -0.16497,-0.13 -0.33385,-0.216 -0.37529,-0.191 -0.16107,0.1 -0.0715,0.476 0.19704,0.828 0.46462,0.609 0.84353,1.234 0.78398,1.293 -0.0313,0.03 -0.19016,0.03 -0.35301,-0.01 -0.16287,-0.04 -0.42106,-0.07 -0.57378,-0.07 -0.39417,0 -0.3834,0.227 0.0201,0.426 0.33968,0.169 0.26525,0.239 -0.25238,0.239 -0.36703,0 -0.61509,-0.162 -1.08073,-0.704 -0.35334,-0.411 -0.44554,-0.474 -0.44554,-0.305 0,0.316 0.32255,0.946 0.61035,1.192 0.17518,0.15 0.25683,0.261 0.19194,0.261 -0.14745,0 -0.358,0.236 -0.358,0.401 0,0.106 -0.0411,0.12 -0.22921,0.08 -0.49945,-0.11 -1.30403,-0.541 -1.53678,-0.823 -0.12829,-0.156 -0.23324,-0.308 -0.23324,-0.339 0,-0.03 -0.0941,-0.264 -0.20909,-0.52 -0.29842,-0.663 -0.36434,-0.855 -0.45839,-1.334 -0.053,-0.271 -0.12047,-0.426 -0.18493,-0.426 -0.1752,0 -0.1808,0.106 -0.0362,0.685 0.15829,0.633 0.53196,1.423 0.90504,1.912 0.13746,0.18 0.31381,0.436 0.39186,0.568 0.0781,0.133 0.18472,0.241 0.23703,0.241 0.14033,0 0.11554,0.181 -0.0447,0.326 -0.13216,0.119 -0.15317,0.118 -0.38482,-0.02 -0.18333,-0.112 -0.26978,-0.129 -0.34338,-0.07 -0.0808,0.07 -0.0762,0.106 0.0261,0.219 0.0684,0.08 0.16733,0.137 0.2198,0.137 0.1126,0 0.32592,0.284 0.32592,0.434 0,0.08 -0.0726,0.1 -0.31469,0.06 -0.24321,-0.03 -0.35674,-0.01 -0.4998,0.1 -0.38127,0.293 -0.75724,0.158 -1.40102,-0.506 -0.16602,-0.171 -0.33744,-0.311 -0.38098,-0.311 -0.0471,0 -0.0696,0.123 -0.0556,0.303 l 0.0235,0.304 -0.42721,0.133 c -0.48561,0.152 -0.62887,0.239 -1.07604,0.656 -0.22348,0.208 -0.33149,0.377 -0.362,0.565 -0.04,0.247 -0.016,0.294 0.30331,0.591 0.38623,0.36 0.50847,0.665 0.4393,1.097 -0.041,0.257 -0.0302,0.287 0.0923,0.264 0.10021,-0.02 0.16292,-0.136 0.22609,-0.421 0.0972,-0.438 0.12927,-0.493 0.244,-0.422 0.10177,0.06 0.10365,1.114 0.002,1.304 -0.11876,0.222 -0.44789,0.182 -0.72378,-0.09 -0.21711,-0.213 -0.23619,-0.27 -0.23619,-0.707 0,-0.449 -0.0126,-0.483 -0.2163,-0.6 -0.11896,-0.07 -0.30191,-0.257 -0.40653,-0.418 -0.16347,-0.252 -0.18473,-0.35 -0.15103,-0.697 0.0461,-0.474 0.10272,-0.596 0.50428,-1.079 0.29244,-0.352 1.02003,-0.785 1.31868,-0.785 0.35688,0 0.40367,-0.165 0.13658,-0.481 -0.0688,-0.08 -0.16646,-0.254 -0.21705,-0.382 -0.13122,-0.333 -0.38206,-0.548 -0.5788,-0.497 -0.16511,0.04 -0.82876,0.852 -1.25894,1.534 -0.43041,0.683 -0.54242,0.47 -0.16256,-0.309 0.26205,-0.537 0.66554,-1.131 1.09177,-1.607 0.28372,-0.317 0.29424,-0.346 0.22178,-0.61 -0.0418,-0.152 -0.12236,-0.367 -0.17896,-0.477 -0.0566,-0.11 -0.10289,-0.268 -0.10289,-0.351 0,-0.206 -0.22947,-0.198 -0.41939,0.01 -0.082,0.09 -0.224,0.292 -0.31565,0.445 -0.0917,0.153 -0.28268,0.417 -0.42453,0.587 -0.14185,0.17 -0.32308,0.428 -0.40276,0.573 -0.0797,0.145 -0.2095,0.364 -0.28851,0.486 -0.2154,0.333 -0.3705,0.702 -0.3705,0.881 0,0.09 -0.0482,0.229 -0.1072,0.313 -0.20939,0.299 -0.32764,1.408 -0.25635,2.405 0.0361,0.505 0.0854,0.985 0.10953,1.066 0.0241,0.08 0.0712,0.448 0.10456,0.815 0.092,1.011 0.37965,1.804 0.83517,2.302 0.59524,0.651 1.04664,0.812 1.54786,0.551 0.50246,-0.262 0.53147,-0.211 0.47661,0.832 -0.0262,0.498 -0.0673,1.756 -0.0913,2.796 -0.0506,2.191 -0.0107,2.49 0.5384,4.041 0.18609,0.525 0.37118,1.071 0.41133,1.214 0.088,0.312 0.61506,1.372 1.08665,2.184 0.18913,0.326 0.39361,0.681 0.45441,0.789 0.20947,0.372 0.76669,1.137 1.15037,1.581 0.21155,0.244 0.43593,0.544 0.49863,0.666 0.0627,0.122 0.29566,0.378 0.51772,0.569 0.43107,0.371 0.71937,0.957 0.56316,1.145 -0.11344,0.137 -0.52522,-0.03 -0.93708,-0.39 -0.36538,-0.316 -0.99788,-1.349 -1.08607,-1.775 -0.0261,-0.126 -0.15917,-0.347 -0.29579,-0.492 -0.39135,-0.415 -0.94011,-1.27 -1.48568,-2.315 -0.27637,-0.529 -0.54496,-1.013 -0.59684,-1.074 -0.0519,-0.06 -0.16537,-0.291 -0.25217,-0.512 -0.0868,-0.221 -0.21964,-0.537 -0.29522,-0.703 -0.59813,-1.316 -0.89402,-2.944 -0.9001,-4.953 -0.002,-0.782 0.0193,-1.66 0.048,-1.951 0.0615,-0.623 0.019,-0.741 -0.20886,-0.582 -0.20648,0.145 -0.45147,0.142 -0.85043,-0.01 -0.48266,-0.184 -0.51738,-0.116 -0.57418,1.123 -0.0511,1.115 -0.33187,3.421 -0.52134,4.283 -0.28778,1.308 -0.57773,2.427 -0.7228,2.788 -0.0572,0.142 -0.161,0.459 -0.23069,0.703 -0.0697,0.245 -0.18863,0.578 -0.26433,0.741 -0.0757,0.163 -0.26958,0.579 -0.43086,0.925 -0.16129,0.347 -0.31715,0.713 -0.34637,0.815 -0.0292,0.102 -0.1134,0.252 -0.18705,0.333 -0.0737,0.08 -0.2745,0.415 -0.4463,0.741 -0.52887,1.002 -1.23283,1.924 -2.01283,2.634 -0.18187,0.165 -0.27766,0.317 -0.27766,0.441 0,0.192 0.17869,0.323 1.36479,0.997 0.2149,0.122 0.57051,0.358 0.79024,0.525 0.21974,0.166 0.48282,0.346 0.58462,0.399 0.10182,0.05 0.33505,0.218 0.51833,0.366 0.18326,0.148 0.47448,0.368 0.64717,0.489 0.68919,0.483 0.80631,0.573 1.0921,0.839 0.16334,0.153 0.63017,0.54 1.03742,0.862 1.24347,0.982 2.55513,2.213 3.83193,3.598 0.31561,0.343 0.89243,0.956 1.2818,1.363 1.39864,1.463 1.55909,1.639 2.15562,2.37 0.33269,0.407 0.7694,0.865 0.97051,1.018 0.31869,0.242 0.41687,0.277 0.76481,0.276 0.87638,0 2.48123,-0.244 3.65707,-0.55 1.95723,-0.509 2.44007,-0.685 2.51479,-0.921 0.0486,-0.153 -0.0787,-0.603 -0.28633,-1.012 -0.0632,-0.125 -0.12397,-0.308 -0.13505,-0.408 -0.0348,-0.312 0.18741,-0.206 0.39696,0.19 0.10775,0.203 0.28288,0.534 0.3892,0.734 0.2069,0.39 0.2515,0.794 0.10074,0.912 -0.14208,0.112 -1.24046,0.54 -1.57345,0.613 -0.1629,0.04 -0.53632,0.115 -0.82982,0.176 -0.2935,0.06 -0.60277,0.148 -0.68727,0.193 -0.0845,0.05 -0.39414,0.113 -0.6881,0.151 -0.29396,0.04 -0.70108,0.101 -0.90471,0.14 -1.6876,0.322 -2.05384,0.339 -2.68058,0.124 -0.34343,-0.118 -1.20694,-0.92 -1.61788,-1.504 -0.42892,-0.608 -0.97259,-1.253 -1.76888,-2.099 -0.85826,-0.91 -1.77772,-1.929 -1.80471,-1.999 -0.0307,-0.08 -2.72645,-2.538 -3.21939,-2.936 -0.21216,-0.171 -0.51903,-0.423 -0.68194,-0.561 -0.2676,-0.227 -0.63055,-0.499 -1.88814,-1.414 -0.22399,-0.163 -0.44057,-0.333 -0.4813,-0.377 -0.0407,-0.04 -0.37392,-0.272 -0.74044,-0.508 -0.36651,-0.236 -0.82913,-0.535 -1.02803,-0.665 -0.1989,-0.13 -0.45943,-0.291 -0.57895,-0.359 -0.11953,-0.07 -0.27333,-0.168 -0.34178,-0.225 -0.18134,-0.149 -0.6621,-0.355 -0.8278,-0.355 -0.18231,0 -0.29626,0.213 -0.29626,0.554 0,0.185 -0.0535,0.317 -0.17476,0.43 -0.0961,0.09 -0.36355,0.345 -0.5943,0.567 -0.23076,0.222 -0.56846,0.489 -0.75047,0.593 -1.12115,0.639 -1.68563,1.01 -1.73403,1.141 -0.0645,0.174 0.1456,0.804 0.34436,1.032 0.60303,0.692 0.83571,0.838 1.4276,0.893 0.84062,0.08 1.13861,0.178 1.43485,0.481 l 0.26652,0.273 -0.072,0.442 c -0.0827,0.509 -0.0624,0.602 0.22463,1.027 0.30719,0.455 0.48645,0.531 0.91501,0.385 0.1907,-0.07 0.51171,-0.118 0.71331,-0.118 0.34199,0 0.37899,0.02 0.55148,0.28 0.19886,0.3 0.33552,0.872 0.33552,1.404 0,0.443 0.19198,0.821 0.51316,1.011 0.21309,0.126 0.38626,0.156 0.89369,0.156 0.49921,0 0.71658,0.04 1.05109,0.179 0.47986,0.203 0.57434,0.354 0.61304,0.978 0.0575,0.928 0.37283,1.645 0.83137,1.892 0.22648,0.122 0.25812,0.122 0.59341,0 0.1948,-0.07 0.52259,-0.127 0.7284,-0.126 0.32714,0 0.40448,0.03 0.61501,0.248 0.20306,0.21 0.25775,0.346 0.34898,0.871 0.14269,0.819 0.14324,0.821 0.48247,1.25 0.25298,0.32 0.32898,0.371 0.5553,0.371 0.14422,0 0.42324,-0.07 0.62005,-0.154 0.32709,-0.141 0.37597,-0.145 0.56907,-0.04 0.57164,0.299 0.79872,0.711 0.73681,1.337 -0.0246,0.249 -0.0146,0.578 0.0223,0.732 0.1209,0.505 1.18544,1.904 1.44909,1.904 0.0434,0 0.20569,0.09 0.36058,0.192 0.22421,0.152 0.41914,0.204 0.95596,0.254 0.80985,0.08 0.95951,0.03 1.53645,-0.497 0.46004,-0.418 0.66111,-0.541 0.88735,-0.541 0.23139,0 0.60019,0.208 0.85578,0.483 0.19507,0.21 0.29056,0.249 0.71355,0.295 0.79776,0.09 0.98832,0 1.28919,-0.556 0.36797,-0.683 0.61124,-0.743 1.20605,-0.296 0.3246,0.244 0.45337,0.296 0.72944,0.296 0.36941,0 0.95988,-0.29 1.27599,-0.626 0.25264,-0.269 0.77146,-0.559 1.00082,-0.559 0.26846,0 0.62459,0.194 0.90018,0.491 0.17783,0.191 0.29238,0.25 0.48981,0.25 0.32247,0 0.62092,-0.227 0.68554,-0.521 0.12555,-0.572 0.81791,-1.404 1.16783,-1.404 0.0926,0 0.24456,0.05 0.33763,0.118 0.0931,0.07 0.36758,0.137 0.61004,0.159 0.35805,0.03 0.46842,0.01 0.58774,-0.09 0.0808,-0.07 0.14689,-0.165 0.14689,-0.203 0,-0.148 0.26125,-0.626 0.53024,-0.97 0.31576,-0.404 0.30577,-0.489 -0.0923,-0.792 -0.37248,-0.282 -1.00343,-0.806 -1.54051,-1.278 -0.26917,-0.237 -0.75126,-0.62 -1.0713,-0.852 -0.32003,-0.231 -0.93578,-0.682 -1.36832,-1.002 -0.43253,-0.32 -0.90372,-0.645 -1.04709,-0.723 -0.14337,-0.08 -0.41061,-0.256 -0.59387,-0.395 -0.18327,-0.14 -0.36041,-0.256 -0.39369,-0.258 -0.0979,-0.01 -0.59661,-0.4 -0.71395,-0.56 -0.0594,-0.08 -0.26132,-0.315 -0.44866,-0.519 -0.18735,-0.203 -0.45395,-0.553 -0.59245,-0.777 -0.13851,-0.224 -0.37798,-0.558 -0.53214,-0.741 -0.15418,-0.183 -0.55186,-0.666 -0.88373,-1.073 -0.97154,-1.193 -1.5531,-1.815 -1.69639,-1.815 -0.14486,0 -0.27113,0.35 -0.47086,1.302 -0.0845,0.404 -0.0894,0.587 -0.0234,0.873 0.0784,0.34 0.073,0.371 -0.0871,0.5 -0.16715,0.136 -0.17512,0.135 -0.38679,-0.02 -0.34138,-0.243 -0.5091,-0.649 -0.50804,-1.23 10e-4,-0.496 0.22128,-1.455 0.47096,-2.049 0.0663,-0.157 0.12038,-0.324 0.12027,-0.37 -1.5e-4,-0.05 -0.29168,-0.333 -0.64789,-0.638 -0.68082,-0.584 -1.34987,-1.255 -1.35065,-1.356 -5.1e-4,-0.06 -0.48835,-0.803 -0.81538,-1.236 -0.10759,-0.143 -0.33456,-0.446 -0.50439,-0.673 -0.16982,-0.227 -0.45892,-0.572 -0.64243,-0.767 -0.33012,-0.349 -0.42035,-0.559 -0.2411,-0.56 0.20377,0 1.52234,1.478 2.08643,2.341 0.59264,0.906 0.87957,1.227 1.54522,1.724 0.64084,0.479 3.49234,3.379 3.82763,3.893 0.0789,0.121 0.20731,0.271 0.28537,0.333 0.16571,0.133 0.94154,1.042 1.18456,1.389 0.12978,0.185 0.15655,0.296 0.11928,0.495 -0.0744,0.397 0.25733,0.751 1.15797,1.237 0.40587,0.219 0.86198,0.466 1.01356,0.547 0.38725,0.21 1.02446,0.598 1.46032,0.892 0.98132,0.66 1.5032,1.014 1.74006,1.181 0.14253,0.101 0.3969,0.277 0.56528,0.392 0.16837,0.114 0.56821,0.445 0.88855,0.734 0.83215,0.752 1.62596,1.408 1.96007,1.619 0.40602,0.256 0.79079,0.809 0.84614,1.216 0.0249,0.184 0.0765,0.417 0.11469,0.519 0.18113,0.483 0.20098,3.216 0.0308,4.24 -0.0641,0.385 0.009,0.573 0.22323,0.573 0.11833,0 0.20777,-0.07 0.27267,-0.201 0.088,-0.183 0.17249,-0.216 0.94813,-0.372 0.46832,-0.09 1.13156,-0.203 1.47383,-0.24 0.34226,-0.04 0.65715,-0.104 0.69973,-0.146 0.12266,-0.123 0.35755,-0.09 0.5313,0.07 0.1896,0.178 0.32835,0.188 1.4274,0.11 0.61585,-0.04 0.94448,-0.03 1.24267,0.04 0.63726,0.153 0.6219,0.221 0.44946,-2.001 -0.25794,-3.323 -0.28384,-3.806 -0.23943,-4.463 0.14917,-2.208 0.14899,-2.213 -0.11128,-3.071 -0.48498,-1.599 -0.99907,-2.453 -2.27626,-3.778 -0.17586,-0.183 -0.40012,-0.453 -0.49835,-0.6 -0.33786,-0.508 -0.88632,-1.176 -1.57267,-1.918 -1.0166,-1.098 -1.36373,-1.578 -1.88677,-2.608 -0.0931,-0.183 -0.26388,-0.493 -0.37957,-0.688 -0.15625,-0.263 -0.21961,-0.482 -0.24632,-0.851 -0.0198,-0.274 -0.0825,-0.64 -0.13933,-0.815 -0.22525,-0.691 -0.0329,-0.948 0.20171,-0.27 0.14185,0.411 0.27584,0.463 0.41991,0.162 0.23685,-0.494 0.31852,-0.07 0.11224,0.588 -0.10932,0.347 -0.11332,0.457 -0.0312,0.858 0.13726,0.671 0.46237,1.252 1.0382,1.854 0.27951,0.293 0.64925,0.698 0.82166,0.902 0.57826,0.683 0.94841,1.021 1.06808,0.975 0.11141,-0.04 0.10655,-0.116 -0.0305,-0.457 -0.0327,-0.08 -0.12588,-0.348 -0.20701,-0.592 -0.35995,-1.084 -0.55684,-1.645 -0.65018,-1.851 -0.0553,-0.122 -0.12364,-0.356 -0.152,-0.519 -0.0284,-0.162 -0.13244,-0.418 -0.2313,-0.568 -0.1749,-0.265 -0.1764,-0.279 -0.0557,-0.533 0.20666,-0.436 0.25278,-0.444 0.86873,-0.164 0.79756,0.364 1.79708,1.152 1.91161,1.507 0.049,0.152 0.12049,0.317 0.15899,0.365 0.0893,0.113 0.2695,0.737 0.39133,1.356 0.0521,0.264 0.18017,0.797 0.28453,1.184 0.10436,0.387 0.24239,0.904 0.30673,1.148 0.0643,0.244 0.16374,0.594 0.22088,0.778 0.0571,0.183 0.12536,0.483 0.1516,0.666 0.0262,0.183 0.11893,0.6 0.20597,0.926 0.0871,0.325 0.15069,0.618 0.14142,0.651 -0.047,0.164 0.14394,0.968 0.26712,1.124 0.0777,0.1 0.18558,0.34 0.23973,0.535 0.0541,0.195 0.13624,0.388 0.18242,0.429 0.14876,0.131 0.45707,1.747 0.36253,1.9 -0.0265,0.04 -0.0757,0.383 -0.10918,0.755 -0.0335,0.373 -0.0956,0.839 -0.13793,1.036 -0.0583,0.271 -0.0498,0.539 0.0346,1.101 0.0614,0.409 0.1278,0.77 0.14758,0.802 0.0198,0.03 0.0539,0.343 0.0759,0.691 0.0219,0.348 0.0905,0.859 0.15238,1.136 0.0619,0.276 0.14349,0.785 0.18139,1.131 0.0379,0.347 0.12159,1.063 0.186,1.592 0.0644,0.53 0.14332,1.213 0.17536,1.518 0.032,0.306 0.0979,0.654 0.14639,0.774 0.0791,0.197 0.16465,0.934 0.27085,2.336 0.0201,0.265 0.0687,0.704 0.10807,0.977 0.0394,0.272 0.0716,0.625 0.0716,0.784 0,0.159 0.0666,0.549 0.14809,0.868 0.18193,0.711 0.19255,1.115 0.031,1.177 -0.1981,0.08 -0.53928,0.05 -0.62144,-0.05 -0.39622,-0.471 -0.46739,-0.68 -0.53359,-1.574 -0.0362,-0.489 -0.13001,-1.355 -0.20846,-1.925 -0.0784,-0.57 -0.1793,-1.353 -0.22411,-1.74 -0.20196,-1.744 -0.24335,-1.969 -0.42441,-2.317 -0.24201,-0.464 -0.50051,-0.573 -1.38223,-0.579 -0.59109,0 -1.18091,0.09 -1.61689,0.269 -0.0716,0.03 -0.14969,0.14 -0.17349,0.247 -0.0909,0.411 -0.11898,0.456 -0.3121,0.498 -0.10928,0.02 -0.34863,0.09 -0.53189,0.144 -0.53657,0.163 -1.19383,0.315 -1.59197,0.367 -0.20363,0.03 -0.4404,0.07 -0.52619,0.09 -0.16951,0.04 -0.39938,-0.139 -0.39938,-0.312 0,-0.07 0.0866,-0.106 0.27766,-0.106 0.43444,0 2.18651,-0.359 2.29736,-0.47 0.13214,-0.132 0.27488,-1.152 0.17518,-1.252 -0.0845,-0.08 -2.03901,0.263 -2.43779,0.433 -0.26517,0.114 -0.25759,0.1 -0.38464,0.719 l -0.0881,0.429 -0.31497,-0.05 c -0.28843,-0.04 -0.33131,-0.03 -0.50938,0.184 -0.18203,0.216 -0.19445,0.279 -0.19487,0.988 -2.3e-4,0.416 -0.0166,0.973 -0.0363,1.238 -0.11455,1.538 -0.20164,2.445 -0.26307,2.739 -0.0383,0.183 -0.0715,0.583 -0.0739,0.889 -0.002,0.305 -0.0549,0.77 -0.11662,1.032 -0.0618,0.262 -0.16174,0.911 -0.22216,1.443 -0.23605,2.079 -0.3728,2.708 -0.58891,2.708 -0.0631,0 -0.15013,-0.09 -0.1934,-0.204 z m 1.22663,-12.329 c 0.0159,-0.05 0.0445,-0.668 0.0635,-1.371 0.0339,-1.254 0.0312,-1.283 -0.14068,-1.518 -0.21544,-0.294 -0.31596,-0.5 -0.65911,-1.35 -0.148,-0.366 -0.32937,-0.733 -0.40301,-0.814 -0.0737,-0.08 -0.18013,-0.248 -0.23661,-0.371 -0.0715,-0.154 -0.16442,-0.229 -0.30572,-0.245 -0.25334,-0.03 -0.35121,0.186 -0.35121,0.772 0,0.322 0.0529,0.503 0.25916,0.885 0.14254,0.264 0.25917,0.541 0.25917,0.615 0,0.07 0.0636,0.192 0.14132,0.263 0.1631,0.147 0.25686,0.361 0.40833,0.931 0.0595,0.224 0.19263,0.608 0.29584,0.852 0.10319,0.244 0.18915,0.527 0.19101,0.629 0.002,0.102 0.0677,0.327 0.14623,0.5 0.14133,0.311 0.27571,0.401 0.3318,0.222 z m -35.88388,-18.539 c 0.0156,-0.08 -0.0252,-0.123 -0.11724,-0.123 -0.19441,0 -0.25475,0.08 -0.1541,0.199 0.1047,0.126 0.23947,0.09 0.27135,-0.08 z m -4.8472,-2.327 c 0.0194,-0.03 -0.094,-0.25 -0.2521,-0.485 -0.15808,-0.235 -0.34665,-0.616 -0.41903,-0.845 -0.0963,-0.306 -0.24429,-0.538 -0.55213,-0.867 -0.23129,-0.247 -0.49892,-0.54 -0.59471,-0.652 -0.20585,-0.24 -0.6858,-1.153 -0.82676,-1.574 -0.10956,-0.327 -0.40218,-0.493 -0.30554,-0.173 0.10206,0.337 0.49602,1.222 0.96756,2.172 0.26266,0.53 0.47702,1.032 0.47639,1.117 -0.002,0.233 0.41844,0.818 0.72477,1.009 0.58181,0.363 0.71066,0.412 0.78157,0.297 z m 4.29953,-2.331 c 0.0189,-0.09 0.056,-0.333 0.0824,-0.535 0.0311,-0.238 0.0979,-0.403 0.18916,-0.467 0.22967,-0.161 0.19112,-0.694 -0.0785,-1.086 -0.26489,-0.385 -0.39026,-0.444 -0.59504,-0.278 -0.17442,0.141 -0.32579,0.693 -0.25299,0.922 0.0262,0.08 0.007,0.275 -0.0436,0.427 -0.0769,0.233 -0.0715,0.337 0.0345,0.656 0.0692,0.208 0.18149,0.411 0.24956,0.451 0.21073,0.123 0.37805,0.09 0.41449,-0.09 z m -2.71049,-0.933 c 0.03,-0.313 -0.16311,-0.545 -0.42712,-0.515 -0.24561,0.03 -0.27497,0.243 -0.0773,0.564 0.20603,0.335 0.47013,0.309 0.50442,-0.05 z m 0.20323,-2.174 c 0.0285,-0.09 0.24645,-0.449 0.48431,-0.799 0.33424,-0.491 0.53389,-0.701 0.87874,-0.924 0.51744,-0.335 0.54709,-0.448 0.25868,-0.985 -0.26474,-0.493 -0.65508,-1.104 -0.8281,-1.297 -0.0808,-0.09 -0.16758,-0.221 -0.19273,-0.293 -0.10864,-0.308 -0.40365,-0.05 -0.82871,0.714 -0.25719,0.464 -0.332,0.731 -0.24765,0.881 0.045,0.08 0.0138,0.286 -0.0944,0.621 -0.14907,0.462 -0.15467,0.545 -0.0714,1.059 0.12248,0.755 0.28833,1.186 0.45641,1.186 0.0732,0 0.15636,-0.07 0.18486,-0.163 z m 37.6706,-9.613 c 0.1312,-0.103 0.20605,-0.251 0.23943,-0.474 0.0591,-0.394 -10e-4,-0.608 -0.20116,-0.715 -0.2319,-0.124 -0.3135,0.02 -0.13725,0.246 0.18733,0.239 0.18704,0.286 -0.003,0.528 -0.1245,0.158 -0.21533,0.195 -0.4813,0.195 -0.2451,0 -0.32782,0.03 -0.32782,0.114 0,0.259 0.62427,0.332 0.91136,0.106 z m -19.68355,-15.138 c -0.0236,-0.164 -0.0479,-0.881 -0.0541,-1.594 -0.009,-1.1 0.013,-1.396 0.14914,-1.962 0.0882,-0.366 0.24837,-1.049 0.356,-1.517 0.10764,-0.467 0.25911,-0.984 0.33659,-1.147 0.1481,-0.313 0.73998,-1.001 0.86069,-1.001 0.0388,0 0.1309,0.07 0.20461,0.148 0.19456,0.215 0.27645,0.187 0.55939,-0.191 0.1546,-0.206 0.33027,-0.353 0.44972,-0.377 0.1078,-0.02 0.26816,-0.137 0.35635,-0.256 0.0882,-0.12 0.20022,-0.21 0.24896,-0.2 0.0487,0.01 0.24147,-0.01 0.4283,-0.04 0.18813,-0.03 0.42365,-0.02 0.52786,0.02 0.14192,0.05 0.23128,0.04 0.36373,-0.05 0.24142,-0.165 0.27072,-0.22 0.36687,-0.68 0.13126,-0.628 0.57532,-1.673 0.86155,-2.028 0.18219,-0.226 0.22115,-0.464 0.0833,-0.51 -0.10158,-0.03 -1.06627,0.241 -1.29789,0.37 -0.089,0.05 -0.21124,0.09 -0.27176,0.09 -0.26694,0 -1.59081,0.912 -2.1951,1.512 -1.07302,1.066 -1.315,1.367 -2.09183,2.603 -0.66091,1.052 -1.09357,2.177 -1.24147,3.23 -0.0419,0.297 -0.0942,0.599 -0.11644,0.671 -0.0222,0.07 -0.0104,0.129 0.0263,0.129 0.0367,0 0.12832,-0.258 0.20371,-0.574 0.0754,-0.315 0.17773,-0.619 0.22742,-0.675 0.19974,-0.224 0.25643,0 0.25109,0.977 -0.006,1.11 0.0571,2.256 0.13083,2.375 0.0274,0.04 0.0406,0.305 0.0294,0.58 -0.0235,0.575 0.0351,0.741 0.18783,0.533 0.067,-0.09 0.0871,-0.241 0.0589,-0.437 z m 4.11148,0.177 c 0,-0.18 -0.17303,-0.155 -0.20905,0.03 -0.0142,0.07 0.0236,0.124 0.0925,0.124 0.0687,0 0.1165,-0.06 0.1165,-0.155 z m 3.42188,-4.859 c -0.31069,-0.677 -0.38215,-1.034 -0.38428,-1.919 -10e-4,-0.594 0.0225,-0.77 0.1149,-0.847 0.13271,-0.11 0.20225,-0.04 0.34069,0.324 0.0569,0.151 0.12074,0.201 0.23439,0.185 0.11966,-0.02 0.1684,-0.1 0.20845,-0.331 0.0287,-0.169 0.12185,-0.444 0.2069,-0.611 0.13597,-0.266 0.18556,-0.303 0.41059,-0.303 0.40859,0 0.49955,-0.216 0.60465,-1.438 0.051,-0.593 0.15261,-1.237 0.23566,-1.493 0.0803,-0.249 0.16944,-0.64 0.19816,-0.869 0.0629,-0.504 -0.0265,-0.574 -0.50423,-0.396 -0.17155,0.06 -0.59512,0.165 -0.94129,0.225 -0.60685,0.103 -1.19558,0.289 -1.38834,0.438 -0.0509,0.04 -0.0926,0.131 -0.0926,0.203 0,0.07 -0.1343,0.424 -0.29844,0.781 -0.49706,1.081 -0.59694,1.461 -0.64284,2.444 -0.0369,0.79 -0.023,0.951 0.11941,1.379 0.38309,1.151 1.53257,3.006 1.73643,2.802 0.0472,-0.05 -0.008,-0.247 -0.15822,-0.574 z m 19.81381,-0.158 c 0.58283,-0.06 0.64862,-0.165 0.36259,-0.591 -0.1006,-0.15 -0.23979,-0.426 -0.30929,-0.615 -0.1766,-0.479 -0.35078,-0.544 -0.94293,-0.351 -0.53822,0.176 -0.68544,0.289 -0.88616,0.683 -0.22401,0.438 -0.0305,0.679 0.27515,0.341 0.21438,-0.237 0.42463,-0.16 0.49531,0.182 0.0763,0.369 0.18714,0.503 0.36883,0.446 0.0785,-0.02 0.36495,-0.07 0.63653,-0.09 z m 4.30891,-1.085 c 0,-0.115 -0.0885,-0.261 -0.23455,-0.388 -0.129,-0.113 -0.30392,-0.286 -0.38875,-0.386 -0.32381,-0.38 -0.48441,-0.522 -0.59073,-0.522 -0.19289,0 -0.21513,0.156 -0.0535,0.374 0.0862,0.117 0.15816,0.239 0.15981,0.271 0.005,0.1 0.42162,0.553 0.64049,0.698 0.29733,0.196 0.46718,0.179 0.46718,-0.05 z m -9.73065,-1.32 c 0.0459,-0.251 0.0359,-0.282 -0.0842,-0.259 -0.14273,0.03 -0.28053,0.452 -0.21092,0.65 0.0608,0.172 0.2342,-0.06 0.29512,-0.391 z m -17.92318,67.981 c -0.1629,-0.04 -0.4128,-0.117 -0.55533,-0.172 -0.14254,-0.05 -0.44985,-0.139 -0.6829,-0.188 -0.38642,-0.08 -0.45236,-0.126 -0.7486,-0.504 -0.17867,-0.228 -0.34842,-0.489 -0.37724,-0.581 -0.0288,-0.09 -0.0791,-0.166 -0.11185,-0.166 -0.0327,0 -0.23146,-0.259 -0.44168,-0.574 -0.21022,-0.316 -0.49729,-0.724 -0.63795,-0.907 -0.58128,-0.758 -1.03115,-1.443 -1.33644,-2.036 -0.10476,-0.204 -0.33871,-0.571 -0.5199,-0.815 -0.18118,-0.244 -0.39579,-0.561 -0.47688,-0.703 -0.0811,-0.143 -0.17838,-0.309 -0.21616,-0.371 -0.15417,-0.249 -0.92853,-1.62 -1.69348,-2.998 -0.0678,-0.123 -0.29489,-0.489 -0.50461,-0.815 -0.20974,-0.326 -0.48627,-0.792 -0.6145,-1.037 -0.12824,-0.244 -0.415,-0.727 -0.63729,-1.073 -0.78697,-1.226 -1.66304,-3.143 -1.66304,-3.64 0,-0.236 0.19764,-0.355 0.46239,-0.279 0.2949,0.09 0.27807,0.09 0.27807,-0.01 0,-0.1 -0.71821,-0.916 -1.4809,-1.69 -0.30544,-0.311 -0.82774,-0.864 -1.16071,-1.23 -0.33296,-0.366 -0.79365,-0.816 -1.02377,-0.999 -0.23012,-0.184 -0.52124,-0.439 -0.64697,-0.568 -0.24996,-0.256 -0.69021,-1.346 -0.58587,-1.45 0.0347,-0.03 0.29804,0.13 0.58554,0.367 0.28739,0.236 0.69124,0.546 0.89746,0.688 1.27138,0.879 2.16064,1.688 3.04629,2.772 0.26403,0.323 1.18664,1.296 2.05024,2.162 0.86361,0.866 1.63937,1.702 1.72389,1.856 0.0845,0.155 0.25716,0.448 0.3836,0.652 0.12645,0.203 0.24664,0.514 0.26707,0.69 0.0334,0.288 0.0132,0.342 -0.19523,0.533 -0.27057,0.247 -0.27827,0.289 -0.097,0.525 0.31883,0.416 0.82635,1.181 0.96868,1.46 0.22208,0.435 1.24863,2.006 1.49791,2.292 0.11663,0.134 0.25728,0.351 0.31256,0.481 0.0553,0.131 0.31342,0.519 0.5737,0.861 0.26025,0.343 0.58982,0.795 0.73235,1.006 0.14254,0.211 0.3025,0.43 0.35547,0.488 0.13722,0.149 1.0514,1.556 1.0514,1.618 0,0.03 0.26535,0.383 0.58969,0.787 0.37945,0.473 0.59066,0.802 0.59236,0.923 0.002,0.166 0.16829,0.49 0.30288,0.59 0.0273,0.02 0.26831,0.363 0.53558,0.761 0.37491,0.558 0.49111,0.795 0.50854,1.036 0.0244,0.337 0.0204,0.34 -0.4099,0.251 -0.1834,-0.04 -0.31596,-0.03 -0.36652,0.02 -0.0895,0.09 -0.11929,0.09 -0.5309,-0.01 z m -5.69469,-0.564 c -0.0214,-0.03 -0.28273,-0.08 -0.58075,-0.108 -0.80478,-0.07 -0.83149,-0.09 -1.94301,-1.31 -0.0925,-0.101 -0.26081,-0.368 -0.37397,-0.592 -0.11315,-0.224 -0.2992,-0.507 -0.4134,-0.63 -0.11422,-0.123 -0.28597,-0.373 -0.38172,-0.555 -0.53914,-1.03 -0.97588,-1.743 -1.49664,-2.443 -0.16656,-0.224 -0.36581,-0.557 -0.44275,-0.741 -0.077,-0.183 -0.2109,-0.433 -0.29763,-0.555 -0.0867,-0.122 -0.20091,-0.329 -0.25369,-0.46 -0.0528,-0.131 -0.14318,-0.278 -0.20087,-0.325 -0.0577,-0.05 -0.28909,-0.408 -0.51424,-0.799 -0.22515,-0.391 -0.54008,-0.895 -0.69987,-1.118 -0.15977,-0.224 -0.40752,-0.652 -0.55058,-0.95 -0.14305,-0.299 -0.33454,-0.648 -0.42552,-0.775 -0.091,-0.128 -0.25359,-0.419 -0.36132,-0.647 -0.10774,-0.228 -0.278,-0.545 -0.37833,-0.706 -0.10033,-0.16 -0.29095,-0.491 -0.42359,-0.736 -0.13265,-0.244 -0.36698,-0.611 -0.52074,-0.814 -0.15375,-0.204 -0.38851,-0.604 -0.52172,-0.889 -0.50649,-1.084 -0.98951,-2.088 -1.19317,-2.48 -0.50342,-0.97 -0.87937,-1.746 -0.87975,-1.816 -2.2e-4,-0.04 -0.13755,-0.308 -0.30519,-0.592 -0.20391,-0.346 -0.37566,-0.787 -0.51893,-1.332 -0.11778,-0.448 -0.27655,-0.964 -0.35281,-1.147 -0.14624,-0.352 -0.24823,-1.332 -0.15434,-1.484 0.0409,-0.07 0.16811,-0.04 0.48948,0.11 0.4153,0.19 0.68635,0.267 1.44177,0.409 0.81532,0.153 0.93429,0.219 1.20465,0.673 0.13977,0.235 0.27792,0.504 0.30699,0.6 0.0291,0.09 0.0959,0.223 0.14852,0.284 0.0526,0.06 0.15338,0.311 0.22391,0.555 0.0705,0.244 0.20511,0.566 0.29906,0.714 0.30082,0.477 0.83114,1.568 0.98487,2.026 0.17273,0.515 1.13351,2.367 1.59325,3.072 0.29,0.444 0.6586,1.054 1.28854,2.131 0.13487,0.231 0.35891,0.578 0.49784,0.771 0.13894,0.194 0.41911,0.684 0.62259,1.089 0.20349,0.406 0.4037,0.758 0.44488,0.784 0.0412,0.03 0.31434,0.452 0.607,0.949 0.29267,0.497 0.68126,1.13 0.86358,1.406 0.18232,0.277 0.38497,0.6 0.45036,0.719 0.10419,0.19 0.37121,0.647 0.90859,1.556 0.0843,0.142 0.24957,0.368 0.36725,0.503 0.11768,0.134 0.31472,0.434 0.43786,0.666 0.12314,0.232 0.32288,0.572 0.44382,0.756 0.12096,0.183 0.28838,0.466 0.37204,0.629 0.0837,0.163 0.23195,0.43 0.32952,0.593 0.0976,0.162 0.22065,0.378 0.27353,0.48 0.0529,0.101 0.25468,0.448 0.44843,0.771 0.63632,1.062 0.61389,1.43 -0.0977,1.6 -0.20134,0.05 -0.38461,0.118 -0.40724,0.155 -0.0522,0.08 -0.30724,0.09 -0.35879,0 z m -8.04073,-1.021 c -0.67298,-0.253 -1.04145,-0.377 -1.27045,-0.427 -0.20874,-0.05 -0.69086,-0.723 -0.91766,-1.29 -0.0636,-0.159 -0.18866,-0.356 -0.27802,-0.438 -0.0894,-0.08 -0.26243,-0.322 -0.38461,-0.535 -0.12218,-0.212 -0.33043,-0.549 -0.46278,-0.748 -0.13235,-0.198 -0.24064,-0.377 -0.24064,-0.398 0,-0.02 -0.14597,-0.262 -0.32438,-0.538 -0.34616,-0.536 -1.45271,-2.436 -1.45271,-2.495 0,-0.02 -0.17856,-0.328 -0.3968,-0.687 -0.21825,-0.359 -0.422,-0.736 -0.45277,-0.837 -0.0308,-0.102 -0.12314,-0.319 -0.20524,-0.482 -0.30339,-0.602 -0.33474,-0.672 -0.42139,-0.941 -0.10729,-0.334 -0.93897,-1.976 -1.08001,-2.133 -0.0913,-0.101 -0.19339,-0.31 -0.74069,-1.516 -0.0924,-0.204 -0.21056,-0.521 -0.26261,-0.704 -0.052,-0.183 -0.11937,-0.367 -0.14963,-0.407 -0.0302,-0.04 -0.14576,-0.341 -0.25668,-0.667 -0.11092,-0.325 -0.22454,-0.625 -0.25248,-0.666 -0.0707,-0.103 -0.26109,-0.656 -0.40793,-1.185 -0.0679,-0.244 -0.17095,-0.606 -0.22909,-0.804 -0.0581,-0.198 -0.10572,-0.432 -0.10575,-0.518 -4e-5,-0.09 -0.0484,-0.392 -0.10736,-0.677 -0.11885,-0.574 -0.17311,-2.85 -0.0795,-3.332 0.11607,-0.597 0.28646,-0.642 1.73583,-0.45 0.85473,0.113 0.85043,0.11 1.23996,0.82 0.15252,0.279 0.20519,0.481 0.21167,0.815 0.005,0.244 0.07,0.727 0.14504,1.074 0.075,0.346 0.16153,0.995 0.19223,1.443 0.0744,1.086 0.24433,2.026 0.43267,2.396 0.0846,0.166 0.15431,0.361 0.15491,0.434 0.002,0.175 0.16256,0.63 0.42947,1.214 0.11909,0.26 0.241,0.59 0.27092,0.732 0.0299,0.143 0.18215,0.509 0.33829,0.815 0.15614,0.305 0.32186,0.66 0.36826,0.788 0.0464,0.128 0.14218,0.295 0.2128,0.371 0.0706,0.08 0.23823,0.354 0.37243,0.618 0.13421,0.265 0.26968,0.498 0.30103,0.518 0.0313,0.02 0.19844,0.32 0.3713,0.667 0.49243,0.986 0.72584,1.415 0.83979,1.545 0.0579,0.07 0.13059,0.204 0.16152,0.306 0.0309,0.102 0.13483,0.301 0.23089,0.443 0.0961,0.142 0.17466,0.281 0.17466,0.31 0,0.05 0.41994,0.765 0.68412,1.163 0.0708,0.107 0.16918,0.277 0.21853,0.379 0.0494,0.102 0.31626,0.492 0.59314,0.867 0.27688,0.375 0.50342,0.707 0.50342,0.737 0,0.08 0.34825,0.582 0.78596,1.136 0.20924,0.265 0.40113,0.549 0.42645,0.631 0.0253,0.08 0.16271,0.332 0.30534,0.553 0.18655,0.29 0.25947,0.487 0.25982,0.702 2.5e-4,0.173 0.0622,0.391 0.1476,0.52 0.0809,0.122 0.14734,0.282 0.1476,0.355 7.7e-4,0.219 -0.22581,0.497 -0.40623,0.497 -0.0922,0 -0.28716,0.05 -0.43337,0.111 -0.33099,0.138 -0.34972,0.136 -0.93698,-0.08 z m 16.47556,-12.317 c -0.0253,-0.04 0.0309,-0.103 0.12483,-0.137 0.45104,-0.168 0.93576,-0.325 1.17039,-0.381 0.14253,-0.03 0.44242,-0.128 0.6664,-0.21 0.22399,-0.08 0.74047,-0.237 1.14771,-0.345 0.40725,-0.108 1.057,-0.293 1.44387,-0.411 0.3869,-0.117 0.97,-0.287 1.29579,-0.377 0.32579,-0.09 0.78927,-0.258 1.02994,-0.373 0.24067,-0.116 0.49729,-0.21 0.57027,-0.21 0.073,0 0.42585,-0.103 0.78416,-0.229 0.97109,-0.342 2.19594,-0.653 2.27552,-0.579 0.038,0.04 0.0504,0.08 0.0275,0.107 -0.0429,0.04 -0.94509,0.387 -1.20731,0.461 -0.0815,0.02 -0.16476,0.07 -0.18512,0.09 -0.0444,0.06 -2.99002,1.076 -3.51717,1.209 -0.20362,0.05 -0.45456,0.149 -0.55763,0.216 -0.10308,0.07 -0.51959,0.209 -0.92557,0.314 -0.40598,0.105 -0.93807,0.255 -1.18243,0.334 -1.2859,0.411 -2.85697,0.686 -2.96114,0.517 z m -2.41491,-0.352 c -0.22063,-0.194 -0.52839,-0.469 -0.68392,-0.611 -0.15552,-0.143 -0.40504,-0.344 -0.55444,-0.448 -0.14942,-0.105 -0.62396,-0.541 -1.05449,-0.969 -0.79903,-0.796 -1.98569,-1.865 -2.66056,-2.397 -0.43464,-0.342 -0.64733,-0.524 -1.11197,-0.951 -0.18418,-0.169 -0.61727,-0.557 -0.96242,-0.863 -0.34516,-0.305 -0.76092,-0.69 -0.9239,-0.855 -0.163,-0.165 -0.426,-0.395 -0.58447,-0.512 -0.15847,-0.116 -0.52271,-0.44 -0.80945,-0.719 -0.28674,-0.28 -0.64023,-0.598 -0.78555,-0.707 -0.14532,-0.11 -0.53421,-0.439 -0.86421,-0.731 -0.33,-0.292 -0.67987,-0.573 -0.77747,-0.624 -0.0976,-0.05 -0.34408,-0.23 -0.54772,-0.399 -0.20362,-0.168 -0.49744,-0.4 -0.6529,-0.516 -0.15547,-0.115 -0.50535,-0.409 -0.77746,-0.653 -0.27214,-0.244 -0.61141,-0.521 -0.75395,-0.616 -0.38945,-0.259 -1.70303,-1.569 -1.70303,-1.699 0,-0.178 0.0737,-0.141 0.66641,0.333 0.30544,0.245 0.80912,0.642 1.11927,0.883 0.31015,0.242 0.67409,0.549 0.80874,0.684 0.48606,0.486 1.96594,1.781 2.25552,1.973 0.1629,0.108 0.34617,0.251 0.40724,0.318 0.1924,0.209 1.1098,0.953 1.17503,0.953 0.0343,0 0.44668,0.374 0.91642,0.833 1.33261,1.299 2.99358,2.771 3.83219,3.396 0.26472,0.197 0.66152,0.517 0.88175,0.711 0.22027,0.195 0.63676,0.562 0.92558,0.816 1.0573,0.93 1.40846,1.252 1.92397,1.763 0.28945,0.287 0.84468,0.742 1.23383,1.012 0.84748,0.586 0.93892,0.68 0.81038,0.835 -0.15304,0.185 -0.32754,0.129 -0.74832,-0.24 z m 1.43171,-6.239 c -0.27716,-0.169 -0.6192,-0.673 -0.82564,-1.218 -0.078,-0.205 -0.2236,-0.557 -0.32364,-0.781 -0.23421,-0.524 -0.33509,-1.184 -0.18098,-1.184 0.10377,0 1.08447,1.432 1.25795,1.837 0.0468,0.109 0.14081,0.282 0.20889,0.384 0.0681,0.102 0.1423,0.302 0.16493,0.444 0.0226,0.143 0.0641,0.351 0.0921,0.463 0.0626,0.25 -0.0485,0.266 -0.39361,0.05 z m 6.87214,-4.975 c -0.083,-0.09 -0.15514,-0.222 -0.16023,-0.296 -0.005,-0.07 -0.0176,-0.167 -0.0278,-0.208 -0.0102,-0.04 -0.0227,-0.924 -0.0278,-1.962 -0.008,-1.63 -0.0246,-1.888 -0.12093,-1.888 -0.0614,0 -0.35042,0.2 -0.64223,0.445 -0.2918,0.245 -0.63303,0.472 -0.75825,0.505 -0.12522,0.03 -0.23751,0.11 -0.24954,0.172 -0.0206,0.107 0.52818,0.577 1.05662,0.905 0.22721,0.141 0.33167,0.256 0.33372,0.367 0.002,0.1 -0.45861,-0.03 -0.67669,-0.182 -0.1081,-0.08 -0.21937,-0.139 -0.24728,-0.139 -0.0557,0 -0.81165,-0.583 -2.01762,-1.555 -0.42932,-0.346 -0.98409,-0.776 -1.23284,-0.955 -0.63612,-0.457 -1.43431,-1.116 -1.91107,-1.577 -1.26672,-1.225 -2.14749,-1.99 -2.71455,-2.357 -0.35174,-0.229 -0.68592,-0.472 -0.74264,-0.542 -0.12961,-0.158 -0.043,-0.257 0.12517,-0.142 0.0693,0.05 0.35927,0.227 0.64434,0.399 1.06354,0.642 1.5844,1.059 2.70263,2.167 0.63123,0.625 1.27331,1.222 1.42681,1.326 0.15351,0.103 0.38675,0.276 0.51833,0.383 0.96277,0.785 1.08027,0.837 1.21813,0.539 0.0464,-0.1 0.32823,-0.293 0.70673,-0.485 1.00721,-0.509 2.28779,-1.541 2.97913,-2.401 0.18825,-0.235 0.30511,-0.298 0.76599,-0.414 0.43248,-0.109 0.58051,-0.184 0.72295,-0.366 0.0985,-0.126 0.35356,-0.354 0.5668,-0.508 0.21325,-0.153 0.52553,-0.403 0.69396,-0.554 0.16842,-0.152 0.41447,-0.332 0.54676,-0.4 0.20758,-0.108 1.17242,-0.959 2.57085,-2.269 0.88938,-0.834 1.48282,-1.724 1.88867,-2.834 0.35592,-0.974 0.42955,-1.357 0.42108,-2.19 -0.0108,-1.061 -0.0142,-1.037 0.1449,-1.037 0.20795,0 0.39019,0.526 0.42367,1.222 0.0284,0.591 -0.0216,0.976 -0.24533,1.888 l -0.11796,0.482 0.2659,0.707 c 0.19852,0.529 0.26961,0.838 0.28045,1.222 0.0148,0.523 -0.0862,1.126 -0.23727,1.415 -0.12475,0.239 -0.0287,0.643 0.35268,1.482 0.20882,0.46 0.24492,1.309 0.0657,1.546 -0.0598,0.08 -0.10977,0.264 -0.11106,0.411 -0.002,0.242 0.0372,0.294 0.4376,0.575 0.48898,0.343 0.95832,0.851 0.99879,1.081 0.15643,0.888 0.28233,1.822 0.31743,2.353 0.0412,0.623 0.037,0.648 -0.11363,0.648 -0.23019,0 -0.28666,-0.175 -0.336,-1.037 -0.0901,-1.573 -0.27379,-2.109 -0.85114,-2.48 -0.18938,-0.121 -0.51417,-0.371 -0.72176,-0.555 -0.99301,-0.879 -0.97212,-0.871 -1.88363,-0.704 -0.58842,0.108 -0.77452,0.172 -0.85405,0.293 -0.0796,0.122 -0.10776,0.694 -0.12957,2.634 -0.0153,1.363 -0.0531,2.536 -0.084,2.608 -0.0584,0.134 -0.29826,0.177 -0.36748,0.07 -0.0795,-0.129 -0.11986,-5.286 -0.0421,-5.379 0.12058,-0.146 0.0185,-0.289 -0.27974,-0.394 -0.66902,-0.234 -0.8074,-0.254 -1.38746,-0.201 -0.57393,0.05 -0.60163,0.07 -0.90088,0.376 -0.25947,0.27 -0.31682,0.386 -0.35925,0.725 -0.0278,0.222 -0.0317,0.466 -0.009,0.542 0.17608,0.579 0.35387,5.075 0.20434,5.167 -0.10329,0.06 -0.28681,-0.02 -0.34277,-0.167 -0.0618,-0.156 -0.16541,-1.689 -0.2185,-3.234 -0.0224,-0.651 -0.0675,-1.301 -0.10022,-1.444 -0.0327,-0.142 -0.0404,-0.503 -0.0171,-0.801 0.0233,-0.298 0.0205,-0.577 -0.006,-0.621 -0.0478,-0.08 -1.10703,-0.03 -1.42416,0.06 -0.0814,0.02 -0.24024,0.262 -0.38775,0.582 l -0.24983,0.54 0.0685,1.729 c 0.13821,3.49 0.16228,4.875 0.0847,4.875 -0.0414,0 -0.14329,-0.07 -0.22632,-0.162 z m 0.4737,-14.306 c -0.0322,-0.128 0.004,-0.271 0.11438,-0.449 0.18495,-0.3 0.41444,-0.366 0.32903,-0.09 -0.23151,0.733 -0.35722,0.888 -0.44341,0.544 z m 1.07837,-2.487 c -0.0611,-0.04 -0.28639,-0.111 -0.50069,-0.159 -0.45253,-0.102 -0.60092,-0.23 -0.46191,-0.397 0.18941,-0.228 0.84183,-0.07 1.17396,0.284 0.24404,0.261 0.0868,0.463 -0.21138,0.272 z m -17.76226,-7.857 c -0.16215,-0.465 -0.0751,-1.399 0.13031,-1.399 0.10361,0 0.24417,0.76 0.21875,1.184 -0.0183,0.304 -0.0547,0.412 -0.14544,0.429 -0.0798,0.02 -0.14917,-0.06 -0.20362,-0.214 z m 16.76347,0.08 c -0.0247,-0.04 -0.0224,-0.399 0.005,-0.798 0.047,-0.683 0.0389,-0.747 -0.1382,-1.094 -0.25229,-0.493 -0.65609,-0.854 -1.2376,-1.107 -0.26471,-0.115 -0.54793,-0.252 -0.62938,-0.304 -0.22565,-0.144 -1.39656,-0.02 -1.77597,0.18 -0.52608,0.285 -0.98077,0.185 -1.17805,-0.26 -0.0693,-0.156 -0.16054,-0.346 -0.20275,-0.422 -0.12222,-0.221 -0.16651,-0.892 -0.0707,-1.071 0.0658,-0.123 0.15412,-0.16 0.37934,-0.16 0.19777,0 0.34338,-0.05 0.44622,-0.153 0.20197,-0.202 0.38434,-0.156 0.46561,0.116 0.13377,0.449 0.37352,0.928 0.45033,0.899 0.0435,-0.02 0.0679,-0.08 0.0542,-0.131 -0.0637,-0.26 -0.0695,-0.659 -0.01,-0.696 0.0363,-0.02 0.13543,0 0.22034,0.05 0.13547,0.08 0.17097,0.07 0.28973,-0.08 0.19708,-0.259 0.37643,-0.162 0.37643,0.205 0,0.182 0.0551,0.356 0.14708,0.465 l 0.14707,0.175 0.1358,-0.173 c 0.12416,-0.158 0.17657,-0.17 0.61189,-0.133 1.17683,0.1 1.6947,0.349 2.27552,1.101 0.31289,0.406 0.45895,0.707 0.45895,0.948 0,0.214 -0.18122,0.102 -0.28132,-0.175 -0.2603,-0.72 -1.51602,-1.605 -2.27673,-1.605 -0.39014,0 -0.35129,0.267 0.096,0.661 1.04641,0.92 1.29599,1.255 1.54076,2.068 0.19558,0.65 -0.0535,1.891 -0.29961,1.493 z m -3.04984,-0.505 c -0.54314,-0.221 -1.29102,-1.212 -1.39321,-1.847 -0.063,-0.392 0.0632,-0.423 0.2172,-0.06 0.1572,0.376 0.30047,0.397 0.62043,0.09 0.54648,-0.522 0.92978,-0.591 1.51821,-0.272 0.49295,0.267 0.6424,0.503 0.6424,1.016 0,0.446 -0.21278,0.793 -0.63156,1.03 -0.34809,0.198 -0.55631,0.205 -0.97344,0.03 z m 0.95195,-0.551 c 0.11591,-0.163 0.17157,-0.345 0.17165,-0.562 1.5e-4,-0.458 -0.26464,-0.679 -0.81432,-0.679 -0.49716,0 -0.62945,0.15 -0.62945,0.714 0,0.338 0.0273,0.407 0.22782,0.576 0.16877,0.142 0.31139,0.191 0.55028,0.191 0.27929,0 0.34546,-0.03 0.494,-0.24 z m -0.75379,-0.151 c -0.12689,-0.06 -0.19219,-0.166 -0.20762,-0.323 -0.0296,-0.302 0.1541,-0.485 0.45755,-0.456 0.21705,0.02 0.23282,0.04 0.25491,0.353 0.0177,0.249 -0.009,0.354 -0.10671,0.426 -0.15875,0.116 -0.16727,0.116 -0.39812,0 z m 5.99729,-3.06 c -0.1848,-0.115 -0.29888,-0.268 -1.15582,-1.547 -0.58926,-0.881 -0.84133,-1.115 -1.62794,-1.518 -0.60971,-0.312 -0.69499,-0.335 -1.33068,-0.358 -0.52031,-0.02 -0.73365,0 -0.91186,0.1 -0.17225,0.09 -0.32927,0.107 -0.60475,0.07 -0.40742,-0.05 -0.4559,-0.183 -0.0965,-0.256 0.12195,-0.02 0.31938,-0.1 0.43874,-0.164 0.36381,-0.198 0.7082,-0.282 1.32767,-0.325 0.53321,-0.04 0.65878,-0.02 1.25747,0.191 0.36581,0.127 0.78231,0.308 0.92557,0.402 0.14326,0.09 0.40682,0.267 0.58572,0.386 0.17889,0.118 0.57646,0.466 0.8835,0.772 0.43712,0.435 0.61957,0.687 0.84095,1.159 0.32586,0.696 0.35141,0.933 0.11815,1.096 -0.20691,0.145 -0.4127,0.144 -0.65017,0 z m 4.32563,-9.707 c -0.34951,-0.458 -0.56009,-1.207 -0.60338,-2.146 -0.0439,-0.954 -0.003,-1.208 0.19468,-1.208 0.16215,0 0.25377,0.214 0.38066,0.889 0.12513,0.665 0.40704,1.746 0.56123,2.152 0.15066,0.397 0.10334,0.587 -0.14573,0.587 -0.11897,0 -0.2484,-0.09 -0.38745,-0.274 z m -1.88558,-0.357 c -0.40917,-0.418 -0.62198,-0.503 -1.11763,-0.447 -0.50281,0.06 -1.06574,-0.1 -1.23552,-0.341 -0.0923,-0.132 -0.15572,-0.146 -0.47139,-0.104 -0.32888,0.04 -0.3948,0.03 -0.67104,-0.177 -0.16848,-0.124 -0.39349,-0.225 -0.50003,-0.225 -0.11823,0 -0.27599,-0.09 -0.40491,-0.22 -0.15496,-0.162 -0.25592,-0.21 -0.37896,-0.179 -0.0923,0.02 -0.34701,-0.01 -0.5661,-0.07 -0.30245,-0.09 -0.45532,-0.186 -0.63486,-0.41 -0.29269,-0.364 -0.37348,-0.567 -0.49235,-1.237 -0.0805,-0.454 -0.0761,-0.631 0.0312,-1.259 0.1761,-1.031 0.41541,-1.53 0.74371,-1.553 0.0611,0 0.20269,-0.01 0.31469,-0.02 0.11199,-0.01 0.27046,-0.08 0.35212,-0.159 0.12062,-0.121 0.22326,-0.144 0.54656,-0.121 0.48984,0.03 0.53165,0.06 0.63807,0.381 0.0469,0.142 0.12694,0.258 0.17796,0.258 0.051,0 0.20046,-0.149 0.33205,-0.333 0.32258,-0.449 0.51737,-0.43 0.64092,0.06 0.0795,0.317 0.23338,0.323 0.54159,0.02 0.31753,-0.31 0.38192,-0.324 0.56551,-0.121 0.0885,0.1 0.22806,0.148 0.4108,0.148 0.29165,0 0.36667,0.08 0.36667,0.409 0,0.316 0.13678,0.268 0.39662,-0.138 0.29528,-0.461 1.26125,-1.327 1.44268,-1.292 0.0676,0.01 0.13316,0.09 0.14573,0.183 0.0242,0.169 -0.28504,0.848 -0.49982,1.097 -0.3782,0.44 -0.79285,1.504 -0.89298,2.293 -0.0815,0.642 0.0774,1.898 0.30942,2.446 0.0862,0.204 0.20338,0.487 0.26048,0.63 0.0571,0.142 0.13496,0.316 0.17305,0.386 0.0908,0.166 0.0145,0.354 -0.14345,0.354 -0.0689,0 -0.24024,-0.117 -0.38082,-0.261 z" />
      <path
         inkscape:connector-curvature="0"
         id="path5398"
         d="m 621.42187,15348.975 0,34.37"
         style="fill:none;fill-rule:evenodd;stroke:#000000;stroke-width:0.92607325;stroke-linecap:butt;stroke-linejoin:miter;stroke-miterlimit:4;stroke-dasharray:none;stroke-opacity:1" />
      <text
         sodipodi:linespacing="125%"
         id="text8533"
         y="15384.001"
         x="1338.6217"
         style="font-style:normal;font-weight:normal;font-size:45.00000381px;line-height:125%;font-family:sans-serif;text-align:center;letter-spacing:0px;word-spacing:0px;text-anchor:middle;fill:#000000;fill-opacity:1;stroke:none;stroke-width:1px;stroke-linecap:butt;stroke-linejoin:miter;stroke-opacity:1"
         xml:space="preserve"><tspan
           id="tspan8535"
           y="15384.001"
           x="1338.6217"
           sodipodi:role="line">This is awkward AND it doesn't fit here.</tspan><tspan
           id="tspan8537"
           y="15440.251"
           x="1338.6217"
           sodipodi:role="line">Do I need to explain HEAD? Or just leave</tspan><tspan
           id="tspan8539"
           y="15496.501"
           x="1345.7848"
           sodipodi:role="line">it out. If I do need to include it, how and </tspan><tspan
           id="tspan8541"
           y="15552.751"
           x="1338.6217"
           sodipodi:role="line">where?</tspan></text>
    </g>
  </g>
</svg>
