<?xml version="1.0" encoding="UTF-8" standalone="no"?>
<!-- Created with Inkscape (http://www.inkscape.org/) -->

<svg
   xmlns:dc="http://purl.org/dc/elements/1.1/"
   xmlns:cc="http://creativecommons.org/ns#"
   xmlns:rdf="http://www.w3.org/1999/02/22-rdf-syntax-ns#"
   xmlns:svg="http://www.w3.org/2000/svg"
   xmlns="http://www.w3.org/2000/svg"
   xmlns:sodipodi="http://sodipodi.sourceforge.net/DTD/sodipodi-0.dtd"
   xmlns:inkscape="http://www.inkscape.org/namespaces/inkscape"
   width="845.99988"
   height="645.99994"
   viewBox="0 0 845.99986 645.99997"
   id="svg2"
   version="1.1"
   inkscape:version="0.91 r13725"
   sodipodi:docname="don't_rely_on_ved.svg">
  <defs
     id="defs4">
    <marker
       inkscape:stockid="Arrow1Lend"
       orient="auto"
       refY="0"
       refX="0"
       id="marker22638"
       style="overflow:visible"
       inkscape:isstock="true">
      <path
         id="path22640"
         d="M 0,0 5,-5 -12.5,0 5,5 0,0 Z"
         style="fill:#000000;fill-opacity:1;fill-rule:evenodd;stroke:#000000;stroke-width:1pt;stroke-opacity:1"
         transform="matrix(-0.8,0,0,-0.8,-10,0)"
         inkscape:connector-curvature="0" />
    </marker>
    <marker
       inkscape:stockid="Arrow1Lend"
       orient="auto"
       refY="0"
       refX="0"
       id="marker18329"
       style="overflow:visible"
       inkscape:isstock="true">
      <path
         id="path18331"
         d="M 0,0 5,-5 -12.5,0 5,5 0,0 Z"
         style="fill:#000000;fill-opacity:1;fill-rule:evenodd;stroke:#000000;stroke-width:1pt;stroke-opacity:1"
         transform="matrix(-0.8,0,0,-0.8,-10,0)"
         inkscape:connector-curvature="0" />
    </marker>
    <marker
       inkscape:isstock="true"
       style="overflow:visible"
       id="marker11570"
       refX="0"
       refY="0"
       orient="auto"
       inkscape:stockid="Arrow1Lend">
      <path
         inkscape:connector-curvature="0"
         transform="matrix(-0.8,0,0,-0.8,-10,0)"
         style="fill:#000000;fill-opacity:1;fill-rule:evenodd;stroke:#000000;stroke-width:1pt;stroke-opacity:1"
         d="M 0,0 5,-5 -12.5,0 5,5 0,0 Z"
         id="path11572" />
    </marker>
    <marker
       inkscape:isstock="true"
       style="overflow:visible"
       id="marker11326"
       refX="0"
       refY="0"
       orient="auto"
       inkscape:stockid="Arrow1Lend">
      <path
         inkscape:connector-curvature="0"
         transform="matrix(-0.8,0,0,-0.8,-10,0)"
         style="fill:#000000;fill-opacity:1;fill-rule:evenodd;stroke:#000000;stroke-width:1pt;stroke-opacity:1"
         d="M 0,0 5,-5 -12.5,0 5,5 0,0 Z"
         id="path11328" />
    </marker>
    <marker
       inkscape:stockid="Arrow1Lend"
       orient="auto"
       refY="0"
       refX="0"
       id="marker9818"
       style="overflow:visible"
       inkscape:isstock="true">
      <path
         inkscape:connector-curvature="0"
         id="path9820"
         d="M 0,0 5,-5 -12.5,0 5,5 0,0 Z"
         style="fill:#000000;fill-opacity:1;fill-rule:evenodd;stroke:#000000;stroke-width:1pt;stroke-opacity:1"
         transform="matrix(-0.8,0,0,-0.8,-10,0)" />
    </marker>
    <marker
       inkscape:isstock="true"
       style="overflow:visible"
       id="marker9572"
       refX="0"
       refY="0"
       orient="auto"
       inkscape:stockid="Arrow1Lend">
      <path
         inkscape:connector-curvature="0"
         transform="matrix(-0.8,0,0,-0.8,-10,0)"
         style="fill:#000000;fill-opacity:1;fill-rule:evenodd;stroke:#000000;stroke-width:1pt;stroke-opacity:1"
         d="M 0,0 5,-5 -12.5,0 5,5 0,0 Z"
         id="path9574" />
    </marker>
    <marker
       inkscape:isstock="true"
       style="overflow:visible"
       id="marker9349"
       refX="0"
       refY="0"
       orient="auto"
       inkscape:stockid="Arrow1Lend">
      <path
         inkscape:connector-curvature="0"
         transform="matrix(-0.8,0,0,-0.8,-10,0)"
         style="fill:#000000;fill-opacity:1;fill-rule:evenodd;stroke:#000000;stroke-width:1pt;stroke-opacity:1"
         d="M 0,0 5,-5 -12.5,0 5,5 0,0 Z"
         id="path9351" />
    </marker>
    <marker
       inkscape:isstock="true"
       style="overflow:visible"
       id="marker8273"
       refX="0"
       refY="0"
       orient="auto"
       inkscape:stockid="Arrow1Lend">
      <path
         inkscape:connector-curvature="0"
         transform="matrix(-0.8,0,0,-0.8,-10,0)"
         style="fill:#000000;fill-opacity:1;fill-rule:evenodd;stroke:#000000;stroke-width:1pt;stroke-opacity:1"
         d="M 0,0 5,-5 -12.5,0 5,5 0,0 Z"
         id="path8275" />
    </marker>
    <marker
       inkscape:stockid="Arrow1Lend"
       orient="auto"
       refY="0"
       refX="0"
       id="marker7296"
       style="overflow:visible"
       inkscape:isstock="true">
      <path
         inkscape:connector-curvature="0"
         id="path7298"
         d="M 0,0 5,-5 -12.5,0 5,5 0,0 Z"
         style="fill:#000000;fill-opacity:1;fill-rule:evenodd;stroke:#000000;stroke-width:1pt;stroke-opacity:1"
         transform="matrix(-0.8,0,0,-0.8,-10,0)" />
    </marker>
    <marker
       inkscape:stockid="Arrow1Lend"
       orient="auto"
       refY="0"
       refX="0"
       id="marker7060"
       style="overflow:visible"
       inkscape:isstock="true">
      <path
         inkscape:connector-curvature="0"
         id="path7062"
         d="M 0,0 5,-5 -12.5,0 5,5 0,0 Z"
         style="fill:#000000;fill-opacity:1;fill-rule:evenodd;stroke:#000000;stroke-width:1pt;stroke-opacity:1"
         transform="matrix(-0.8,0,0,-0.8,-10,0)" />
    </marker>
    <marker
       inkscape:stockid="Arrow1Lend"
       orient="auto"
       refY="0"
       refX="0"
       id="marker7724"
       style="overflow:visible"
       inkscape:isstock="true">
      <path
         id="path7726"
         d="M 0,0 5,-5 -12.5,0 5,5 0,0 Z"
         style="fill:#000000;fill-opacity:1;fill-rule:evenodd;stroke:#000000;stroke-width:1pt;stroke-opacity:1"
         transform="matrix(-0.8,0,0,-0.8,-10,0)"
         inkscape:connector-curvature="0" />
    </marker>
    <marker
       inkscape:isstock="true"
       style="overflow:visible"
       id="marker7176"
       refX="0"
       refY="0"
       orient="auto"
       inkscape:stockid="Arrow1Lend">
      <path
         transform="matrix(-0.8,0,0,-0.8,-10,0)"
         style="fill:#000000;fill-opacity:1;fill-rule:evenodd;stroke:#000000;stroke-width:1pt;stroke-opacity:1"
         d="M 0,0 5,-5 -12.5,0 5,5 0,0 Z"
         id="path7178"
         inkscape:connector-curvature="0" />
    </marker>
    <marker
       inkscape:isstock="true"
       style="overflow:visible"
       id="marker6998"
       refX="0"
       refY="0"
       orient="auto"
       inkscape:stockid="Arrow1Lend">
      <path
         transform="matrix(-0.8,0,0,-0.8,-10,0)"
         style="fill:#000000;fill-opacity:1;fill-rule:evenodd;stroke:#000000;stroke-width:1pt;stroke-opacity:1"
         d="M 0,0 5,-5 -12.5,0 5,5 0,0 Z"
         id="path7000"
         inkscape:connector-curvature="0" />
    </marker>
    <marker
       inkscape:stockid="Arrow1Lend"
       orient="auto"
       refY="0"
       refX="0"
       id="marker6826"
       style="overflow:visible"
       inkscape:isstock="true">
      <path
         id="path6828"
         d="M 0,0 5,-5 -12.5,0 5,5 0,0 Z"
         style="fill:#000000;fill-opacity:1;fill-rule:evenodd;stroke:#000000;stroke-width:1pt;stroke-opacity:1"
         transform="matrix(-0.8,0,0,-0.8,-10,0)"
         inkscape:connector-curvature="0" />
    </marker>
    <marker
       inkscape:isstock="true"
       style="overflow:visible"
       id="marker6555"
       refX="0"
       refY="0"
       orient="auto"
       inkscape:stockid="Arrow1Lend">
      <path
         transform="matrix(-0.8,0,0,-0.8,-10,0)"
         style="fill:#000000;fill-opacity:1;fill-rule:evenodd;stroke:#000000;stroke-width:1pt;stroke-opacity:1"
         d="M 0,0 5,-5 -12.5,0 5,5 0,0 Z"
         id="path6557"
         inkscape:connector-curvature="0" />
    </marker>
    <marker
       inkscape:stockid="Arrow1Lend"
       orient="auto"
       refY="0"
       refX="0"
       id="marker6349"
       style="overflow:visible"
       inkscape:isstock="true">
      <path
         id="path6351"
         d="M 0,0 5,-5 -12.5,0 5,5 0,0 Z"
         style="fill:#000000;fill-opacity:1;fill-rule:evenodd;stroke:#000000;stroke-width:1pt;stroke-opacity:1"
         transform="matrix(-0.8,0,0,-0.8,-10,0)"
         inkscape:connector-curvature="0" />
    </marker>
    <marker
       inkscape:isstock="true"
       style="overflow:visible"
       id="marker6195"
       refX="0"
       refY="0"
       orient="auto"
       inkscape:stockid="Arrow1Lend">
      <path
         transform="matrix(-0.8,0,0,-0.8,-10,0)"
         style="fill:#000000;fill-opacity:1;fill-rule:evenodd;stroke:#000000;stroke-width:1pt;stroke-opacity:1"
         d="M 0,0 5,-5 -12.5,0 5,5 0,0 Z"
         id="path6197"
         inkscape:connector-curvature="0" />
    </marker>
    <marker
       inkscape:stockid="Arrow1Lend"
       orient="auto"
       refY="0"
       refX="0"
       id="marker5400"
       style="overflow:visible"
       inkscape:isstock="true">
      <path
         id="path5402"
         d="M 0,0 5,-5 -12.5,0 5,5 0,0 Z"
         style="fill:#000000;fill-opacity:1;fill-rule:evenodd;stroke:#000000;stroke-width:1pt;stroke-opacity:1"
         transform="matrix(-0.8,0,0,-0.8,-10,0)"
         inkscape:connector-curvature="0" />
    </marker>
    <marker
       inkscape:stockid="Arrow1Lend"
       orient="auto"
       refY="0"
       refX="0"
       id="marker5120"
       style="overflow:visible"
       inkscape:isstock="true">
      <path
         id="path5122"
         d="M 0,0 5,-5 -12.5,0 5,5 0,0 Z"
         style="fill:#000000;fill-opacity:1;fill-rule:evenodd;stroke:#000000;stroke-width:1pt;stroke-opacity:1"
         transform="matrix(-0.8,0,0,-0.8,-10,0)"
         inkscape:connector-curvature="0" />
    </marker>
    <marker
       inkscape:stockid="Arrow1Lend"
       orient="auto"
       refY="0"
       refX="0"
       id="marker14952"
       style="overflow:visible"
       inkscape:isstock="true">
      <path
         id="path14954"
         d="M 0,0 5,-5 -12.5,0 5,5 0,0 Z"
         style="fill:#000000;fill-opacity:1;fill-rule:evenodd;stroke:#000000;stroke-width:1pt;stroke-opacity:1"
         transform="matrix(-0.8,0,0,-0.8,-10,0)"
         inkscape:connector-curvature="0" />
    </marker>
    <marker
       inkscape:isstock="true"
       style="overflow:visible"
       id="marker12992"
       refX="0"
       refY="0"
       orient="auto"
       inkscape:stockid="Arrow1Lend"
       inkscape:collect="always">
      <path
         transform="matrix(-0.8,0,0,-0.8,-10,0)"
         style="fill:#000000;fill-opacity:1;fill-rule:evenodd;stroke:#000000;stroke-width:1pt;stroke-opacity:1"
         d="M 0,0 5,-5 -12.5,0 5,5 0,0 Z"
         id="path12994"
         inkscape:connector-curvature="0" />
    </marker>
    <marker
       inkscape:isstock="true"
       style="overflow:visible"
       id="marker12886"
       refX="0"
       refY="0"
       orient="auto"
       inkscape:stockid="Arrow1Lend">
      <path
         transform="matrix(-0.8,0,0,-0.8,-10,0)"
         style="fill:#000000;fill-opacity:1;fill-rule:evenodd;stroke:#000000;stroke-width:1pt;stroke-opacity:1"
         d="M 0,0 5,-5 -12.5,0 5,5 0,0 Z"
         id="path12888"
         inkscape:connector-curvature="0" />
    </marker>
    <marker
       inkscape:isstock="true"
       style="overflow:visible"
       id="marker12189"
       refX="0"
       refY="0"
       orient="auto"
       inkscape:stockid="Arrow1Lend"
       inkscape:collect="always">
      <path
         transform="matrix(-0.8,0,0,-0.8,-10,0)"
         style="fill:#000000;fill-opacity:1;fill-rule:evenodd;stroke:#000000;stroke-width:1pt;stroke-opacity:1"
         d="M 0,0 5,-5 -12.5,0 5,5 0,0 Z"
         id="path12191"
         inkscape:connector-curvature="0" />
    </marker>
    <marker
       inkscape:isstock="true"
       style="overflow:visible"
       id="marker11987"
       refX="0"
       refY="0"
       orient="auto"
       inkscape:stockid="Arrow1Lend">
      <path
         transform="matrix(-0.8,0,0,-0.8,-10,0)"
         style="fill:#000000;fill-opacity:1;fill-rule:evenodd;stroke:#000000;stroke-width:1pt;stroke-opacity:1"
         d="M 0,0 5,-5 -12.5,0 5,5 0,0 Z"
         id="path11989"
         inkscape:connector-curvature="0" />
    </marker>
    <marker
       inkscape:stockid="Arrow1Lend"
       orient="auto"
       refY="0"
       refX="0"
       id="marker11899"
       style="overflow:visible"
       inkscape:isstock="true"
       inkscape:collect="always">
      <path
         id="path11901"
         d="M 0,0 5,-5 -12.5,0 5,5 0,0 Z"
         style="fill:#000000;fill-opacity:1;fill-rule:evenodd;stroke:#000000;stroke-width:1pt;stroke-opacity:1"
         transform="matrix(-0.8,0,0,-0.8,-10,0)"
         inkscape:connector-curvature="0" />
    </marker>
    <marker
       inkscape:isstock="true"
       style="overflow:visible"
       id="marker11408"
       refX="0"
       refY="0"
       orient="auto"
       inkscape:stockid="Arrow1Lend">
      <path
         transform="matrix(-0.8,0,0,-0.8,-10,0)"
         style="fill:#000000;fill-opacity:1;fill-rule:evenodd;stroke:#000000;stroke-width:1pt;stroke-opacity:1"
         d="M 0,0 5,-5 -12.5,0 5,5 0,0 Z"
         id="path11410"
         inkscape:connector-curvature="0" />
    </marker>
    <marker
       inkscape:stockid="Arrow1Lend"
       orient="auto"
       refY="0"
       refX="0"
       id="marker11332"
       style="overflow:visible"
       inkscape:isstock="true">
      <path
         id="path11334"
         d="M 0,0 5,-5 -12.5,0 5,5 0,0 Z"
         style="fill:#000000;fill-opacity:1;fill-rule:evenodd;stroke:#000000;stroke-width:1pt;stroke-opacity:1"
         transform="matrix(-0.8,0,0,-0.8,-10,0)"
         inkscape:connector-curvature="0" />
    </marker>
    <marker
       inkscape:stockid="Arrow1Lend"
       orient="auto"
       refY="0"
       refX="0"
       id="marker9287"
       style="overflow:visible"
       inkscape:isstock="true">
      <path
         id="path9289"
         d="M 0,0 5,-5 -12.5,0 5,5 0,0 Z"
         style="fill:#000000;fill-opacity:1;fill-rule:evenodd;stroke:#000000;stroke-width:1pt;stroke-opacity:1"
         transform="matrix(-0.8,0,0,-0.8,-10,0)"
         inkscape:connector-curvature="0" />
    </marker>
    <marker
       inkscape:stockid="Arrow1Lend"
       orient="auto"
       refY="0"
       refX="0"
       id="marker5155"
       style="overflow:visible"
       inkscape:isstock="true"
       inkscape:collect="always">
      <path
         id="path5157"
         d="M 0,0 5,-5 -12.5,0 5,5 0,0 Z"
         style="fill:#000000;fill-opacity:1;fill-rule:evenodd;stroke:#000000;stroke-width:1pt;stroke-opacity:1"
         transform="matrix(-0.8,0,0,-0.8,-10,0)"
         inkscape:connector-curvature="0" />
    </marker>
    <marker
       inkscape:isstock="true"
       style="overflow:visible"
       id="marker4941"
       refX="0"
       refY="0"
       orient="auto"
       inkscape:stockid="Arrow1Lend">
      <path
         transform="matrix(-0.8,0,0,-0.8,-10,0)"
         style="fill:#000000;fill-opacity:1;fill-rule:evenodd;stroke:#000000;stroke-width:1pt;stroke-opacity:1"
         d="M 0,0 5,-5 -12.5,0 5,5 0,0 Z"
         id="path4943"
         inkscape:connector-curvature="0" />
    </marker>
  </defs>
  <sodipodi:namedview
     id="base"
     pagecolor="#ffffff"
     bordercolor="#666666"
     borderopacity="1.0"
     inkscape:pageopacity="0.0"
     inkscape:pageshadow="2"
     inkscape:zoom="0.43879339"
     inkscape:cx="473.913"
     inkscape:cy="246.46292"
     inkscape:document-units="px"
     inkscape:current-layer="layer1"
     showgrid="false"
     units="px"
     inkscape:window-width="1276"
     inkscape:window-height="755"
     inkscape:window-x="0"
     inkscape:window-y="1"
     inkscape:window-maximized="1"
     fit-margin-top="20"
     fit-margin-left="20"
     fit-margin-right="20"
     fit-margin-bottom="20"
     showguides="true"
     inkscape:guide-bbox="true" />
  <metadata
     id="metadata7">
    <rdf:RDF>
      <cc:Work
         rdf:about="">
        <dc:format>image/svg+xml</dc:format>
        <dc:type
           rdf:resource="http://purl.org/dc/dcmitype/StillImage" />
        <dc:title></dc:title>
      </cc:Work>
    </rdf:RDF>
  </metadata>
  <g
     inkscape:label="Layer 1"
     inkscape:groupmode="layer"
     id="layer1"
     transform="translate(22.999881,-14520.819)">
    <g
       transform="translate(-1.5820338e-7,6836.9727)"
       id="g16121">
      <g
         id="g16123">
        <rect
           style="opacity:1;fill:none;fill-opacity:1;stroke:#000000;stroke-width:6;stroke-linejoin:miter;stroke-miterlimit:4;stroke-dasharray:none;stroke-dashoffset:0;stroke-opacity:1"
           id="rect16125"
           width="800"
           height="600"
           x="-6.2631223e-08"
           y="7706.8462" />
        <circle
           r="49.337784"
           cy="7873.2129"
           cx="315.91202"
           id="circle16127"
           style="opacity:1;fill:none;fill-opacity:1;stroke:#000000;stroke-width:0.76315486;stroke-linejoin:miter;stroke-miterlimit:4;stroke-dasharray:none;stroke-dashoffset:0;stroke-opacity:1" />
        <g
           transform="matrix(0.08438668,0,0,0.08438668,336.56286,7863.2539)"
           id="g16129">
          <circle
             style="opacity:1;fill:none;fill-opacity:1;stroke:#000000;stroke-width:6;stroke-linejoin:miter;stroke-miterlimit:4;stroke-dasharray:none;stroke-dashoffset:0;stroke-opacity:1"
             id="circle16131"
             cx="-480.83261"
             cy="38.169014"
             r="105.05586" />
          <circle
             style="opacity:1;fill:#000000;fill-opacity:1;stroke:#000000;stroke-width:6;stroke-linejoin:miter;stroke-miterlimit:4;stroke-dasharray:none;stroke-dashoffset:0;stroke-opacity:1"
             id="circle16133"
             cx="-480.83261"
             cy="38.169014"
             r="52.527931" />
        </g>
        <g
           id="g16135"
           transform="matrix(0.08438668,0,0,0.08438668,371.51047,7863.2539)">
          <circle
             r="105.05586"
             cy="38.169014"
             cx="-480.83261"
             id="circle16137"
             style="opacity:1;fill:none;fill-opacity:1;stroke:#000000;stroke-width:6;stroke-linejoin:miter;stroke-miterlimit:4;stroke-dasharray:none;stroke-dashoffset:0;stroke-opacity:1" />
          <circle
             r="52.527931"
             cy="38.169014"
             cx="-480.83261"
             id="circle16139"
             style="opacity:1;fill:#000000;fill-opacity:1;stroke:#000000;stroke-width:6;stroke-linejoin:miter;stroke-miterlimit:4;stroke-dasharray:none;stroke-dashoffset:0;stroke-opacity:1" />
        </g>
        <path
           inkscape:connector-curvature="0"
           id="path16141"
           d="m 312.89053,7876.7622 -3.86821,13.1519 9.28372,0"
           style="fill:none;fill-rule:evenodd;stroke:#000000;stroke-width:0.54155016px;stroke-linecap:butt;stroke-linejoin:miter;stroke-opacity:1" />
        <path
           inkscape:connector-curvature="0"
           id="path16143"
           d="m 366.54453,7873.6676 51.83409,0"
           style="fill:none;fill-rule:evenodd;stroke:#000000;stroke-width:1.13725531;stroke-linecap:butt;stroke-linejoin:miter;stroke-miterlimit:4;stroke-dasharray:none;stroke-opacity:1;marker-end:url(#marker5155)" />
        <circle
           r="49.337784"
           cy="7873.2129"
           cx="470.40918"
           id="circle16145"
           style="opacity:1;fill:none;fill-opacity:1;stroke:#0012ff;stroke-width:0.76315486;stroke-linejoin:miter;stroke-miterlimit:4;stroke-dasharray:none;stroke-dashoffset:0;stroke-opacity:1" />
        <circle
           r="8.8653154"
           cy="7866.4746"
           cx="450.48413"
           id="circle16147"
           style="opacity:1;fill:none;fill-opacity:1;stroke:#0012ff;stroke-width:0.50632006;stroke-linejoin:miter;stroke-miterlimit:4;stroke-dasharray:none;stroke-dashoffset:0;stroke-opacity:1" />
        <circle
           r="4.4326577"
           cy="7866.4746"
           cx="450.48413"
           id="circle16149"
           style="opacity:1;fill:#0007ff;fill-opacity:1;stroke:#0012ff;stroke-width:0.50632006;stroke-linejoin:miter;stroke-miterlimit:4;stroke-dasharray:none;stroke-dashoffset:0;stroke-opacity:1" />
        <circle
           style="opacity:1;fill:none;fill-opacity:1;stroke:#0012ff;stroke-width:0.50632006;stroke-linejoin:miter;stroke-miterlimit:4;stroke-dasharray:none;stroke-dashoffset:0;stroke-opacity:1"
           id="circle16151"
           cx="485.43176"
           cy="7866.4746"
           r="8.8653154" />
        <circle
           style="opacity:1;fill:#0007ff;fill-opacity:1;stroke:#0012ff;stroke-width:0.50632006;stroke-linejoin:miter;stroke-miterlimit:4;stroke-dasharray:none;stroke-dashoffset:0;stroke-opacity:1"
           id="circle16153"
           cx="485.43176"
           cy="7866.4746"
           r="4.4326577" />
        <path
           inkscape:connector-curvature="0"
           id="path16155"
           d="m 469.81648,7876.7622 -3.86822,13.1519 9.28372,0"
           style="fill:none;fill-rule:evenodd;stroke:#004dff;stroke-width:0.54155016px;stroke-linecap:butt;stroke-linejoin:miter;stroke-opacity:1" />
        <g
           transform="matrix(0.35417503,0,0,0.35417503,483.09944,7692.6362)"
           id="g16157">
          <circle
             r="139.30339"
             cy="712.95087"
             cx="391.0079"
             id="circle16159"
             style="opacity:1;fill:none;fill-opacity:1;stroke:#000000;stroke-width:2.15473938;stroke-linejoin:miter;stroke-miterlimit:4;stroke-dasharray:none;stroke-dashoffset:0;stroke-opacity:1" />
          <g
             transform="matrix(0.23826265,0,0,0.23826265,449.31475,684.83218)"
             id="g16161">
            <circle
               style="opacity:1;fill:none;fill-opacity:1;stroke:#000000;stroke-width:6;stroke-linejoin:miter;stroke-miterlimit:4;stroke-dasharray:none;stroke-dashoffset:0;stroke-opacity:1"
               id="circle16163"
               cx="-480.83261"
               cy="38.169014"
               r="105.05586" />
            <circle
               style="opacity:1;fill:#000000;fill-opacity:1;stroke:#000000;stroke-width:6;stroke-linejoin:miter;stroke-miterlimit:4;stroke-dasharray:none;stroke-dashoffset:0;stroke-opacity:1"
               id="circle16165"
               cx="-480.83261"
               cy="38.169014"
               r="52.527931" />
          </g>
          <g
             id="g16167"
             transform="matrix(0.23826265,0,0,0.23826265,547.98805,684.83218)">
            <circle
               r="105.05586"
               cy="38.169014"
               cx="-480.83261"
               id="circle16169"
               style="opacity:1;fill:none;fill-opacity:1;stroke:#000000;stroke-width:6;stroke-linejoin:miter;stroke-miterlimit:4;stroke-dasharray:none;stroke-dashoffset:0;stroke-opacity:1" />
            <circle
               r="52.527931"
               cy="38.169014"
               cx="-480.83261"
               id="circle16171"
               style="opacity:1;fill:#000000;fill-opacity:1;stroke:#000000;stroke-width:6;stroke-linejoin:miter;stroke-miterlimit:4;stroke-dasharray:none;stroke-dashoffset:0;stroke-opacity:1" />
          </g>
        </g>
        <path
           style="fill:none;fill-rule:evenodd;stroke:#000000;stroke-width:0.54155016px;stroke-linecap:butt;stroke-linejoin:miter;stroke-opacity:1"
           d="m 620.99198,7948.695 -3.86822,13.1519 9.28372,0"
           id="path16173"
           inkscape:connector-curvature="0" />
        <path
           sodipodi:nodetypes="cc"
           inkscape:connector-curvature="0"
           id="path16175"
           d="m 598.34123,7971.8544 c 16.64549,8.0577 32.01075,7.1537 46.48318,0"
           style="fill:none;fill-rule:evenodd;stroke:#000000;stroke-width:1px;stroke-linecap:butt;stroke-linejoin:miter;stroke-opacity:1" />
        <path
           style="opacity:1;fill:#ffffff;fill-opacity:1;stroke:#000000;stroke-width:0.82408696;stroke-linejoin:miter;stroke-miterlimit:4;stroke-dasharray:none;stroke-dashoffset:0;stroke-opacity:1"
           inkscape:transform-center-x="-104.68937"
           inkscape:transform-center-y="-50.625377"
           d="m 603.74056,7905.7142 c -1.73613,-3.1258 0.25334,-18.3221 0.25334,-18.3221 0,0 -6.90202,8.3976 -8.34926,13.5689 -2.75579,9.8471 -3.48136,19.3159 6.79491,18.5373 8.97015,-0.6749 3.47246,-9.8745 1.30101,-13.7841 z"
           id="path16177"
           inkscape:connector-curvature="0"
           sodipodi:nodetypes="scsss" />
        <path
           inkscape:connector-curvature="0"
           id="path16179"
           d="m 518.58326,7883.7424 52.96039,51.3823"
           style="fill:none;fill-rule:evenodd;stroke:#000000;stroke-width:1.13725531;stroke-linecap:butt;stroke-linejoin:miter;stroke-miterlimit:4;stroke-dasharray:none;stroke-opacity:1;marker-end:url(#marker11899)"
           sodipodi:nodetypes="cc" />
        <g
           style="opacity:0.31100003"
           id="g16181"
           transform="translate(0,639.1509)">
          <circle
             style="opacity:1;fill:none;fill-opacity:1;stroke:#ff0000;stroke-width:0.76300001;stroke-linejoin:miter;stroke-miterlimit:4;stroke-dasharray:none;stroke-dashoffset:0;stroke-opacity:1"
             id="circle16183"
             cx="167.95705"
             cy="7309.9585"
             r="49.337784" />
          <circle
             style="opacity:1;fill:none;fill-opacity:1;stroke:#ff0000;stroke-width:0.76299995;stroke-linejoin:miter;stroke-miterlimit:4;stroke-dasharray:none;stroke-dashoffset:0;stroke-opacity:1"
             id="circle16185"
             cx="148.032"
             cy="7303.2207"
             r="8.8653154" />
          <circle
             style="opacity:1;fill:#ff0000;fill-opacity:1;stroke:#ff0000;stroke-width:0.76299995;stroke-linejoin:miter;stroke-miterlimit:4;stroke-dasharray:none;stroke-dashoffset:0;stroke-opacity:1"
             id="circle16187"
             cx="148.032"
             cy="7303.2207"
             r="4.4326577" />
          <circle
             r="8.8653154"
             cy="7303.2207"
             cx="182.97963"
             id="circle16189"
             style="opacity:1;fill:none;fill-opacity:1;stroke:#ff0000;stroke-width:0.76299995;stroke-linejoin:miter;stroke-miterlimit:4;stroke-dasharray:none;stroke-dashoffset:0;stroke-opacity:1" />
          <circle
             r="4.4326577"
             cy="7303.2207"
             cx="182.97963"
             id="circle16191"
             style="opacity:1;fill:#ff0000;fill-opacity:1;stroke:#ff0000;stroke-width:0.76299995;stroke-linejoin:miter;stroke-miterlimit:4;stroke-dasharray:none;stroke-dashoffset:0;stroke-opacity:1" />
        </g>
        <circle
           style="opacity:1;fill:none;fill-opacity:1;stroke:#000000;stroke-width:0.76315486;stroke-linejoin:miter;stroke-miterlimit:4;stroke-dasharray:none;stroke-dashoffset:0;stroke-opacity:1"
           id="circle16193"
           cx="315.91202"
           cy="8013.1099"
           r="49.337784" />
        <g
           id="g16195"
           transform="matrix(0.08438668,0,0,0.08438668,336.56286,8003.1508)">
          <circle
             r="105.05586"
             cy="38.169014"
             cx="-480.83261"
             id="circle16197"
             style="opacity:1;fill:none;fill-opacity:1;stroke:#000000;stroke-width:6;stroke-linejoin:miter;stroke-miterlimit:4;stroke-dasharray:none;stroke-dashoffset:0;stroke-opacity:1" />
          <circle
             r="52.527931"
             cy="38.169014"
             cx="-480.83261"
             id="circle16199"
             style="opacity:1;fill:#000000;fill-opacity:1;stroke:#000000;stroke-width:6;stroke-linejoin:miter;stroke-miterlimit:4;stroke-dasharray:none;stroke-dashoffset:0;stroke-opacity:1" />
        </g>
        <g
           transform="matrix(0.08438668,0,0,0.08438668,371.51047,8003.1508)"
           id="g16201">
          <circle
             style="opacity:1;fill:none;fill-opacity:1;stroke:#000000;stroke-width:6;stroke-linejoin:miter;stroke-miterlimit:4;stroke-dasharray:none;stroke-dashoffset:0;stroke-opacity:1"
             id="circle16203"
             cx="-480.83261"
             cy="38.169014"
             r="105.05586" />
          <circle
             style="opacity:1;fill:#000000;fill-opacity:1;stroke:#000000;stroke-width:6;stroke-linejoin:miter;stroke-miterlimit:4;stroke-dasharray:none;stroke-dashoffset:0;stroke-opacity:1"
             id="circle16205"
             cx="-480.83261"
             cy="38.169014"
             r="52.527931" />
        </g>
        <path
           style="fill:none;fill-rule:evenodd;stroke:#000000;stroke-width:1.13725531;stroke-linecap:butt;stroke-linejoin:miter;stroke-miterlimit:4;stroke-dasharray:none;stroke-opacity:1;marker-end:url(#marker12992)"
           d="m 208.68948,7975.9578 54.84262,37.6067"
           id="path16207"
           inkscape:connector-curvature="0"
           sodipodi:nodetypes="cc" />
        <path
           style="fill:none;fill-rule:evenodd;stroke:#000000;stroke-width:1.13725531;stroke-linecap:butt;stroke-linejoin:miter;stroke-miterlimit:4;stroke-dasharray:none;stroke-opacity:1;marker-end:url(#marker5155)"
           d="m 366.54453,8013.5645 51.83409,0"
           id="path16209"
           inkscape:connector-curvature="0" />
        <circle
           style="opacity:1;fill:none;fill-opacity:1;stroke:#0007ff;stroke-width:0.76315486;stroke-linejoin:miter;stroke-miterlimit:4;stroke-dasharray:none;stroke-dashoffset:0;stroke-opacity:1"
           id="circle16211"
           cx="470.40918"
           cy="8013.1094"
           r="49.337784" />
        <circle
           style="opacity:1;fill:none;fill-opacity:1;stroke:#0007ff;stroke-width:0.50632006;stroke-linejoin:miter;stroke-miterlimit:4;stroke-dasharray:none;stroke-dashoffset:0;stroke-opacity:1"
           id="circle16213"
           cx="450.48413"
           cy="8006.3716"
           r="8.8653154" />
        <circle
           style="opacity:1;fill:#0007ff;fill-opacity:1;stroke:#0007ff;stroke-width:0.50632006;stroke-linejoin:miter;stroke-miterlimit:4;stroke-dasharray:none;stroke-dashoffset:0;stroke-opacity:1"
           id="circle16215"
           cx="450.48413"
           cy="8006.3716"
           r="4.4326577" />
        <circle
           r="8.8653154"
           cy="8006.3716"
           cx="485.43176"
           id="circle16217"
           style="opacity:1;fill:none;fill-opacity:1;stroke:#0007ff;stroke-width:0.50632006;stroke-linejoin:miter;stroke-miterlimit:4;stroke-dasharray:none;stroke-dashoffset:0;stroke-opacity:1" />
        <circle
           r="4.4326577"
           cy="8006.3716"
           cx="485.43176"
           id="circle16219"
           style="opacity:1;fill:#0007ff;fill-opacity:1;stroke:#0007ff;stroke-width:0.50632006;stroke-linejoin:miter;stroke-miterlimit:4;stroke-dasharray:none;stroke-dashoffset:0;stroke-opacity:1" />
        <path
           sodipodi:nodetypes="cc"
           inkscape:connector-curvature="0"
           id="path16221"
           d="m 447.16573,8039.8185 c 16.64549,8.0577 32.01075,7.1537 46.48318,0"
           style="fill:none;fill-rule:evenodd;stroke:#0007ff;stroke-width:1px;stroke-linecap:butt;stroke-linejoin:miter;stroke-opacity:1" />
        <path
           sodipodi:nodetypes="cc"
           style="fill:none;fill-rule:evenodd;stroke:#000000;stroke-width:1.13725531;stroke-linecap:butt;stroke-linejoin:miter;stroke-miterlimit:4;stroke-dasharray:none;stroke-opacity:1;marker-end:url(#marker12189)"
           d="m 518.58326,8012.1579 52.96039,-51.3823"
           id="path16223"
           inkscape:connector-curvature="0" />
        <path
           sodipodi:nodetypes="scsss"
           inkscape:connector-curvature="0"
           id="path16225"
           d="m 299.12625,7968.8935 c -1.73613,-3.1258 0.25334,-18.3221 0.25334,-18.3221 0,0 -6.90202,8.3976 -8.34926,13.5689 -2.75579,9.8471 -3.48136,19.3159 6.79491,18.5373 8.97015,-0.6749 3.47246,-9.8745 1.30101,-13.7841 z"
           inkscape:transform-center-y="-50.625377"
           inkscape:transform-center-x="-104.68937"
           style="opacity:1;fill:#ffffff;fill-opacity:1;stroke:#000000;stroke-width:0.82408696;stroke-linejoin:miter;stroke-miterlimit:4;stroke-dasharray:none;stroke-dashoffset:0;stroke-opacity:1" />
        <path
           style="opacity:1;fill:#ffffff;fill-opacity:1;stroke:#0007ff;stroke-width:0.82408696;stroke-linejoin:miter;stroke-miterlimit:4;stroke-dasharray:none;stroke-dashoffset:0;stroke-opacity:1"
           inkscape:transform-center-x="104.68937"
           inkscape:transform-center-y="-50.625377"
           d="m 489.3465,7828.9966 c 1.73613,-3.1258 -0.25334,-18.3221 -0.25334,-18.3221 0,0 6.90202,8.3976 8.34926,13.5689 2.75579,9.8471 3.48136,19.3159 -6.79491,18.5373 -8.97015,-0.6749 -3.47246,-9.8745 -1.30101,-13.7841 z"
           id="path16227"
           inkscape:connector-curvature="0"
           sodipodi:nodetypes="scsss" />
        <path
           style="opacity:1;fill:#ffffff;fill-opacity:1;stroke:#0007ff;stroke-width:0.82408696;stroke-linejoin:miter;stroke-miterlimit:4;stroke-dasharray:none;stroke-dashoffset:0;stroke-opacity:1"
           inkscape:transform-center-x="-104.68937"
           inkscape:transform-center-y="-50.625377"
           d="m 451.05734,7968.8935 c -1.73613,-3.1258 0.25334,-18.3221 0.25334,-18.3221 0,0 -6.90202,8.3976 -8.34926,13.5689 -2.75579,9.8471 -3.48136,19.3159 6.79491,18.5373 8.97015,-0.6749 3.47246,-9.8745 1.30101,-13.7841 z"
           id="path16229"
           inkscape:connector-curvature="0"
           sodipodi:nodetypes="scsss" />
        <path
           sodipodi:nodetypes="cc"
           inkscape:connector-curvature="0"
           id="path16231"
           d="m 213.95441,7930.8517 54.09049,-38.3589"
           style="fill:none;fill-rule:evenodd;stroke:#000000;stroke-width:1.13725531;stroke-linecap:butt;stroke-linejoin:miter;stroke-miterlimit:4;stroke-dasharray:none;stroke-opacity:1;marker-end:url(#marker14952)" />
        <path
           sodipodi:type="star"
           style="opacity:1;fill:#ffffff;fill-opacity:1;stroke:#0007ff;stroke-width:1.30599177;stroke-linejoin:miter;stroke-miterlimit:4;stroke-dasharray:none;stroke-dashoffset:0;stroke-opacity:1"
           id="path16233"
           sodipodi:sides="3"
           sodipodi:cx="477.59152"
           sodipodi:cy="6643.5679"
           sodipodi:r1="11.892284"
           sodipodi:r2="5.9461422"
           sodipodi:arg1="0.52359878"
           sodipodi:arg2="1.5707963"
           inkscape:flatsided="true"
           inkscape:rounded="0"
           inkscape:randomized="0"
           d="m 487.89054,6649.514 -20.59804,0 10.29902,-17.8384 z"
           inkscape:transform-center-y="-4.4460219"
           transform="matrix(0.56116397,0,0,1.4953183,218.89155,-1965.8362)" />
        <g
           transform="matrix(0.71175327,0,0,0.71175327,237.03768,2718.9492)"
           id="g16235"
           style="font-style:normal;font-weight:normal;font-size:60px;line-height:125%;font-family:sans-serif;text-align:center;letter-spacing:0px;word-spacing:0px;text-anchor:middle;fill:#ffffff;fill-opacity:1;stroke:#000000;stroke-width:1px;stroke-linecap:butt;stroke-linejoin:miter;stroke-opacity:1">
          <path
             inkscape:connector-curvature="0"
             id="path16237"
             style="fill:#ffffff;fill-opacity:1;stroke:#000000;stroke-opacity:1"
             d="m 137.91566,7191.4634 5.94727,0 0,7.4414 -5.94727,0 0,-7.4414 z m 5.77149,-4.3067 -5.5957,0 0,-4.5117 q 0,-2.959 0.82031,-4.8633 0.82031,-1.9043 3.45703,-4.4238 l 2.63672,-2.6074 q 1.66992,-1.5527 2.40234,-2.9297 0.76172,-1.377 0.76172,-2.8125 0,-2.6074 -1.93359,-4.2187 -1.9043,-1.6114 -5.06836,-1.6114 -2.31446,0 -4.95117,1.0254 -2.60743,1.0254 -5.44922,2.9883 l 0,-5.5078 q 2.7539,-1.6699 5.5664,-2.4903 2.8418,-0.8203 5.85938,-0.8203 5.39062,0 8.64258,2.8418 3.28125,2.8418 3.28125,7.5 0,2.2266 -1.05469,4.2481 -1.05469,1.9922 -3.69141,4.5117 l -2.57812,2.5195 q -1.37696,1.377 -1.96289,2.168 -0.55664,0.7617 -0.79102,1.4941 -0.17578,0.6153 -0.26367,1.4942 -0.0879,0.8789 -0.0879,2.4023 l 0,3.6035 z" />
        </g>
        <g
           style="font-style:normal;font-weight:normal;font-size:60px;line-height:125%;font-family:sans-serif;text-align:center;letter-spacing:0px;word-spacing:0px;text-anchor:middle;opacity:0.49300005;fill:#ffffff;fill-opacity:1;stroke:#ff0000;stroke-width:1.00034666;stroke-linecap:butt;stroke-linejoin:miter;stroke-miterlimit:4;stroke-dasharray:none;stroke-opacity:1"
           id="g16239"
           transform="matrix(0.71175327,0,0,0.71175327,82.827762,2792.445)">
          <path
             d="m 137.91566,7191.4634 5.94727,0 0,7.4414 -5.94727,0 0,-7.4414 z m 5.77149,-4.3067 -5.5957,0 0,-4.5117 q 0,-2.959 0.82031,-4.8633 0.82031,-1.9043 3.45703,-4.4238 l 2.63672,-2.6074 q 1.66992,-1.5527 2.40234,-2.9297 0.76172,-1.377 0.76172,-2.8125 0,-2.6074 -1.93359,-4.2187 -1.9043,-1.6114 -5.06836,-1.6114 -2.31446,0 -4.95117,1.0254 -2.60743,1.0254 -5.44922,2.9883 l 0,-5.5078 q 2.7539,-1.6699 5.5664,-2.4903 2.8418,-0.8203 5.85938,-0.8203 5.39062,0 8.64258,2.8418 3.28125,2.8418 3.28125,7.5 0,2.2266 -1.05469,4.2481 -1.05469,1.9922 -3.69141,4.5117 l -2.57812,2.5195 q -1.37696,1.377 -1.96289,2.168 -0.55664,0.7617 -0.79102,1.4941 -0.17578,0.6153 -0.26367,1.4942 -0.0879,0.8789 -0.0879,2.4023 l 0,3.6035 z"
             style="fill:#ffffff;fill-opacity:1;stroke:#ff0000;stroke-width:1.00034666;stroke-miterlimit:4;stroke-dasharray:none;stroke-opacity:1"
             id="path16241"
             inkscape:connector-curvature="0" />
        </g>
        <g
           style="font-style:normal;font-weight:normal;font-size:60px;line-height:125%;font-family:sans-serif;text-align:center;letter-spacing:0px;word-spacing:0px;text-anchor:middle;fill:#ffffff;fill-opacity:1;stroke:#000000;stroke-width:1px;stroke-linecap:butt;stroke-linejoin:miter;stroke-opacity:1"
           id="g16243"
           transform="matrix(0.71175327,0,0,0.71175327,540.86403,2789.1639)">
          <path
             d="m 137.91566,7191.4634 5.94727,0 0,7.4414 -5.94727,0 0,-7.4414 z m 5.77149,-4.3067 -5.5957,0 0,-4.5117 q 0,-2.959 0.82031,-4.8633 0.82031,-1.9043 3.45703,-4.4238 l 2.63672,-2.6074 q 1.66992,-1.5527 2.40234,-2.9297 0.76172,-1.377 0.76172,-2.8125 0,-2.6074 -1.93359,-4.2187 -1.9043,-1.6114 -5.06836,-1.6114 -2.31446,0 -4.95117,1.0254 -2.60743,1.0254 -5.44922,2.9883 l 0,-5.5078 q 2.7539,-1.6699 5.5664,-2.4903 2.8418,-0.8203 5.85938,-0.8203 5.39062,0 8.64258,2.8418 3.28125,2.8418 3.28125,7.5 0,2.2266 -1.05469,4.2481 -1.05469,1.9922 -3.69141,4.5117 l -2.57812,2.5195 q -1.37696,1.377 -1.96289,2.168 -0.55664,0.7617 -0.79102,1.4941 -0.17578,0.6153 -0.26367,1.4942 -0.0879,0.8789 -0.0879,2.4023 l 0,3.6035 z"
             style="fill:#ffffff;fill-opacity:1;stroke:#000000;stroke-opacity:1"
             id="path16245"
             inkscape:connector-curvature="0" />
        </g>
      </g>
    </g>
    <text
       xml:space="preserve"
       style="font-style:normal;font-weight:normal;font-size:33.60118103px;line-height:125%;font-family:sans-serif;letter-spacing:0px;word-spacing:0px;fill:#000000;fill-opacity:1;stroke:none;stroke-width:1px;stroke-linecap:butt;stroke-linejoin:miter;stroke-opacity:1"
       x="399.91797"
       y="14958.932"
       id="text16322"
       sodipodi:linespacing="125%"><tspan
         id="tspan16334"
         style="text-align:center;text-anchor:middle;fill:#000000;fill-opacity:1"
         sodipodi:role="line"
         x="405.2666"
         y="14958.932">Then we wouldn't know if we </tspan><tspan
         id="tspan16350"
         style="text-align:center;text-anchor:middle;fill:#000000;fill-opacity:1"
         sodipodi:role="line"
         x="399.91797"
         y="15000.934">needed the timmocs' God's help.</tspan><tspan
         id="tspan16352"
         style="text-align:center;text-anchor:middle;fill:#000000;fill-opacity:1"
         sodipodi:role="line"
         x="399.91797"
         y="15042.935">And that's bad, because the timmocs'</tspan><tspan
         id="tspan16354"
         style="text-align:center;text-anchor:middle;fill:#000000;fill-opacity:1"
         sodipodi:role="line"
         x="399.91797"
         y="15084.937">God is a lazy God.</tspan></text>
    <g
       style="font-style:normal;font-weight:normal;font-size:60px;line-height:125%;font-family:sans-serif;text-align:center;letter-spacing:0px;word-spacing:0px;text-anchor:middle;fill:#ffffff;fill-opacity:1;stroke:#000000;stroke-width:1px;stroke-linecap:butt;stroke-linejoin:miter;stroke-opacity:1"
       id="g8418"
       transform="matrix(0.71175327,0,0,0.71175327,231.75732,9693.6874)">
      <path
         d="m 137.91566,7191.4634 5.94727,0 0,7.4414 -5.94727,0 0,-7.4414 z m 5.77149,-4.3067 -5.5957,0 0,-4.5117 q 0,-2.959 0.82031,-4.8633 0.82031,-1.9043 3.45703,-4.4238 l 2.63672,-2.6074 q 1.66992,-1.5527 2.40234,-2.9297 0.76172,-1.377 0.76172,-2.8125 0,-2.6074 -1.93359,-4.2187 -1.9043,-1.6114 -5.06836,-1.6114 -2.31446,0 -4.95117,1.0254 -2.60743,1.0254 -5.44922,2.9883 l 0,-5.5078 q 2.7539,-1.6699 5.5664,-2.4903 2.8418,-0.8203 5.85938,-0.8203 5.39062,0 8.64258,2.8418 3.28125,2.8418 3.28125,7.5 0,2.2266 -1.05469,4.2481 -1.05469,1.9922 -3.69141,4.5117 l -2.57812,2.5195 q -1.37696,1.377 -1.96289,2.168 -0.55664,0.7617 -0.79102,1.4941 -0.17578,0.6153 -0.26367,1.4942 -0.0879,0.8789 -0.0879,2.4023 l 0,3.6035 z"
         style="fill:#ffffff;fill-opacity:1;stroke:#000000;stroke-opacity:1"
         id="path8420"
         inkscape:connector-curvature="0" />
    </g>
  </g>
</svg>
