<?xml version="1.0" encoding="UTF-8" standalone="no"?>
<!-- Created with Inkscape (http://www.inkscape.org/) -->
<svg xmlns:dc="http://purl.org/dc/elements/1.1/" xmlns:cc="http://creativecommons.org/ns#" xmlns:rdf="http://www.w3.org/1999/02/22-rdf-syntax-ns#" xmlns:svg="http://www.w3.org/2000/svg" xmlns="http://www.w3.org/2000/svg" xmlns:sodipodi="http://sodipodi.sourceforge.net/DTD/sodipodi-0.dtd" xmlns:inkscape="http://www.inkscape.org/namespaces/inkscape" width="1626.8502" height="500" viewBox="0 0 1626.8502 500" id="svg2" version="1.1" inkscape:version="0.91 r13725" sodipodi:docname="early_rebasing.svg">
  <defs id="defs4">
    <marker inkscape:stockid="Arrow1Lend" orient="auto" refY="0" refX="0" id="marker22638" style="overflow:visible" inkscape:isstock="true">
      <path id="path22640" d="M 0,0 5,-5 -12.5,0 5,5 0,0 Z" style="fill:#000000;fill-opacity:1;fill-rule:evenodd;stroke:#000000;stroke-width:1pt;stroke-opacity:1" transform="matrix(-0.8,0,0,-0.8,-10,0)" inkscape:connector-curvature="0"/>
    </marker>
    <marker inkscape:stockid="Arrow1Lend" orient="auto" refY="0" refX="0" id="marker18329" style="overflow:visible" inkscape:isstock="true">
      <path id="path18331" d="M 0,0 5,-5 -12.5,0 5,5 0,0 Z" style="fill:#000000;fill-opacity:1;fill-rule:evenodd;stroke:#000000;stroke-width:1pt;stroke-opacity:1" transform="matrix(-0.8,0,0,-0.8,-10,0)" inkscape:connector-curvature="0"/>
    </marker>
    <marker inkscape:isstock="true" style="overflow:visible" id="marker11570" refX="0" refY="0" orient="auto" inkscape:stockid="Arrow1Lend">
      <path inkscape:connector-curvature="0" transform="matrix(-0.8,0,0,-0.8,-10,0)" style="fill:#000000;fill-opacity:1;fill-rule:evenodd;stroke:#000000;stroke-width:1pt;stroke-opacity:1" d="M 0,0 5,-5 -12.5,0 5,5 0,0 Z" id="path11572"/>
    </marker>
    <marker inkscape:isstock="true" style="overflow:visible" id="marker11326" refX="0" refY="0" orient="auto" inkscape:stockid="Arrow1Lend">
      <path inkscape:connector-curvature="0" transform="matrix(-0.8,0,0,-0.8,-10,0)" style="fill:#000000;fill-opacity:1;fill-rule:evenodd;stroke:#000000;stroke-width:1pt;stroke-opacity:1" d="M 0,0 5,-5 -12.5,0 5,5 0,0 Z" id="path11328"/>
    </marker>
    <marker inkscape:stockid="Arrow1Lend" orient="auto" refY="0" refX="0" id="marker9818" style="overflow:visible" inkscape:isstock="true">
      <path inkscape:connector-curvature="0" id="path9820" d="M 0,0 5,-5 -12.5,0 5,5 0,0 Z" style="fill:#000000;fill-opacity:1;fill-rule:evenodd;stroke:#000000;stroke-width:1pt;stroke-opacity:1" transform="matrix(-0.8,0,0,-0.8,-10,0)"/>
    </marker>
    <marker inkscape:isstock="true" style="overflow:visible" id="marker9572" refX="0" refY="0" orient="auto" inkscape:stockid="Arrow1Lend">
      <path inkscape:connector-curvature="0" transform="matrix(-0.8,0,0,-0.8,-10,0)" style="fill:#000000;fill-opacity:1;fill-rule:evenodd;stroke:#000000;stroke-width:1pt;stroke-opacity:1" d="M 0,0 5,-5 -12.5,0 5,5 0,0 Z" id="path9574"/>
    </marker>
    <marker inkscape:isstock="true" style="overflow:visible" id="marker9349" refX="0" refY="0" orient="auto" inkscape:stockid="Arrow1Lend">
      <path inkscape:connector-curvature="0" transform="matrix(-0.8,0,0,-0.8,-10,0)" style="fill:#000000;fill-opacity:1;fill-rule:evenodd;stroke:#000000;stroke-width:1pt;stroke-opacity:1" d="M 0,0 5,-5 -12.5,0 5,5 0,0 Z" id="path9351"/>
    </marker>
    <marker inkscape:isstock="true" style="overflow:visible" id="marker8273" refX="0" refY="0" orient="auto" inkscape:stockid="Arrow1Lend">
      <path inkscape:connector-curvature="0" transform="matrix(-0.8,0,0,-0.8,-10,0)" style="fill:#000000;fill-opacity:1;fill-rule:evenodd;stroke:#000000;stroke-width:1pt;stroke-opacity:1" d="M 0,0 5,-5 -12.5,0 5,5 0,0 Z" id="path8275"/>
    </marker>
    <marker inkscape:stockid="Arrow1Lend" orient="auto" refY="0" refX="0" id="marker7296" style="overflow:visible" inkscape:isstock="true">
      <path inkscape:connector-curvature="0" id="path7298" d="M 0,0 5,-5 -12.5,0 5,5 0,0 Z" style="fill:#000000;fill-opacity:1;fill-rule:evenodd;stroke:#000000;stroke-width:1pt;stroke-opacity:1" transform="matrix(-0.8,0,0,-0.8,-10,0)"/>
    </marker>
    <marker inkscape:stockid="Arrow1Lend" orient="auto" refY="0" refX="0" id="marker7060" style="overflow:visible" inkscape:isstock="true">
      <path inkscape:connector-curvature="0" id="path7062" d="M 0,0 5,-5 -12.5,0 5,5 0,0 Z" style="fill:#000000;fill-opacity:1;fill-rule:evenodd;stroke:#000000;stroke-width:1pt;stroke-opacity:1" transform="matrix(-0.8,0,0,-0.8,-10,0)"/>
    </marker>
    <marker inkscape:stockid="Arrow1Lend" orient="auto" refY="0" refX="0" id="marker7724" style="overflow:visible" inkscape:isstock="true">
      <path id="path7726" d="M 0,0 5,-5 -12.5,0 5,5 0,0 Z" style="fill:#000000;fill-opacity:1;fill-rule:evenodd;stroke:#000000;stroke-width:1pt;stroke-opacity:1" transform="matrix(-0.8,0,0,-0.8,-10,0)" inkscape:connector-curvature="0"/>
    </marker>
    <marker inkscape:isstock="true" style="overflow:visible" id="marker7176" refX="0" refY="0" orient="auto" inkscape:stockid="Arrow1Lend">
      <path transform="matrix(-0.8,0,0,-0.8,-10,0)" style="fill:#000000;fill-opacity:1;fill-rule:evenodd;stroke:#000000;stroke-width:1pt;stroke-opacity:1" d="M 0,0 5,-5 -12.5,0 5,5 0,0 Z" id="path7178" inkscape:connector-curvature="0"/>
    </marker>
    <marker inkscape:isstock="true" style="overflow:visible" id="marker6998" refX="0" refY="0" orient="auto" inkscape:stockid="Arrow1Lend">
      <path transform="matrix(-0.8,0,0,-0.8,-10,0)" style="fill:#000000;fill-opacity:1;fill-rule:evenodd;stroke:#000000;stroke-width:1pt;stroke-opacity:1" d="M 0,0 5,-5 -12.5,0 5,5 0,0 Z" id="path7000" inkscape:connector-curvature="0"/>
    </marker>
    <marker inkscape:stockid="Arrow1Lend" orient="auto" refY="0" refX="0" id="marker6826" style="overflow:visible" inkscape:isstock="true">
      <path id="path6828" d="M 0,0 5,-5 -12.5,0 5,5 0,0 Z" style="fill:#000000;fill-opacity:1;fill-rule:evenodd;stroke:#000000;stroke-width:1pt;stroke-opacity:1" transform="matrix(-0.8,0,0,-0.8,-10,0)" inkscape:connector-curvature="0"/>
    </marker>
    <marker inkscape:isstock="true" style="overflow:visible" id="marker6555" refX="0" refY="0" orient="auto" inkscape:stockid="Arrow1Lend">
      <path transform="matrix(-0.8,0,0,-0.8,-10,0)" style="fill:#000000;fill-opacity:1;fill-rule:evenodd;stroke:#000000;stroke-width:1pt;stroke-opacity:1" d="M 0,0 5,-5 -12.5,0 5,5 0,0 Z" id="path6557" inkscape:connector-curvature="0"/>
    </marker>
    <marker inkscape:stockid="Arrow1Lend" orient="auto" refY="0" refX="0" id="marker6349" style="overflow:visible" inkscape:isstock="true">
      <path id="path6351" d="M 0,0 5,-5 -12.5,0 5,5 0,0 Z" style="fill:#000000;fill-opacity:1;fill-rule:evenodd;stroke:#000000;stroke-width:1pt;stroke-opacity:1" transform="matrix(-0.8,0,0,-0.8,-10,0)" inkscape:connector-curvature="0"/>
    </marker>
    <marker inkscape:isstock="true" style="overflow:visible" id="marker6195" refX="0" refY="0" orient="auto" inkscape:stockid="Arrow1Lend">
      <path transform="matrix(-0.8,0,0,-0.8,-10,0)" style="fill:#000000;fill-opacity:1;fill-rule:evenodd;stroke:#000000;stroke-width:1pt;stroke-opacity:1" d="M 0,0 5,-5 -12.5,0 5,5 0,0 Z" id="path6197" inkscape:connector-curvature="0"/>
    </marker>
    <marker inkscape:stockid="Arrow1Lend" orient="auto" refY="0" refX="0" id="marker5400" style="overflow:visible" inkscape:isstock="true">
      <path id="path5402" d="M 0,0 5,-5 -12.5,0 5,5 0,0 Z" style="fill:#000000;fill-opacity:1;fill-rule:evenodd;stroke:#000000;stroke-width:1pt;stroke-opacity:1" transform="matrix(-0.8,0,0,-0.8,-10,0)" inkscape:connector-curvature="0"/>
    </marker>
    <marker inkscape:stockid="Arrow1Lend" orient="auto" refY="0" refX="0" id="marker5120" style="overflow:visible" inkscape:isstock="true">
      <path id="path5122" d="M 0,0 5,-5 -12.5,0 5,5 0,0 Z" style="fill:#000000;fill-opacity:1;fill-rule:evenodd;stroke:#000000;stroke-width:1pt;stroke-opacity:1" transform="matrix(-0.8,0,0,-0.8,-10,0)" inkscape:connector-curvature="0"/>
    </marker>
    <marker inkscape:stockid="Arrow1Lend" orient="auto" refY="0" refX="0" id="marker14952" style="overflow:visible" inkscape:isstock="true">
      <path id="path14954" d="M 0,0 5,-5 -12.5,0 5,5 0,0 Z" style="fill:#000000;fill-opacity:1;fill-rule:evenodd;stroke:#000000;stroke-width:1pt;stroke-opacity:1" transform="matrix(-0.8,0,0,-0.8,-10,0)" inkscape:connector-curvature="0"/>
    </marker>
    <marker inkscape:isstock="true" style="overflow:visible" id="marker12886" refX="0" refY="0" orient="auto" inkscape:stockid="Arrow1Lend">
      <path transform="matrix(-0.8,0,0,-0.8,-10,0)" style="fill:#000000;fill-opacity:1;fill-rule:evenodd;stroke:#000000;stroke-width:1pt;stroke-opacity:1" d="M 0,0 5,-5 -12.5,0 5,5 0,0 Z" id="path12888" inkscape:connector-curvature="0"/>
    </marker>
    <marker inkscape:isstock="true" style="overflow:visible" id="marker11987" refX="0" refY="0" orient="auto" inkscape:stockid="Arrow1Lend">
      <path transform="matrix(-0.8,0,0,-0.8,-10,0)" style="fill:#000000;fill-opacity:1;fill-rule:evenodd;stroke:#000000;stroke-width:1pt;stroke-opacity:1" d="M 0,0 5,-5 -12.5,0 5,5 0,0 Z" id="path11989" inkscape:connector-curvature="0"/>
    </marker>
    <marker inkscape:isstock="true" style="overflow:visible" id="marker11408" refX="0" refY="0" orient="auto" inkscape:stockid="Arrow1Lend">
      <path transform="matrix(-0.8,0,0,-0.8,-10,0)" style="fill:#000000;fill-opacity:1;fill-rule:evenodd;stroke:#000000;stroke-width:1pt;stroke-opacity:1" d="M 0,0 5,-5 -12.5,0 5,5 0,0 Z" id="path11410" inkscape:connector-curvature="0"/>
    </marker>
    <marker inkscape:stockid="Arrow1Lend" orient="auto" refY="0" refX="0" id="marker11332" style="overflow:visible" inkscape:isstock="true">
      <path id="path11334" d="M 0,0 5,-5 -12.5,0 5,5 0,0 Z" style="fill:#000000;fill-opacity:1;fill-rule:evenodd;stroke:#000000;stroke-width:1pt;stroke-opacity:1" transform="matrix(-0.8,0,0,-0.8,-10,0)" inkscape:connector-curvature="0"/>
    </marker>
    <marker inkscape:stockid="Arrow1Lend" orient="auto" refY="0" refX="0" id="marker9287" style="overflow:visible" inkscape:isstock="true">
      <path id="path9289" d="M 0,0 5,-5 -12.5,0 5,5 0,0 Z" style="fill:#000000;fill-opacity:1;fill-rule:evenodd;stroke:#000000;stroke-width:1pt;stroke-opacity:1" transform="matrix(-0.8,0,0,-0.8,-10,0)" inkscape:connector-curvature="0"/>
    </marker>
    <marker inkscape:isstock="true" style="overflow:visible" id="marker4941" refX="0" refY="0" orient="auto" inkscape:stockid="Arrow1Lend">
      <path transform="matrix(-0.8,0,0,-0.8,-10,0)" style="fill:#000000;fill-opacity:1;fill-rule:evenodd;stroke:#000000;stroke-width:1pt;stroke-opacity:1" d="M 0,0 5,-5 -12.5,0 5,5 0,0 Z" id="path4943" inkscape:connector-curvature="0"/>
    </marker>
  </defs>
  <sodipodi:namedview id="base" pagecolor="#ffffff" bordercolor="#666666" borderopacity="1.0" inkscape:pageopacity="0.0" inkscape:pageshadow="2" inkscape:zoom="0.31027378" inkscape:cx="981.3763" inkscape:cy="185.30922" inkscape:document-units="px" inkscape:current-layer="layer1" showgrid="false" units="px" inkscape:window-width="1276" inkscape:window-height="755" inkscape:window-x="0" inkscape:window-y="1" inkscape:window-maximized="1" fit-margin-top="20" fit-margin-left="20" fit-margin-right="20" fit-margin-bottom="20" showguides="true" inkscape:guide-bbox="true"/>
  <metadata id="metadata7">
    <rdf:RDF>
      <cc:Work rdf:about="">
        <dc:format>image/svg+xml</dc:format>
        <dc:type rdf:resource="http://purl.org/dc/dcmitype/StillImage"/>
        <dc:title/>
      </cc:Work>
    </rdf:RDF>
  </metadata>
  <g inkscape:label="Layer 1" inkscape:groupmode="layer" id="layer1" transform="translate(22.999881,-15897.203)">
    
    
    <circle style="opacity:1;fill:none;fill-opacity:1;stroke:#000000;stroke-width:0.76315486;stroke-linejoin:miter;stroke-miterlimit:4;stroke-dasharray:none;stroke-dashoffset:0;stroke-opacity:1" id="circle7442" cx="313.24045" cy="16074.262" r="49.337784"/>
    <circle r="8.8653154" cy="16067.523" cx="328.26306" id="circle7446" style="opacity:1;fill:none;fill-opacity:1;stroke:#000000;stroke-width:0.50632006;stroke-linejoin:miter;stroke-miterlimit:4;stroke-dasharray:none;stroke-dashoffset:0;stroke-opacity:1"/>
    <circle r="4.4326577" cy="16067.523" cx="328.26306" id="circle7448" style="opacity:1;fill:#000000;fill-opacity:1;stroke:#000000;stroke-width:0.50632006;stroke-linejoin:miter;stroke-miterlimit:4;stroke-dasharray:none;stroke-dashoffset:0;stroke-opacity:1"/>
    <path style="fill:none;fill-rule:evenodd;stroke:#000000;stroke-width:0.54155016px;stroke-linecap:butt;stroke-linejoin:miter;stroke-opacity:1" d="m 312.6478,16077.812 -3.86822,13.152 9.28372,0" id="path7450" inkscape:connector-curvature="0"/>
    <path sodipodi:nodetypes="cc" inkscape:connector-curvature="0" id="path7452" d="m 289.99705,16100.972 c 16.64549,8.057 32.01075,7.153 46.48318,0" style="fill:none;fill-rule:evenodd;stroke:#000000;stroke-width:1px;stroke-linecap:butt;stroke-linejoin:miter;stroke-opacity:1"/>
    <path style="fill:none;fill-rule:evenodd;stroke:#000000;stroke-width:1px;stroke-linecap:butt;stroke-linejoin:miter;stroke-opacity:1" d="m 278.90692,16092.079 -29.3578,-5.709" id="path7458" inkscape:connector-curvature="0"/>
    <path style="fill:none;fill-rule:evenodd;stroke:#000000;stroke-width:1px;stroke-linecap:butt;stroke-linejoin:miter;stroke-opacity:1" d="m 278.09143,16098.603 -26.91132,3.262" id="path7460" inkscape:connector-curvature="0"/>
    <path style="fill:none;fill-rule:evenodd;stroke:#000000;stroke-width:1px;stroke-linecap:butt;stroke-linejoin:miter;stroke-opacity:1" d="m 282.98439,16107.573 -24.46483,11.417" id="path7462" inkscape:connector-curvature="0"/>
    <path inkscape:connector-curvature="0" id="path7466" d="m 345.89346,16092.079 29.3578,-5.709" style="fill:none;fill-rule:evenodd;stroke:#000000;stroke-width:1px;stroke-linecap:butt;stroke-linejoin:miter;stroke-opacity:1"/>
    <path inkscape:connector-curvature="0" id="path7468" d="m 346.70895,16098.603 26.91132,3.262" style="fill:none;fill-rule:evenodd;stroke:#000000;stroke-width:1px;stroke-linecap:butt;stroke-linejoin:miter;stroke-opacity:1"/>
    <path inkscape:connector-curvature="0" id="path7470" d="m 341.81599,16107.573 24.46483,11.417" style="fill:none;fill-rule:evenodd;stroke:#000000;stroke-width:1px;stroke-linecap:butt;stroke-linejoin:miter;stroke-opacity:1"/>
    <g transform="translate(-164.00899,13514.012)" id="g7478">
      <g id="g7480" transform="matrix(0.35417503,0,0,0.35417503,337.92394,2463.9284)">
        <circle style="opacity:1;fill:none;fill-opacity:1;stroke:#000000;stroke-width:2.15473938;stroke-linejoin:miter;stroke-miterlimit:4;stroke-dasharray:none;stroke-dashoffset:0;stroke-opacity:1" id="circle7482" cx="391.0079" cy="712.95087" r="139.30339"/>
        <g id="g7484" transform="matrix(0.23826265,0,0,0.23826265,449.31475,684.83218)">
          <circle r="105.05586" cy="38.169014" cx="-480.83261" id="circle7486" style="opacity:1;fill:none;fill-opacity:1;stroke:#000000;stroke-width:6;stroke-linejoin:miter;stroke-miterlimit:4;stroke-dasharray:none;stroke-dashoffset:0;stroke-opacity:1"/>
          <circle r="52.527931" cy="38.169014" cx="-480.83261" id="circle7488" style="opacity:1;fill:#000000;fill-opacity:1;stroke:#000000;stroke-width:6;stroke-linejoin:miter;stroke-miterlimit:4;stroke-dasharray:none;stroke-dashoffset:0;stroke-opacity:1"/>
        </g>
        <g transform="matrix(0.23826265,0,0,0.23826265,547.98805,684.83218)" id="g7490">
          <circle style="opacity:1;fill:none;fill-opacity:1;stroke:#000000;stroke-width:6;stroke-linejoin:miter;stroke-miterlimit:4;stroke-dasharray:none;stroke-dashoffset:0;stroke-opacity:1" id="circle7492" cx="-480.83261" cy="38.169014" r="105.05586"/>
          <circle style="opacity:1;fill:#000000;fill-opacity:1;stroke:#000000;stroke-width:6;stroke-linejoin:miter;stroke-miterlimit:4;stroke-dasharray:none;stroke-dashoffset:0;stroke-opacity:1" id="circle7494" cx="-480.83261" cy="38.169014" r="52.527931"/>
        </g>
      </g>
    </g>
    <path style="fill:none;fill-rule:evenodd;stroke:#000000;stroke-width:0.54155016px;stroke-linecap:butt;stroke-linejoin:miter;stroke-opacity:1" d="m 311.80749,16234 -3.86822,13.152 9.28372,0" id="path7496" inkscape:connector-curvature="0"/>
    <path sodipodi:nodetypes="cc" inkscape:connector-curvature="0" id="path7498" d="m 289.15674,16257.16 c 16.64549,8.057 32.01075,7.153 46.48318,0" style="fill:none;fill-rule:evenodd;stroke:#000000;stroke-width:1px;stroke-linecap:butt;stroke-linejoin:miter;stroke-opacity:1"/>
    <path sodipodi:nodetypes="scsss" inkscape:connector-curvature="0" id="path7500" d="m 334.3495,16191.019 c 1.73613,-3.126 -0.25334,-18.322 -0.25334,-18.322 0,0 6.90202,8.398 8.34926,13.569 2.75579,9.847 3.48136,19.316 -6.79491,18.537 -8.97015,-0.674 -3.47246,-9.874 -1.30101,-13.784 z" inkscape:transform-center-y="-50.625377" inkscape:transform-center-x="104.68937" style="opacity:1;fill:#ffffff;fill-opacity:1;stroke:#000000;stroke-width:0.82408696;stroke-linejoin:miter;stroke-miterlimit:4;stroke-dasharray:none;stroke-dashoffset:0;stroke-opacity:1"/>
    <path style="opacity:1;fill:#ffffff;fill-opacity:1;stroke:#000000;stroke-width:0.82408696;stroke-linejoin:miter;stroke-miterlimit:4;stroke-dasharray:none;stroke-dashoffset:0;stroke-opacity:1" inkscape:transform-center-x="-104.68937" inkscape:transform-center-y="-50.625377" d="m 294.55607,16191.019 c -1.73613,-3.126 0.25334,-18.322 0.25334,-18.322 0,0 -6.90202,8.398 -8.34926,13.569 -2.75579,9.847 -3.48136,19.316 6.79491,18.537 8.97015,-0.674 3.47246,-9.874 1.30101,-13.784 z" id="path7502" inkscape:connector-curvature="0" sodipodi:nodetypes="scsss"/>
    <g id="g7510" transform="translate(5.1158505,13437.427)">
      <g transform="matrix(0.35417503,0,0,0.35417503,337.92394,2463.9284)" id="g7512">
        <circle r="139.30339" cy="712.95087" cx="391.0079" id="circle7514" style="opacity:1;fill:none;fill-opacity:1;stroke:#000000;stroke-width:2.15473938;stroke-linejoin:miter;stroke-miterlimit:4;stroke-dasharray:none;stroke-dashoffset:0;stroke-opacity:1"/>
        <g transform="matrix(0.23826265,0,0,0.23826265,449.31475,684.83218)" id="g7516">
          <circle style="opacity:1;fill:none;fill-opacity:1;stroke:#000000;stroke-width:6;stroke-linejoin:miter;stroke-miterlimit:4;stroke-dasharray:none;stroke-dashoffset:0;stroke-opacity:1" id="circle7518" cx="-480.83261" cy="38.169014" r="105.05586"/>
          <circle style="opacity:1;fill:#000000;fill-opacity:1;stroke:#000000;stroke-width:6;stroke-linejoin:miter;stroke-miterlimit:4;stroke-dasharray:none;stroke-dashoffset:0;stroke-opacity:1" id="circle7520" cx="-480.83261" cy="38.169014" r="52.527931"/>
        </g>
        <g id="g7522" transform="matrix(0.23826265,0,0,0.23826265,547.98805,684.83218)">
          <circle r="105.05586" cy="38.169014" cx="-480.83261" id="circle7524" style="opacity:1;fill:none;fill-opacity:1;stroke:#000000;stroke-width:6;stroke-linejoin:miter;stroke-miterlimit:4;stroke-dasharray:none;stroke-dashoffset:0;stroke-opacity:1"/>
          <circle r="52.527931" cy="38.169014" cx="-480.83261" id="circle7526" style="opacity:1;fill:#000000;fill-opacity:1;stroke:#000000;stroke-width:6;stroke-linejoin:miter;stroke-miterlimit:4;stroke-dasharray:none;stroke-dashoffset:0;stroke-opacity:1"/>
        </g>
      </g>
    </g>
    <path inkscape:connector-curvature="0" id="path7528" d="m 480.93233,16157.415 -3.86822,13.152 9.28372,0" style="fill:none;fill-rule:evenodd;stroke:#000000;stroke-width:0.54155016px;stroke-linecap:butt;stroke-linejoin:miter;stroke-opacity:1"/>
    <path style="fill:none;fill-rule:evenodd;stroke:#000000;stroke-width:1px;stroke-linecap:butt;stroke-linejoin:miter;stroke-opacity:1" d="m 458.28158,16186.325 c 16.64549,-8.057 32.01075,-7.153 46.48318,0" id="path7530" inkscape:connector-curvature="0" sodipodi:nodetypes="cc"/>
    <path style="opacity:1;fill:#ffffff;fill-opacity:1;stroke:#000000;stroke-width:0.82408696;stroke-linejoin:miter;stroke-miterlimit:4;stroke-dasharray:none;stroke-dashoffset:0;stroke-opacity:1" inkscape:transform-center-x="104.68937" inkscape:transform-center-y="-50.625377" d="m 503.47434,16114.434 c 1.73613,-3.126 -0.25334,-18.322 -0.25334,-18.322 0,0 6.90202,8.398 8.34926,13.569 2.75579,9.847 3.48136,19.316 -6.79491,18.537 -8.97015,-0.675 -3.47246,-9.874 -1.30101,-13.784 z" id="path7532" inkscape:connector-curvature="0" sodipodi:nodetypes="scsss"/>
    <path sodipodi:nodetypes="scsss" inkscape:connector-curvature="0" id="path7534" d="m 463.68091,16114.434 c -1.73613,-3.126 0.25334,-18.322 0.25334,-18.322 0,0 -6.90202,8.398 -8.34926,13.569 -2.75579,9.847 -3.48136,19.316 6.79491,18.537 8.97015,-0.675 3.47246,-9.874 1.30101,-13.784 z" inkscape:transform-center-y="-50.625377" inkscape:transform-center-x="-104.68937" style="opacity:1;fill:#ffffff;fill-opacity:1;stroke:#000000;stroke-width:0.82408696;stroke-linejoin:miter;stroke-miterlimit:4;stroke-dasharray:none;stroke-dashoffset:0;stroke-opacity:1"/>
    <path inkscape:connector-curvature="0" id="path7540" d="m 447.84357,16161.218 -29.3578,-5.709" style="fill:none;fill-rule:evenodd;stroke:#000000;stroke-width:1px;stroke-linecap:butt;stroke-linejoin:miter;stroke-opacity:1"/>
    <path inkscape:connector-curvature="0" id="path7542" d="m 447.02808,16167.742 -26.91132,3.262" style="fill:none;fill-rule:evenodd;stroke:#000000;stroke-width:1px;stroke-linecap:butt;stroke-linejoin:miter;stroke-opacity:1"/>
    <path inkscape:connector-curvature="0" id="path7544" d="m 451.92104,16176.712 -24.46483,11.417" style="fill:none;fill-rule:evenodd;stroke:#000000;stroke-width:1px;stroke-linecap:butt;stroke-linejoin:miter;stroke-opacity:1"/>
    <path style="fill:none;fill-rule:evenodd;stroke:#000000;stroke-width:1px;stroke-linecap:butt;stroke-linejoin:miter;stroke-opacity:1" d="m 514.83012,16161.218 29.3578,-5.709" id="path7548" inkscape:connector-curvature="0"/>
    <path style="fill:none;fill-rule:evenodd;stroke:#000000;stroke-width:1px;stroke-linecap:butt;stroke-linejoin:miter;stroke-opacity:1" d="m 515.64561,16167.742 26.91132,3.262" id="path7550" inkscape:connector-curvature="0"/>
    <path style="fill:none;fill-rule:evenodd;stroke:#000000;stroke-width:1px;stroke-linecap:butt;stroke-linejoin:miter;stroke-opacity:1" d="m 510.75265,16176.712 24.46483,11.417" id="path7552" inkscape:connector-curvature="0"/>
    <path inkscape:connector-curvature="0" id="path7554" d="m 360.94187,16083.167 73.17028,52.977" style="fill:none;fill-rule:evenodd;stroke:#000000;stroke-width:1.13725531;stroke-linecap:butt;stroke-linejoin:miter;stroke-miterlimit:4;stroke-dasharray:none;stroke-opacity:1" sodipodi:nodetypes="cc"/>
    <path sodipodi:nodetypes="cc" style="fill:none;fill-rule:evenodd;stroke:#000000;stroke-width:1.13725531;stroke-linecap:butt;stroke-linejoin:miter;stroke-miterlimit:4;stroke-dasharray:none;stroke-opacity:1" d="m 362.43244,16224.931 73.96804,-47.127" id="path7556" inkscape:connector-curvature="0"/>
    
  </g>
</svg>
