<?xml version="1.0" encoding="UTF-8" standalone="no"?>
<!-- Created with Inkscape (http://www.inkscape.org/) -->
<svg xmlns:dc="http://purl.org/dc/elements/1.1/" xmlns:cc="http://creativecommons.org/ns#" xmlns:rdf="http://www.w3.org/1999/02/22-rdf-syntax-ns#" xmlns:svg="http://www.w3.org/2000/svg" xmlns="http://www.w3.org/2000/svg" xmlns:sodipodi="http://sodipodi.sourceforge.net/DTD/sodipodi-0.dtd" xmlns:inkscape="http://www.inkscape.org/namespaces/inkscape" width="1840.059" height="500" viewBox="0 0 1840.059 500" id="svg2" version="1.1" inkscape:version="0.91 r13725" sodipodi:docname="most recent common ancestor.svg">
  <defs id="defs4">
    <marker inkscape:isstock="true" style="overflow:visible" id="marker7320" refX="0" refY="0" orient="auto" inkscape:stockid="Arrow1Lend">
      <path transform="matrix(-0.8,0,0,-0.8,-10,0)" style="fill:#000000;fill-opacity:1;fill-rule:evenodd;stroke:#000000;stroke-width:1pt;stroke-opacity:1" d="M 0,0 5,-5 -12.5,0 5,5 0,0 Z" id="path7322" inkscape:connector-curvature="0"/>
    </marker>
    <marker inkscape:stockid="Arrow1Lend" orient="auto" refY="0" refX="0" id="marker22638" style="overflow:visible" inkscape:isstock="true">
      <path id="path22640" d="M 0,0 5,-5 -12.5,0 5,5 0,0 Z" style="fill:#000000;fill-opacity:1;fill-rule:evenodd;stroke:#000000;stroke-width:1pt;stroke-opacity:1" transform="matrix(-0.8,0,0,-0.8,-10,0)" inkscape:connector-curvature="0"/>
    </marker>
    <marker inkscape:stockid="Arrow1Lend" orient="auto" refY="0" refX="0" id="marker18329" style="overflow:visible" inkscape:isstock="true">
      <path id="path18331" d="M 0,0 5,-5 -12.5,0 5,5 0,0 Z" style="fill:#000000;fill-opacity:1;fill-rule:evenodd;stroke:#000000;stroke-width:1pt;stroke-opacity:1" transform="matrix(-0.8,0,0,-0.8,-10,0)" inkscape:connector-curvature="0"/>
    </marker>
    <marker inkscape:isstock="true" style="overflow:visible" id="marker11570" refX="0" refY="0" orient="auto" inkscape:stockid="Arrow1Lend">
      <path inkscape:connector-curvature="0" transform="matrix(-0.8,0,0,-0.8,-10,0)" style="fill:#000000;fill-opacity:1;fill-rule:evenodd;stroke:#000000;stroke-width:1pt;stroke-opacity:1" d="M 0,0 5,-5 -12.5,0 5,5 0,0 Z" id="path11572"/>
    </marker>
    <marker inkscape:isstock="true" style="overflow:visible" id="marker11326" refX="0" refY="0" orient="auto" inkscape:stockid="Arrow1Lend">
      <path inkscape:connector-curvature="0" transform="matrix(-0.8,0,0,-0.8,-10,0)" style="fill:#000000;fill-opacity:1;fill-rule:evenodd;stroke:#000000;stroke-width:1pt;stroke-opacity:1" d="M 0,0 5,-5 -12.5,0 5,5 0,0 Z" id="path11328"/>
    </marker>
    <marker inkscape:stockid="Arrow1Lend" orient="auto" refY="0" refX="0" id="marker9818" style="overflow:visible" inkscape:isstock="true">
      <path inkscape:connector-curvature="0" id="path9820" d="M 0,0 5,-5 -12.5,0 5,5 0,0 Z" style="fill:#000000;fill-opacity:1;fill-rule:evenodd;stroke:#000000;stroke-width:1pt;stroke-opacity:1" transform="matrix(-0.8,0,0,-0.8,-10,0)"/>
    </marker>
    <marker inkscape:isstock="true" style="overflow:visible" id="marker9572" refX="0" refY="0" orient="auto" inkscape:stockid="Arrow1Lend">
      <path inkscape:connector-curvature="0" transform="matrix(-0.8,0,0,-0.8,-10,0)" style="fill:#000000;fill-opacity:1;fill-rule:evenodd;stroke:#000000;stroke-width:1pt;stroke-opacity:1" d="M 0,0 5,-5 -12.5,0 5,5 0,0 Z" id="path9574"/>
    </marker>
    <marker inkscape:isstock="true" style="overflow:visible" id="marker9349" refX="0" refY="0" orient="auto" inkscape:stockid="Arrow1Lend">
      <path inkscape:connector-curvature="0" transform="matrix(-0.8,0,0,-0.8,-10,0)" style="fill:#000000;fill-opacity:1;fill-rule:evenodd;stroke:#000000;stroke-width:1pt;stroke-opacity:1" d="M 0,0 5,-5 -12.5,0 5,5 0,0 Z" id="path9351"/>
    </marker>
    <marker inkscape:isstock="true" style="overflow:visible" id="marker8273" refX="0" refY="0" orient="auto" inkscape:stockid="Arrow1Lend">
      <path inkscape:connector-curvature="0" transform="matrix(-0.8,0,0,-0.8,-10,0)" style="fill:#000000;fill-opacity:1;fill-rule:evenodd;stroke:#000000;stroke-width:1pt;stroke-opacity:1" d="M 0,0 5,-5 -12.5,0 5,5 0,0 Z" id="path8275"/>
    </marker>
    <marker inkscape:stockid="Arrow1Lend" orient="auto" refY="0" refX="0" id="marker7296" style="overflow:visible" inkscape:isstock="true">
      <path inkscape:connector-curvature="0" id="path7298" d="M 0,0 5,-5 -12.5,0 5,5 0,0 Z" style="fill:#000000;fill-opacity:1;fill-rule:evenodd;stroke:#000000;stroke-width:1pt;stroke-opacity:1" transform="matrix(-0.8,0,0,-0.8,-10,0)"/>
    </marker>
    <marker inkscape:stockid="Arrow1Lend" orient="auto" refY="0" refX="0" id="marker7724" style="overflow:visible" inkscape:isstock="true">
      <path id="path7726" d="M 0,0 5,-5 -12.5,0 5,5 0,0 Z" style="fill:#000000;fill-opacity:1;fill-rule:evenodd;stroke:#000000;stroke-width:1pt;stroke-opacity:1" transform="matrix(-0.8,0,0,-0.8,-10,0)" inkscape:connector-curvature="0"/>
    </marker>
    <marker inkscape:isstock="true" style="overflow:visible" id="marker7176" refX="0" refY="0" orient="auto" inkscape:stockid="Arrow1Lend">
      <path transform="matrix(-0.8,0,0,-0.8,-10,0)" style="fill:#000000;fill-opacity:1;fill-rule:evenodd;stroke:#000000;stroke-width:1pt;stroke-opacity:1" d="M 0,0 5,-5 -12.5,0 5,5 0,0 Z" id="path7178" inkscape:connector-curvature="0"/>
    </marker>
    <marker inkscape:isstock="true" style="overflow:visible" id="marker6998" refX="0" refY="0" orient="auto" inkscape:stockid="Arrow1Lend">
      <path transform="matrix(-0.8,0,0,-0.8,-10,0)" style="fill:#000000;fill-opacity:1;fill-rule:evenodd;stroke:#000000;stroke-width:1pt;stroke-opacity:1" d="M 0,0 5,-5 -12.5,0 5,5 0,0 Z" id="path7000" inkscape:connector-curvature="0"/>
    </marker>
    <marker inkscape:stockid="Arrow1Lend" orient="auto" refY="0" refX="0" id="marker6826" style="overflow:visible" inkscape:isstock="true">
      <path id="path6828" d="M 0,0 5,-5 -12.5,0 5,5 0,0 Z" style="fill:#000000;fill-opacity:1;fill-rule:evenodd;stroke:#000000;stroke-width:1pt;stroke-opacity:1" transform="matrix(-0.8,0,0,-0.8,-10,0)" inkscape:connector-curvature="0"/>
    </marker>
    <marker inkscape:isstock="true" style="overflow:visible" id="marker6555" refX="0" refY="0" orient="auto" inkscape:stockid="Arrow1Lend">
      <path transform="matrix(-0.8,0,0,-0.8,-10,0)" style="fill:#000000;fill-opacity:1;fill-rule:evenodd;stroke:#000000;stroke-width:1pt;stroke-opacity:1" d="M 0,0 5,-5 -12.5,0 5,5 0,0 Z" id="path6557" inkscape:connector-curvature="0"/>
    </marker>
    <marker inkscape:stockid="Arrow1Lend" orient="auto" refY="0" refX="0" id="marker6349" style="overflow:visible" inkscape:isstock="true">
      <path id="path6351" d="M 0,0 5,-5 -12.5,0 5,5 0,0 Z" style="fill:#000000;fill-opacity:1;fill-rule:evenodd;stroke:#000000;stroke-width:1pt;stroke-opacity:1" transform="matrix(-0.8,0,0,-0.8,-10,0)" inkscape:connector-curvature="0"/>
    </marker>
    <marker inkscape:isstock="true" style="overflow:visible" id="marker6195" refX="0" refY="0" orient="auto" inkscape:stockid="Arrow1Lend">
      <path transform="matrix(-0.8,0,0,-0.8,-10,0)" style="fill:#000000;fill-opacity:1;fill-rule:evenodd;stroke:#000000;stroke-width:1pt;stroke-opacity:1" d="M 0,0 5,-5 -12.5,0 5,5 0,0 Z" id="path6197" inkscape:connector-curvature="0"/>
    </marker>
    <marker inkscape:stockid="Arrow1Lend" orient="auto" refY="0" refX="0" id="marker5400" style="overflow:visible" inkscape:isstock="true">
      <path id="path5402" d="M 0,0 5,-5 -12.5,0 5,5 0,0 Z" style="fill:#000000;fill-opacity:1;fill-rule:evenodd;stroke:#000000;stroke-width:1pt;stroke-opacity:1" transform="matrix(-0.8,0,0,-0.8,-10,0)" inkscape:connector-curvature="0"/>
    </marker>
    <marker inkscape:stockid="Arrow1Lend" orient="auto" refY="0" refX="0" id="marker5120" style="overflow:visible" inkscape:isstock="true">
      <path id="path5122" d="M 0,0 5,-5 -12.5,0 5,5 0,0 Z" style="fill:#000000;fill-opacity:1;fill-rule:evenodd;stroke:#000000;stroke-width:1pt;stroke-opacity:1" transform="matrix(-0.8,0,0,-0.8,-10,0)" inkscape:connector-curvature="0"/>
    </marker>
    <marker inkscape:stockid="Arrow1Lend" orient="auto" refY="0" refX="0" id="marker14952" style="overflow:visible" inkscape:isstock="true">
      <path id="path14954" d="M 0,0 5,-5 -12.5,0 5,5 0,0 Z" style="fill:#000000;fill-opacity:1;fill-rule:evenodd;stroke:#000000;stroke-width:1pt;stroke-opacity:1" transform="matrix(-0.8,0,0,-0.8,-10,0)" inkscape:connector-curvature="0"/>
    </marker>
    <marker inkscape:isstock="true" style="overflow:visible" id="marker12992" refX="0" refY="0" orient="auto" inkscape:stockid="Arrow1Lend" inkscape:collect="always">
      <path transform="matrix(-0.8,0,0,-0.8,-10,0)" style="fill:#000000;fill-opacity:1;fill-rule:evenodd;stroke:#000000;stroke-width:1pt;stroke-opacity:1" d="M 0,0 5,-5 -12.5,0 5,5 0,0 Z" id="path12994" inkscape:connector-curvature="0"/>
    </marker>
    <marker inkscape:isstock="true" style="overflow:visible" id="marker12886" refX="0" refY="0" orient="auto" inkscape:stockid="Arrow1Lend">
      <path transform="matrix(-0.8,0,0,-0.8,-10,0)" style="fill:#000000;fill-opacity:1;fill-rule:evenodd;stroke:#000000;stroke-width:1pt;stroke-opacity:1" d="M 0,0 5,-5 -12.5,0 5,5 0,0 Z" id="path12888" inkscape:connector-curvature="0"/>
    </marker>
    <marker inkscape:isstock="true" style="overflow:visible" id="marker11987" refX="0" refY="0" orient="auto" inkscape:stockid="Arrow1Lend">
      <path transform="matrix(-0.8,0,0,-0.8,-10,0)" style="fill:#000000;fill-opacity:1;fill-rule:evenodd;stroke:#000000;stroke-width:1pt;stroke-opacity:1" d="M 0,0 5,-5 -12.5,0 5,5 0,0 Z" id="path11989" inkscape:connector-curvature="0"/>
    </marker>
    <marker inkscape:isstock="true" style="overflow:visible" id="marker11408" refX="0" refY="0" orient="auto" inkscape:stockid="Arrow1Lend">
      <path transform="matrix(-0.8,0,0,-0.8,-10,0)" style="fill:#000000;fill-opacity:1;fill-rule:evenodd;stroke:#000000;stroke-width:1pt;stroke-opacity:1" d="M 0,0 5,-5 -12.5,0 5,5 0,0 Z" id="path11410" inkscape:connector-curvature="0"/>
    </marker>
    <marker inkscape:stockid="Arrow1Lend" orient="auto" refY="0" refX="0" id="marker11332" style="overflow:visible" inkscape:isstock="true">
      <path id="path11334" d="M 0,0 5,-5 -12.5,0 5,5 0,0 Z" style="fill:#000000;fill-opacity:1;fill-rule:evenodd;stroke:#000000;stroke-width:1pt;stroke-opacity:1" transform="matrix(-0.8,0,0,-0.8,-10,0)" inkscape:connector-curvature="0"/>
    </marker>
    <marker inkscape:stockid="Arrow1Lend" orient="auto" refY="0" refX="0" id="marker9287" style="overflow:visible" inkscape:isstock="true">
      <path id="path9289" d="M 0,0 5,-5 -12.5,0 5,5 0,0 Z" style="fill:#000000;fill-opacity:1;fill-rule:evenodd;stroke:#000000;stroke-width:1pt;stroke-opacity:1" transform="matrix(-0.8,0,0,-0.8,-10,0)" inkscape:connector-curvature="0"/>
    </marker>
    <marker inkscape:stockid="Arrow1Lend" orient="auto" refY="0" refX="0" id="marker5155" style="overflow:visible" inkscape:isstock="true" inkscape:collect="always">
      <path id="path5157" d="M 0,0 5,-5 -12.5,0 5,5 0,0 Z" style="fill:#000000;fill-opacity:1;fill-rule:evenodd;stroke:#000000;stroke-width:1pt;stroke-opacity:1" transform="matrix(-0.8,0,0,-0.8,-10,0)" inkscape:connector-curvature="0"/>
    </marker>
    <marker inkscape:isstock="true" style="overflow:visible" id="marker4941" refX="0" refY="0" orient="auto" inkscape:stockid="Arrow1Lend">
      <path transform="matrix(-0.8,0,0,-0.8,-10,0)" style="fill:#000000;fill-opacity:1;fill-rule:evenodd;stroke:#000000;stroke-width:1pt;stroke-opacity:1" d="M 0,0 5,-5 -12.5,0 5,5 0,0 Z" id="path4943" inkscape:connector-curvature="0"/>
    </marker>
  </defs>
  <sodipodi:namedview id="base" pagecolor="#ffffff" bordercolor="#666666" borderopacity="1.0" inkscape:pageopacity="0.0" inkscape:pageshadow="2" inkscape:zoom="0.38410695" inkscape:cx="520.2515" inkscape:cy="274.74179" inkscape:document-units="px" inkscape:current-layer="layer1" showgrid="false" units="px" inkscape:window-width="1280" inkscape:window-height="756" inkscape:window-x="1" inkscape:window-y="1" inkscape:window-maximized="0" fit-margin-top="20" fit-margin-left="20" fit-margin-right="20" fit-margin-bottom="20" showguides="true" inkscape:guide-bbox="true"/>
  <metadata id="metadata7">
    <rdf:RDF>
      <cc:Work rdf:about="">
        <dc:format>image/svg+xml</dc:format>
        <dc:type rdf:resource="http://purl.org/dc/dcmitype/StillImage"/>
        <dc:title/>
      </cc:Work>
    </rdf:RDF>
  </metadata>
  <g inkscape:label="Layer 1" inkscape:groupmode="layer" id="layer1" transform="translate(22.99988,-8523.1953)">
    <g id="g7668">
      
      
      <g id="g7661" transform="translate(80.816848,2163.2799)">
        <g id="g7663" transform="matrix(0.35417503,0,0,0.35417503,177.42679,6296.7725)">
          <circle style="opacity:1;fill:none;fill-opacity:1;stroke:#000000;stroke-width:2.15473938;stroke-linejoin:miter;stroke-miterlimit:4;stroke-dasharray:none;stroke-dashoffset:0;stroke-opacity:1" id="circle7665" cx="391.0079" cy="712.95087" r="139.30339"/>
          <g id="g7667" transform="matrix(0.23826265,0,0,0.23826265,449.31475,684.83218)">
            <circle r="105.05586" cy="38.169014" cx="-480.83261" id="circle7669" style="opacity:1;fill:none;fill-opacity:1;stroke:#000000;stroke-width:6;stroke-linejoin:miter;stroke-miterlimit:4;stroke-dasharray:none;stroke-dashoffset:0;stroke-opacity:1"/>
            <circle r="52.527931" cy="38.169014" cx="-480.83261" id="circle7671" style="opacity:1;fill:#000000;fill-opacity:1;stroke:#000000;stroke-width:6;stroke-linejoin:miter;stroke-miterlimit:4;stroke-dasharray:none;stroke-dashoffset:0;stroke-opacity:1"/>
          </g>
          <g transform="matrix(0.23826265,0,0,0.23826265,547.98805,684.83218)" id="g7673">
            <circle style="opacity:1;fill:none;fill-opacity:1;stroke:#000000;stroke-width:6;stroke-linejoin:miter;stroke-miterlimit:4;stroke-dasharray:none;stroke-dashoffset:0;stroke-opacity:1" id="circle7675" cx="-480.83261" cy="38.169014" r="105.05586"/>
            <circle style="opacity:1;fill:#000000;fill-opacity:1;stroke:#000000;stroke-width:6;stroke-linejoin:miter;stroke-miterlimit:4;stroke-dasharray:none;stroke-dashoffset:0;stroke-opacity:1" id="circle7677" cx="-480.83261" cy="38.169014" r="52.527931"/>
          </g>
        </g>
        <path inkscape:connector-curvature="0" id="path7679" d="m 312.89053,6552.8313 -3.86821,13.1519 9.28372,0" style="fill:none;fill-rule:evenodd;stroke:#000000;stroke-width:0.54155016px;stroke-linecap:butt;stroke-linejoin:miter;stroke-opacity:1"/>
        <path inkscape:connector-curvature="0" id="path7681" d="m 366.54453,6549.7367 51.83409,0" style="fill:none;fill-rule:evenodd;stroke:#000000;stroke-width:1.13725531;stroke-linecap:butt;stroke-linejoin:miter;stroke-miterlimit:4;stroke-dasharray:none;stroke-opacity:1;marker-end:url(#marker5155)"/>
        <circle r="49.337784" cy="6549.2822" cx="470.40918" id="circle7683" style="opacity:1;fill:none;fill-opacity:1;stroke:#0012ff;stroke-width:0.76315486;stroke-linejoin:miter;stroke-miterlimit:4;stroke-dasharray:none;stroke-dashoffset:0;stroke-opacity:1"/>
        <circle r="8.8653154" cy="6542.5439" cx="450.48413" id="circle7685" style="opacity:1;fill:none;fill-opacity:1;stroke:#0012ff;stroke-width:0.50632006;stroke-linejoin:miter;stroke-miterlimit:4;stroke-dasharray:none;stroke-dashoffset:0;stroke-opacity:1"/>
        <circle r="4.4326577" cy="6542.5439" cx="450.48413" id="circle7687" style="opacity:1;fill:#0007ff;fill-opacity:1;stroke:#0012ff;stroke-width:0.50632006;stroke-linejoin:miter;stroke-miterlimit:4;stroke-dasharray:none;stroke-dashoffset:0;stroke-opacity:1"/>
        <circle style="opacity:1;fill:none;fill-opacity:1;stroke:#0012ff;stroke-width:0.50632006;stroke-linejoin:miter;stroke-miterlimit:4;stroke-dasharray:none;stroke-dashoffset:0;stroke-opacity:1" id="circle7689" cx="485.43176" cy="6542.5439" r="8.8653154"/>
        <circle style="opacity:1;fill:#0007ff;fill-opacity:1;stroke:#0012ff;stroke-width:0.50632006;stroke-linejoin:miter;stroke-miterlimit:4;stroke-dasharray:none;stroke-dashoffset:0;stroke-opacity:1" id="circle7691" cx="485.43176" cy="6542.5439" r="4.4326577"/>
        <path inkscape:connector-curvature="0" id="path7693" d="m 469.81648,6552.8313 -3.86822,13.1519 9.28372,0" style="fill:none;fill-rule:evenodd;stroke:#004dff;stroke-width:0.54155016px;stroke-linecap:butt;stroke-linejoin:miter;stroke-opacity:1"/>
        <circle r="49.337784" cy="6625.1787" cx="167.95705" id="circle7695" style="opacity:1;fill:none;fill-opacity:1;stroke:#ff0000;stroke-width:0.76300001;stroke-linejoin:miter;stroke-miterlimit:4;stroke-dasharray:none;stroke-dashoffset:0;stroke-opacity:1"/>
        <circle r="8.8653154" cy="6618.4409" cx="148.032" id="circle7697" style="opacity:1;fill:none;fill-opacity:1;stroke:#ff0000;stroke-width:0.76299995;stroke-linejoin:miter;stroke-miterlimit:4;stroke-dasharray:none;stroke-dashoffset:0;stroke-opacity:1"/>
        <circle r="4.4326577" cy="6618.4409" cx="148.032" id="circle7699" style="opacity:1;fill:#ff0000;fill-opacity:1;stroke:#ff0000;stroke-width:0.76299995;stroke-linejoin:miter;stroke-miterlimit:4;stroke-dasharray:none;stroke-dashoffset:0;stroke-opacity:1"/>
        <circle style="opacity:1;fill:none;fill-opacity:1;stroke:#ff0000;stroke-width:0.76299995;stroke-linejoin:miter;stroke-miterlimit:4;stroke-dasharray:none;stroke-dashoffset:0;stroke-opacity:1" id="circle7701" cx="182.97963" cy="6618.4409" r="8.8653154"/>
        <circle style="opacity:1;fill:#ff0000;fill-opacity:1;stroke:#ff0000;stroke-width:0.76299995;stroke-linejoin:miter;stroke-miterlimit:4;stroke-dasharray:none;stroke-dashoffset:0;stroke-opacity:1" id="circle7703" cx="182.97963" cy="6618.4409" r="4.4326577"/>
        <g transform="matrix(0.35417503,0,0,0.35417503,177.42679,6436.6694)" id="g7705">
          <circle r="139.30339" cy="712.95087" cx="391.0079" id="circle7707" style="opacity:1;fill:none;fill-opacity:1;stroke:#000000;stroke-width:2.15473938;stroke-linejoin:miter;stroke-miterlimit:4;stroke-dasharray:none;stroke-dashoffset:0;stroke-opacity:1"/>
          <g transform="matrix(0.23826265,0,0,0.23826265,449.31475,684.83218)" id="g7709">
            <circle style="opacity:1;fill:none;fill-opacity:1;stroke:#000000;stroke-width:6;stroke-linejoin:miter;stroke-miterlimit:4;stroke-dasharray:none;stroke-dashoffset:0;stroke-opacity:1" id="circle7711" cx="-480.83261" cy="38.169014" r="105.05586"/>
            <circle style="opacity:1;fill:#000000;fill-opacity:1;stroke:#000000;stroke-width:6;stroke-linejoin:miter;stroke-miterlimit:4;stroke-dasharray:none;stroke-dashoffset:0;stroke-opacity:1" id="circle7713" cx="-480.83261" cy="38.169014" r="52.527931"/>
          </g>
          <g id="g7715" transform="matrix(0.23826265,0,0,0.23826265,547.98805,684.83218)">
            <circle r="105.05586" cy="38.169014" cx="-480.83261" id="circle7717" style="opacity:1;fill:none;fill-opacity:1;stroke:#000000;stroke-width:6;stroke-linejoin:miter;stroke-miterlimit:4;stroke-dasharray:none;stroke-dashoffset:0;stroke-opacity:1"/>
            <circle r="52.527931" cy="38.169014" cx="-480.83261" id="circle7719" style="opacity:1;fill:#000000;fill-opacity:1;stroke:#000000;stroke-width:6;stroke-linejoin:miter;stroke-miterlimit:4;stroke-dasharray:none;stroke-dashoffset:0;stroke-opacity:1"/>
          </g>
        </g>
        <path style="fill:none;fill-rule:evenodd;stroke:#000000;stroke-width:1.13725531;stroke-linecap:butt;stroke-linejoin:miter;stroke-miterlimit:4;stroke-dasharray:none;stroke-opacity:1;marker-end:url(#marker12992)" d="m 208.68948,6652.0269 54.84262,37.6067" id="path7721" inkscape:connector-curvature="0" sodipodi:nodetypes="cc"/>
        <path style="fill:none;fill-rule:evenodd;stroke:#000000;stroke-width:1.13725531;stroke-linecap:butt;stroke-linejoin:miter;stroke-miterlimit:4;stroke-dasharray:none;stroke-opacity:1;marker-end:url(#marker5155)" d="m 366.54453,6689.6336 51.83409,0" id="path7723" inkscape:connector-curvature="0"/>
        <circle style="opacity:1;fill:none;fill-opacity:1;stroke:#0007ff;stroke-width:0.76315486;stroke-linejoin:miter;stroke-miterlimit:4;stroke-dasharray:none;stroke-dashoffset:0;stroke-opacity:1" id="circle7725" cx="470.40918" cy="6689.1787" r="49.337784"/>
        <circle style="opacity:1;fill:none;fill-opacity:1;stroke:#0007ff;stroke-width:0.50632006;stroke-linejoin:miter;stroke-miterlimit:4;stroke-dasharray:none;stroke-dashoffset:0;stroke-opacity:1" id="circle7727" cx="450.48413" cy="6682.4409" r="8.8653154"/>
        <circle style="opacity:1;fill:#0007ff;fill-opacity:1;stroke:#0007ff;stroke-width:0.50632006;stroke-linejoin:miter;stroke-miterlimit:4;stroke-dasharray:none;stroke-dashoffset:0;stroke-opacity:1" id="circle7729" cx="450.48413" cy="6682.4409" r="4.4326577"/>
        <circle r="8.8653154" cy="6682.4409" cx="485.43176" id="circle7731" style="opacity:1;fill:none;fill-opacity:1;stroke:#0007ff;stroke-width:0.50632006;stroke-linejoin:miter;stroke-miterlimit:4;stroke-dasharray:none;stroke-dashoffset:0;stroke-opacity:1"/>
        <circle r="4.4326577" cy="6682.4409" cx="485.43176" id="circle7733" style="opacity:1;fill:#0007ff;fill-opacity:1;stroke:#0007ff;stroke-width:0.50632006;stroke-linejoin:miter;stroke-miterlimit:4;stroke-dasharray:none;stroke-dashoffset:0;stroke-opacity:1"/>
        <path sodipodi:nodetypes="cc" inkscape:connector-curvature="0" id="path7735" d="m 447.16573,6715.8876 c 16.64549,8.0577 32.01075,7.1537 46.48318,0" style="fill:none;fill-rule:evenodd;stroke:#0007ff;stroke-width:1px;stroke-linecap:butt;stroke-linejoin:miter;stroke-opacity:1"/>
        <path sodipodi:nodetypes="scsss" inkscape:connector-curvature="0" id="path7737" d="m 299.12625,6644.9626 c -1.73613,-3.1258 0.25334,-18.3221 0.25334,-18.3221 0,0 -6.90202,8.3976 -8.34926,13.5689 -2.75579,9.8471 -3.48136,19.3159 6.79491,18.5373 8.97015,-0.6749 3.47246,-9.8745 1.30101,-13.7841 z" inkscape:transform-center-y="-50.625377" inkscape:transform-center-x="-104.68937" style="opacity:1;fill:#ffffff;fill-opacity:1;stroke:#000000;stroke-width:0.82408696;stroke-linejoin:miter;stroke-miterlimit:4;stroke-dasharray:none;stroke-dashoffset:0;stroke-opacity:1"/>
        <path style="opacity:1;fill:#ffffff;fill-opacity:1;stroke:#0007ff;stroke-width:0.82408696;stroke-linejoin:miter;stroke-miterlimit:4;stroke-dasharray:none;stroke-dashoffset:0;stroke-opacity:1" inkscape:transform-center-x="104.68937" inkscape:transform-center-y="-50.625377" d="m 489.3465,6505.0657 c 1.73613,-3.1258 -0.25334,-18.3221 -0.25334,-18.3221 0,0 6.90202,8.3976 8.34926,13.5689 2.75579,9.8471 3.48136,19.3159 -6.79491,18.5373 -8.97015,-0.6749 -3.47246,-9.8745 -1.30101,-13.7841 z" id="path7739" inkscape:connector-curvature="0" sodipodi:nodetypes="scsss"/>
        <path style="opacity:1;fill:#ffffff;fill-opacity:1;stroke:#0007ff;stroke-width:0.82408696;stroke-linejoin:miter;stroke-miterlimit:4;stroke-dasharray:none;stroke-dashoffset:0;stroke-opacity:1" inkscape:transform-center-x="-104.68937" inkscape:transform-center-y="-50.625377" d="m 451.05734,6644.9626 c -1.73613,-3.1258 0.25334,-18.3221 0.25334,-18.3221 0,0 -6.90202,8.3976 -8.34926,13.5689 -2.75579,9.8471 -3.48136,19.3159 6.79491,18.5373 8.97015,-0.6749 3.47246,-9.8745 1.30101,-13.7841 z" id="path7741" inkscape:connector-curvature="0" sodipodi:nodetypes="scsss"/>
        <path sodipodi:nodetypes="cc" inkscape:connector-curvature="0" id="path7743" d="m 213.95441,6606.9208 54.09049,-38.3589" style="fill:none;fill-rule:evenodd;stroke:#000000;stroke-width:1.13725531;stroke-linecap:butt;stroke-linejoin:miter;stroke-miterlimit:4;stroke-dasharray:none;stroke-opacity:1;marker-end:url(#marker7320)"/>
      </g>
    </g>
    
  </g>
</svg>
