<?xml version="1.0" encoding="UTF-8" standalone="no"?>
<!-- Created with Inkscape (http://www.inkscape.org/) -->
<svg xmlns:dc="http://purl.org/dc/elements/1.1/" xmlns:cc="http://creativecommons.org/ns#" xmlns:rdf="http://www.w3.org/1999/02/22-rdf-syntax-ns#" xmlns:svg="http://www.w3.org/2000/svg" xmlns="http://www.w3.org/2000/svg" xmlns:sodipodi="http://sodipodi.sourceforge.net/DTD/sodipodi-0.dtd" xmlns:inkscape="http://www.inkscape.org/namespaces/inkscape" width="845.99988" height="500" viewBox="0 0 845.99988 500" id="svg2" version="1.1" inkscape:version="0.91 r13725" sodipodi:docname="no_new_timmoc.svg">
  <defs id="defs4">
    <marker inkscape:stockid="Arrow1Lend" orient="auto" refY="0" refX="0" id="marker22638" style="overflow:visible" inkscape:isstock="true">
      <path id="path22640" d="M 0,0 5,-5 -12.5,0 5,5 0,0 Z" style="fill:#000000;fill-opacity:1;fill-rule:evenodd;stroke:#000000;stroke-width:1pt;stroke-opacity:1" transform="matrix(-0.8,0,0,-0.8,-10,0)" inkscape:connector-curvature="0"/>
    </marker>
    <marker inkscape:stockid="Arrow1Lend" orient="auto" refY="0" refX="0" id="marker18329" style="overflow:visible" inkscape:isstock="true">
      <path id="path18331" d="M 0,0 5,-5 -12.5,0 5,5 0,0 Z" style="fill:#000000;fill-opacity:1;fill-rule:evenodd;stroke:#000000;stroke-width:1pt;stroke-opacity:1" transform="matrix(-0.8,0,0,-0.8,-10,0)" inkscape:connector-curvature="0"/>
    </marker>
    <marker inkscape:isstock="true" style="overflow:visible" id="marker11570" refX="0" refY="0" orient="auto" inkscape:stockid="Arrow1Lend">
      <path inkscape:connector-curvature="0" transform="matrix(-0.8,0,0,-0.8,-10,0)" style="fill:#000000;fill-opacity:1;fill-rule:evenodd;stroke:#000000;stroke-width:1pt;stroke-opacity:1" d="M 0,0 5,-5 -12.5,0 5,5 0,0 Z" id="path11572"/>
    </marker>
    <marker inkscape:isstock="true" style="overflow:visible" id="marker11326" refX="0" refY="0" orient="auto" inkscape:stockid="Arrow1Lend">
      <path inkscape:connector-curvature="0" transform="matrix(-0.8,0,0,-0.8,-10,0)" style="fill:#000000;fill-opacity:1;fill-rule:evenodd;stroke:#000000;stroke-width:1pt;stroke-opacity:1" d="M 0,0 5,-5 -12.5,0 5,5 0,0 Z" id="path11328"/>
    </marker>
    <marker inkscape:stockid="Arrow1Lend" orient="auto" refY="0" refX="0" id="marker9818" style="overflow:visible" inkscape:isstock="true">
      <path inkscape:connector-curvature="0" id="path9820" d="M 0,0 5,-5 -12.5,0 5,5 0,0 Z" style="fill:#000000;fill-opacity:1;fill-rule:evenodd;stroke:#000000;stroke-width:1pt;stroke-opacity:1" transform="matrix(-0.8,0,0,-0.8,-10,0)"/>
    </marker>
    <marker inkscape:isstock="true" style="overflow:visible" id="marker9572" refX="0" refY="0" orient="auto" inkscape:stockid="Arrow1Lend">
      <path inkscape:connector-curvature="0" transform="matrix(-0.8,0,0,-0.8,-10,0)" style="fill:#000000;fill-opacity:1;fill-rule:evenodd;stroke:#000000;stroke-width:1pt;stroke-opacity:1" d="M 0,0 5,-5 -12.5,0 5,5 0,0 Z" id="path9574"/>
    </marker>
    <marker inkscape:isstock="true" style="overflow:visible" id="marker9349" refX="0" refY="0" orient="auto" inkscape:stockid="Arrow1Lend">
      <path inkscape:connector-curvature="0" transform="matrix(-0.8,0,0,-0.8,-10,0)" style="fill:#000000;fill-opacity:1;fill-rule:evenodd;stroke:#000000;stroke-width:1pt;stroke-opacity:1" d="M 0,0 5,-5 -12.5,0 5,5 0,0 Z" id="path9351"/>
    </marker>
    <marker inkscape:isstock="true" style="overflow:visible" id="marker8273" refX="0" refY="0" orient="auto" inkscape:stockid="Arrow1Lend">
      <path inkscape:connector-curvature="0" transform="matrix(-0.8,0,0,-0.8,-10,0)" style="fill:#000000;fill-opacity:1;fill-rule:evenodd;stroke:#000000;stroke-width:1pt;stroke-opacity:1" d="M 0,0 5,-5 -12.5,0 5,5 0,0 Z" id="path8275"/>
    </marker>
    <marker inkscape:stockid="Arrow1Lend" orient="auto" refY="0" refX="0" id="marker7296" style="overflow:visible" inkscape:isstock="true">
      <path inkscape:connector-curvature="0" id="path7298" d="M 0,0 5,-5 -12.5,0 5,5 0,0 Z" style="fill:#000000;fill-opacity:1;fill-rule:evenodd;stroke:#000000;stroke-width:1pt;stroke-opacity:1" transform="matrix(-0.8,0,0,-0.8,-10,0)"/>
    </marker>
    <marker inkscape:stockid="Arrow1Lend" orient="auto" refY="0" refX="0" id="marker7060" style="overflow:visible" inkscape:isstock="true">
      <path inkscape:connector-curvature="0" id="path7062" d="M 0,0 5,-5 -12.5,0 5,5 0,0 Z" style="fill:#000000;fill-opacity:1;fill-rule:evenodd;stroke:#000000;stroke-width:1pt;stroke-opacity:1" transform="matrix(-0.8,0,0,-0.8,-10,0)"/>
    </marker>
    <marker inkscape:stockid="Arrow1Lend" orient="auto" refY="0" refX="0" id="marker7724" style="overflow:visible" inkscape:isstock="true">
      <path id="path7726" d="M 0,0 5,-5 -12.5,0 5,5 0,0 Z" style="fill:#000000;fill-opacity:1;fill-rule:evenodd;stroke:#000000;stroke-width:1pt;stroke-opacity:1" transform="matrix(-0.8,0,0,-0.8,-10,0)" inkscape:connector-curvature="0"/>
    </marker>
    <marker inkscape:isstock="true" style="overflow:visible" id="marker7176" refX="0" refY="0" orient="auto" inkscape:stockid="Arrow1Lend">
      <path transform="matrix(-0.8,0,0,-0.8,-10,0)" style="fill:#000000;fill-opacity:1;fill-rule:evenodd;stroke:#000000;stroke-width:1pt;stroke-opacity:1" d="M 0,0 5,-5 -12.5,0 5,5 0,0 Z" id="path7178" inkscape:connector-curvature="0"/>
    </marker>
    <marker inkscape:isstock="true" style="overflow:visible" id="marker6998" refX="0" refY="0" orient="auto" inkscape:stockid="Arrow1Lend">
      <path transform="matrix(-0.8,0,0,-0.8,-10,0)" style="fill:#000000;fill-opacity:1;fill-rule:evenodd;stroke:#000000;stroke-width:1pt;stroke-opacity:1" d="M 0,0 5,-5 -12.5,0 5,5 0,0 Z" id="path7000" inkscape:connector-curvature="0"/>
    </marker>
    <marker inkscape:stockid="Arrow1Lend" orient="auto" refY="0" refX="0" id="marker6826" style="overflow:visible" inkscape:isstock="true">
      <path id="path6828" d="M 0,0 5,-5 -12.5,0 5,5 0,0 Z" style="fill:#000000;fill-opacity:1;fill-rule:evenodd;stroke:#000000;stroke-width:1pt;stroke-opacity:1" transform="matrix(-0.8,0,0,-0.8,-10,0)" inkscape:connector-curvature="0"/>
    </marker>
    <marker inkscape:isstock="true" style="overflow:visible" id="marker6555" refX="0" refY="0" orient="auto" inkscape:stockid="Arrow1Lend">
      <path transform="matrix(-0.8,0,0,-0.8,-10,0)" style="fill:#000000;fill-opacity:1;fill-rule:evenodd;stroke:#000000;stroke-width:1pt;stroke-opacity:1" d="M 0,0 5,-5 -12.5,0 5,5 0,0 Z" id="path6557" inkscape:connector-curvature="0"/>
    </marker>
    <marker inkscape:stockid="Arrow1Lend" orient="auto" refY="0" refX="0" id="marker6349" style="overflow:visible" inkscape:isstock="true">
      <path id="path6351" d="M 0,0 5,-5 -12.5,0 5,5 0,0 Z" style="fill:#000000;fill-opacity:1;fill-rule:evenodd;stroke:#000000;stroke-width:1pt;stroke-opacity:1" transform="matrix(-0.8,0,0,-0.8,-10,0)" inkscape:connector-curvature="0"/>
    </marker>
    <marker inkscape:isstock="true" style="overflow:visible" id="marker6195" refX="0" refY="0" orient="auto" inkscape:stockid="Arrow1Lend">
      <path transform="matrix(-0.8,0,0,-0.8,-10,0)" style="fill:#000000;fill-opacity:1;fill-rule:evenodd;stroke:#000000;stroke-width:1pt;stroke-opacity:1" d="M 0,0 5,-5 -12.5,0 5,5 0,0 Z" id="path6197" inkscape:connector-curvature="0"/>
    </marker>
    <marker inkscape:stockid="Arrow1Lend" orient="auto" refY="0" refX="0" id="marker5400" style="overflow:visible" inkscape:isstock="true">
      <path id="path5402" d="M 0,0 5,-5 -12.5,0 5,5 0,0 Z" style="fill:#000000;fill-opacity:1;fill-rule:evenodd;stroke:#000000;stroke-width:1pt;stroke-opacity:1" transform="matrix(-0.8,0,0,-0.8,-10,0)" inkscape:connector-curvature="0"/>
    </marker>
    <marker inkscape:stockid="Arrow1Lend" orient="auto" refY="0" refX="0" id="marker5120" style="overflow:visible" inkscape:isstock="true">
      <path id="path5122" d="M 0,0 5,-5 -12.5,0 5,5 0,0 Z" style="fill:#000000;fill-opacity:1;fill-rule:evenodd;stroke:#000000;stroke-width:1pt;stroke-opacity:1" transform="matrix(-0.8,0,0,-0.8,-10,0)" inkscape:connector-curvature="0"/>
    </marker>
    <marker inkscape:stockid="Arrow1Lend" orient="auto" refY="0" refX="0" id="marker14952" style="overflow:visible" inkscape:isstock="true">
      <path id="path14954" d="M 0,0 5,-5 -12.5,0 5,5 0,0 Z" style="fill:#000000;fill-opacity:1;fill-rule:evenodd;stroke:#000000;stroke-width:1pt;stroke-opacity:1" transform="matrix(-0.8,0,0,-0.8,-10,0)" inkscape:connector-curvature="0"/>
    </marker>
    <marker inkscape:isstock="true" style="overflow:visible" id="marker12886" refX="0" refY="0" orient="auto" inkscape:stockid="Arrow1Lend">
      <path transform="matrix(-0.8,0,0,-0.8,-10,0)" style="fill:#000000;fill-opacity:1;fill-rule:evenodd;stroke:#000000;stroke-width:1pt;stroke-opacity:1" d="M 0,0 5,-5 -12.5,0 5,5 0,0 Z" id="path12888" inkscape:connector-curvature="0"/>
    </marker>
    <marker inkscape:isstock="true" style="overflow:visible" id="marker11987" refX="0" refY="0" orient="auto" inkscape:stockid="Arrow1Lend">
      <path transform="matrix(-0.8,0,0,-0.8,-10,0)" style="fill:#000000;fill-opacity:1;fill-rule:evenodd;stroke:#000000;stroke-width:1pt;stroke-opacity:1" d="M 0,0 5,-5 -12.5,0 5,5 0,0 Z" id="path11989" inkscape:connector-curvature="0"/>
    </marker>
    <marker inkscape:isstock="true" style="overflow:visible" id="marker11408" refX="0" refY="0" orient="auto" inkscape:stockid="Arrow1Lend">
      <path transform="matrix(-0.8,0,0,-0.8,-10,0)" style="fill:#000000;fill-opacity:1;fill-rule:evenodd;stroke:#000000;stroke-width:1pt;stroke-opacity:1" d="M 0,0 5,-5 -12.5,0 5,5 0,0 Z" id="path11410" inkscape:connector-curvature="0"/>
    </marker>
    <marker inkscape:stockid="Arrow1Lend" orient="auto" refY="0" refX="0" id="marker11332" style="overflow:visible" inkscape:isstock="true">
      <path id="path11334" d="M 0,0 5,-5 -12.5,0 5,5 0,0 Z" style="fill:#000000;fill-opacity:1;fill-rule:evenodd;stroke:#000000;stroke-width:1pt;stroke-opacity:1" transform="matrix(-0.8,0,0,-0.8,-10,0)" inkscape:connector-curvature="0"/>
    </marker>
    <marker inkscape:stockid="Arrow1Lend" orient="auto" refY="0" refX="0" id="marker9287" style="overflow:visible" inkscape:isstock="true">
      <path id="path9289" d="M 0,0 5,-5 -12.5,0 5,5 0,0 Z" style="fill:#000000;fill-opacity:1;fill-rule:evenodd;stroke:#000000;stroke-width:1pt;stroke-opacity:1" transform="matrix(-0.8,0,0,-0.8,-10,0)" inkscape:connector-curvature="0"/>
    </marker>
    <marker inkscape:isstock="true" style="overflow:visible" id="marker4941" refX="0" refY="0" orient="auto" inkscape:stockid="Arrow1Lend">
      <path transform="matrix(-0.8,0,0,-0.8,-10,0)" style="fill:#000000;fill-opacity:1;fill-rule:evenodd;stroke:#000000;stroke-width:1pt;stroke-opacity:1" d="M 0,0 5,-5 -12.5,0 5,5 0,0 Z" id="path4943" inkscape:connector-curvature="0"/>
    </marker>
  </defs>
  <sodipodi:namedview id="base" pagecolor="#ffffff" bordercolor="#666666" borderopacity="1.0" inkscape:pageopacity="0.0" inkscape:pageshadow="2" inkscape:zoom="0.62054756" inkscape:cx="604.84107" inkscape:cy="336.19406" inkscape:document-units="px" inkscape:current-layer="layer1" showgrid="false" units="px" inkscape:window-width="1440" inkscape:window-height="856" inkscape:window-x="1" inkscape:window-y="1" inkscape:window-maximized="0" fit-margin-top="20" fit-margin-left="20" fit-margin-right="20" fit-margin-bottom="20" showguides="true" inkscape:guide-bbox="true"/>
  <metadata id="metadata7">
    <rdf:RDF>
      <cc:Work rdf:about="">
        <dc:format>image/svg+xml</dc:format>
        <dc:type rdf:resource="http://purl.org/dc/dcmitype/StillImage"/>
        <dc:title/>
      </cc:Work>
    </rdf:RDF>
  </metadata>
  <g inkscape:label="Layer 1" inkscape:groupmode="layer" id="layer1" transform="translate(22.999881,-5931.6108)">
    <g id="g10337">
      
      
      <path style="fill:none;fill-rule:evenodd;stroke:#000000;stroke-width:0.54155016px;stroke-linecap:butt;stroke-linejoin:miter;stroke-opacity:1" d="m 312.89053,6266.586 -3.8682,13.1519 9.2837,0" id="path11145" inkscape:connector-curvature="0"/>
      <circle r="49.337784" cy="6119.1831" cx="621.58466" id="circle11147" style="opacity:1;fill:none;fill-opacity:1;stroke:#000000;stroke-width:0.76315486;stroke-linejoin:miter;stroke-miterlimit:4;stroke-dasharray:none;stroke-dashoffset:0;stroke-opacity:0.45222928"/>
      <circle r="8.8653154" cy="6112.4448" cx="601.65961" id="circle11149" style="opacity:1;fill:none;fill-opacity:1;stroke:#000000;stroke-width:0.50632006;stroke-linejoin:miter;stroke-miterlimit:4;stroke-dasharray:none;stroke-dashoffset:0;stroke-opacity:0.45222928"/>
      <circle r="4.4326577" cy="6112.4448" cx="601.65961" id="circle11151" style="opacity:1;fill:#000000;fill-opacity:0.37579621;stroke:#000000;stroke-width:0.50632006;stroke-linejoin:miter;stroke-miterlimit:4;stroke-dasharray:none;stroke-dashoffset:0;stroke-opacity:0.45222928"/>
      <circle style="opacity:1;fill:none;fill-opacity:1;stroke:#000000;stroke-width:0.50632006;stroke-linejoin:miter;stroke-miterlimit:4;stroke-dasharray:none;stroke-dashoffset:0;stroke-opacity:0.45222928" id="circle11153" cx="636.60724" cy="6112.4448" r="8.8653154"/>
      <circle style="opacity:1;fill:#000000;fill-opacity:0.37579621;stroke:#000000;stroke-width:0.50632006;stroke-linejoin:miter;stroke-miterlimit:4;stroke-dasharray:none;stroke-dashoffset:0;stroke-opacity:0.45222928" id="circle11155" cx="636.60724" cy="6112.4448" r="4.4326577"/>
      <path inkscape:connector-curvature="0" id="path11157" d="m 620.99193,6122.7326 -3.8682,13.1519 9.2837,0" style="fill:none;fill-rule:evenodd;stroke:#000000;stroke-width:0.54155016px;stroke-linecap:butt;stroke-linejoin:miter;stroke-opacity:0.45222928"/>
      <path style="fill:none;fill-rule:evenodd;stroke:#000000;stroke-width:1px;stroke-linecap:butt;stroke-linejoin:miter;stroke-opacity:0.45222928" d="m 598.34123,6145.8919 c 16.6455,8.0578 32.0107,7.1537 46.4832,0" id="path11159" inkscape:connector-curvature="0" sodipodi:nodetypes="cc"/>
      <path style="opacity:1;fill:#ffffff;fill-opacity:1;stroke:#000000;stroke-width:0.82408696;stroke-linejoin:miter;stroke-miterlimit:4;stroke-dasharray:none;stroke-dashoffset:0;stroke-opacity:0.45222928" inkscape:transform-center-x="104.68937" inkscape:transform-center-y="-50.625377" d="m 643.53393,6079.7518 c 1.7362,-3.1258 -0.2533,-18.3222 -0.2533,-18.3222 0,0 6.902,8.3976 8.3493,13.5689 2.7557,9.8471 3.4813,19.3159 -6.7949,18.5373 -8.9702,-0.6749 -3.4725,-9.8745 -1.3011,-13.784 z" id="path11161" inkscape:connector-curvature="0" sodipodi:nodetypes="scsss"/>
      <path sodipodi:nodetypes="scsss" inkscape:connector-curvature="0" id="path11163" d="m 603.74053,6079.7518 c -1.7361,-3.1258 0.2534,-18.3222 0.2534,-18.3222 0,0 -6.9021,8.3976 -8.3493,13.5689 -2.7558,9.8471 -3.4814,19.3159 6.7949,18.5373 8.9701,-0.6749 3.4725,-9.8745 1.301,-13.784 z" inkscape:transform-center-y="-50.625377" inkscape:transform-center-x="-104.68937" style="opacity:1;fill:#ffffff;fill-opacity:1;stroke:#000000;stroke-width:0.82408696;stroke-linejoin:miter;stroke-miterlimit:4;stroke-dasharray:none;stroke-dashoffset:0;stroke-opacity:0.45222928"/>
      <circle style="opacity:1;fill:none;fill-opacity:1;stroke:#000000;stroke-width:0.76315486;stroke-linejoin:miter;stroke-miterlimit:4;stroke-dasharray:none;stroke-dashoffset:0;stroke-opacity:1" id="circle11167" cx="167.95703" cy="6196.874" r="49.337784"/>
      <g id="g11169" transform="matrix(0.08438668,0,0,0.08438668,188.60786,6186.9153)">
        <circle r="105.05586" cy="38.169014" cx="-480.83261" id="circle11171" style="opacity:1;fill:none;fill-opacity:1;stroke:#000000;stroke-width:6;stroke-linejoin:miter;stroke-miterlimit:4;stroke-dasharray:none;stroke-dashoffset:0;stroke-opacity:1"/>
        <circle r="52.527931" cy="38.169014" cx="-480.83261" id="circle11173" style="opacity:1;fill:#000000;fill-opacity:1;stroke:#000000;stroke-width:6;stroke-linejoin:miter;stroke-miterlimit:4;stroke-dasharray:none;stroke-dashoffset:0;stroke-opacity:1"/>
      </g>
      <g transform="matrix(0.08438668,0,0,0.08438668,223.55547,6186.9153)" id="g11175">
        <circle style="opacity:1;fill:none;fill-opacity:1;stroke:#000000;stroke-width:6;stroke-linejoin:miter;stroke-miterlimit:4;stroke-dasharray:none;stroke-dashoffset:0;stroke-opacity:1" id="circle11177" cx="-480.83261" cy="38.169014" r="105.05586"/>
        <circle style="opacity:1;fill:#000000;fill-opacity:1;stroke:#000000;stroke-width:6;stroke-linejoin:miter;stroke-miterlimit:4;stroke-dasharray:none;stroke-dashoffset:0;stroke-opacity:1" id="circle11179" cx="-480.83261" cy="38.169014" r="52.527931"/>
      </g>
      <circle r="49.337784" cy="6260.874" cx="315.91196" id="circle11183" style="opacity:1;fill:none;fill-opacity:1;stroke:#000000;stroke-width:0.76315486;stroke-linejoin:miter;stroke-miterlimit:4;stroke-dasharray:none;stroke-dashoffset:0;stroke-opacity:1"/>
      <g transform="matrix(0.08438668,0,0,0.08438668,336.5628,6250.9153)" id="g11185">
        <circle style="opacity:1;fill:none;fill-opacity:1;stroke:#000000;stroke-width:6;stroke-linejoin:miter;stroke-miterlimit:4;stroke-dasharray:none;stroke-dashoffset:0;stroke-opacity:1" id="circle11187" cx="-480.83261" cy="38.169014" r="105.05586"/>
        <circle style="opacity:1;fill:#000000;fill-opacity:1;stroke:#000000;stroke-width:6;stroke-linejoin:miter;stroke-miterlimit:4;stroke-dasharray:none;stroke-dashoffset:0;stroke-opacity:1" id="circle11189" cx="-480.83261" cy="38.169014" r="52.527931"/>
      </g>
      <g id="g11191" transform="matrix(0.08438668,0,0,0.08438668,371.51041,6250.9153)">
        <circle r="105.05586" cy="38.169014" cx="-480.83261" id="circle11193" style="opacity:1;fill:none;fill-opacity:1;stroke:#000000;stroke-width:6;stroke-linejoin:miter;stroke-miterlimit:4;stroke-dasharray:none;stroke-dashoffset:0;stroke-opacity:1"/>
        <circle r="52.527931" cy="38.169014" cx="-480.83261" id="circle11195" style="opacity:1;fill:#000000;fill-opacity:1;stroke:#000000;stroke-width:6;stroke-linejoin:miter;stroke-miterlimit:4;stroke-dasharray:none;stroke-dashoffset:0;stroke-opacity:1"/>
      </g>
      <path sodipodi:nodetypes="cc" inkscape:connector-curvature="0" id="path11197" d="m 208.68943,6223.7223 54.8427,37.6067" style="fill:none;fill-rule:evenodd;stroke:#000000;stroke-width:1.13725531;stroke-linecap:butt;stroke-linejoin:miter;stroke-miterlimit:4;stroke-dasharray:none;stroke-opacity:1"/>
      <path inkscape:connector-curvature="0" id="path11199" d="m 366.54453,6261.329 51.8341,0" style="fill:none;fill-rule:evenodd;stroke:#000000;stroke-width:1.13725531;stroke-linecap:butt;stroke-linejoin:miter;stroke-miterlimit:4;stroke-dasharray:none;stroke-opacity:1"/>
      <path style="opacity:1;fill:#ffffff;fill-opacity:1;stroke:#000000;stroke-width:0.82408696;stroke-linejoin:miter;stroke-miterlimit:4;stroke-dasharray:none;stroke-dashoffset:0;stroke-opacity:1" inkscape:transform-center-x="-104.68937" inkscape:transform-center-y="-50.625377" d="m 299.12623,6216.658 c -1.7361,-3.1258 0.2533,-18.3221 0.2533,-18.3221 0,0 -6.902,8.3976 -8.3492,13.5689 -2.7558,9.8471 -3.4814,19.3159 6.7949,18.5373 8.9701,-0.6749 3.4725,-9.8745 1.301,-13.7841 z" id="path11201" inkscape:connector-curvature="0" sodipodi:nodetypes="scsss"/>
      <path style="fill:none;fill-rule:evenodd;stroke:#000000;stroke-width:0.54155016px;stroke-linecap:butt;stroke-linejoin:miter;stroke-opacity:1" d="m 469.81643,6263.8887 -3.8682,13.1519 9.2837,0" id="path11203" inkscape:connector-curvature="0"/>
      <g id="g11207" transform="matrix(0.35417503,0,0,0.35417503,331.92392,6008.3649)">
        <circle style="opacity:1;fill:none;fill-opacity:1;stroke:#000000;stroke-width:2.15473938;stroke-linejoin:miter;stroke-miterlimit:4;stroke-dasharray:none;stroke-dashoffset:0;stroke-opacity:1" id="circle11209" cx="391.0079" cy="712.95087" r="139.30339"/>
        <g id="g11211" transform="matrix(0.23826265,0,0,0.23826265,449.31475,684.83218)">
          <circle r="105.05586" cy="38.169014" cx="-480.83261" id="circle11213" style="opacity:1;fill:none;fill-opacity:1;stroke:#000000;stroke-width:6;stroke-linejoin:miter;stroke-miterlimit:4;stroke-dasharray:none;stroke-dashoffset:0;stroke-opacity:1"/>
          <circle r="52.527931" cy="38.169014" cx="-480.83261" id="circle11215" style="opacity:1;fill:#000000;fill-opacity:1;stroke:#000000;stroke-width:6;stroke-linejoin:miter;stroke-miterlimit:4;stroke-dasharray:none;stroke-dashoffset:0;stroke-opacity:1"/>
        </g>
        <g transform="matrix(0.23826265,0,0,0.23826265,547.98805,684.83218)" id="g11218">
          <circle style="opacity:1;fill:none;fill-opacity:1;stroke:#000000;stroke-width:6;stroke-linejoin:miter;stroke-miterlimit:4;stroke-dasharray:none;stroke-dashoffset:0;stroke-opacity:1" id="circle11220" cx="-480.83261" cy="38.169014" r="105.05586"/>
          <circle style="opacity:1;fill:#000000;fill-opacity:1;stroke:#000000;stroke-width:6;stroke-linejoin:miter;stroke-miterlimit:4;stroke-dasharray:none;stroke-dashoffset:0;stroke-opacity:1" id="circle11222" cx="-480.83261" cy="38.169014" r="52.527931"/>
        </g>
      </g>
      <path style="fill:none;fill-rule:evenodd;stroke:#000000;stroke-width:1px;stroke-linecap:butt;stroke-linejoin:miter;stroke-opacity:1" d="m 447.16573,6287.583 c 16.6455,8.0578 32.0107,7.1537 46.4832,0" id="path11224" inkscape:connector-curvature="0" sodipodi:nodetypes="cc"/>
      <path sodipodi:nodetypes="scsss" inkscape:connector-curvature="0" id="path11226" d="m 451.05733,6216.658 c -1.7361,-3.1258 0.2533,-18.3221 0.2533,-18.3221 0,0 -6.902,8.3976 -8.3492,13.5689 -2.7558,9.8471 -3.4814,19.3159 6.7949,18.5373 8.9701,-0.6749 3.4724,-9.8745 1.301,-13.7841 z" inkscape:transform-center-y="-50.625377" inkscape:transform-center-x="-104.68937" style="opacity:1;fill:#ffffff;fill-opacity:1;stroke:#000000;stroke-width:0.82408696;stroke-linejoin:miter;stroke-miterlimit:4;stroke-dasharray:none;stroke-dashoffset:0;stroke-opacity:1"/>
      <path sodipodi:nodetypes="ccc" inkscape:connector-curvature="0" id="path11228" d="m 203.94503,6163.8558 60.2404,-48.5519 308.3946,0" style="fill:none;fill-rule:evenodd;stroke:#000000;stroke-width:1px;stroke-linecap:butt;stroke-linejoin:miter;stroke-opacity:1"/>
      <g transform="translate(145.17548,3539.4101)" id="g11232">
        <g id="g11234" transform="matrix(0.35417503,0,0,0.35417503,337.92394,2463.9284)">
          <circle style="opacity:1;fill:none;fill-opacity:1;stroke:#000000;stroke-width:2.15473938;stroke-linejoin:miter;stroke-miterlimit:4;stroke-dasharray:none;stroke-dashoffset:0;stroke-opacity:1" id="circle11236" cx="391.0079" cy="712.95087" r="139.30339"/>
          <g id="g11238" transform="matrix(0.23826265,0,0,0.23826265,449.31475,684.83218)">
            <circle r="105.05586" cy="38.169014" cx="-480.83261" id="circle11240" style="opacity:1;fill:none;fill-opacity:1;stroke:#000000;stroke-width:6;stroke-linejoin:miter;stroke-miterlimit:4;stroke-dasharray:none;stroke-dashoffset:0;stroke-opacity:1"/>
            <circle r="52.527931" cy="38.169014" cx="-480.83261" id="circle11242" style="opacity:1;fill:#000000;fill-opacity:1;stroke:#000000;stroke-width:6;stroke-linejoin:miter;stroke-miterlimit:4;stroke-dasharray:none;stroke-dashoffset:0;stroke-opacity:1"/>
          </g>
          <g transform="matrix(0.23826265,0,0,0.23826265,547.98805,684.83218)" id="g11244">
            <circle style="opacity:1;fill:none;fill-opacity:1;stroke:#000000;stroke-width:6;stroke-linejoin:miter;stroke-miterlimit:4;stroke-dasharray:none;stroke-dashoffset:0;stroke-opacity:1" id="circle11246" cx="-480.83261" cy="38.169014" r="105.05586"/>
            <circle style="opacity:1;fill:#000000;fill-opacity:1;stroke:#000000;stroke-width:6;stroke-linejoin:miter;stroke-miterlimit:4;stroke-dasharray:none;stroke-dashoffset:0;stroke-opacity:1" id="circle11248" cx="-480.83261" cy="38.169014" r="52.527931"/>
          </g>
        </g>
      </g>
      <path style="fill:none;fill-rule:evenodd;stroke:#000000;stroke-width:0.54155016px;stroke-linecap:butt;stroke-linejoin:miter;stroke-opacity:1" d="m 620.99193,6259.3973 -3.8682,13.1519 9.2837,0" id="path11250" inkscape:connector-curvature="0"/>
      <path sodipodi:nodetypes="cc" inkscape:connector-curvature="0" id="path11252" d="m 598.34123,6282.5567 c 16.6455,8.0577 32.0107,7.1537 46.4832,0" style="fill:none;fill-rule:evenodd;stroke:#000000;stroke-width:1px;stroke-linecap:butt;stroke-linejoin:miter;stroke-opacity:1"/>
      <path sodipodi:nodetypes="scsss" inkscape:connector-curvature="0" id="path11254" d="m 643.53393,6216.4165 c 1.7362,-3.1258 -0.2533,-18.3221 -0.2533,-18.3221 0,0 6.902,8.3976 8.3493,13.5689 2.7557,9.8471 3.4813,19.3159 -6.7949,18.5373 -8.9702,-0.6749 -3.4725,-9.8745 -1.3011,-13.7841 z" inkscape:transform-center-y="-50.625377" inkscape:transform-center-x="104.68937" style="opacity:1;fill:#ffffff;fill-opacity:1;stroke:#000000;stroke-width:0.82408696;stroke-linejoin:miter;stroke-miterlimit:4;stroke-dasharray:none;stroke-dashoffset:0;stroke-opacity:1"/>
      <path style="opacity:1;fill:#ffffff;fill-opacity:1;stroke:#000000;stroke-width:0.82408696;stroke-linejoin:miter;stroke-miterlimit:4;stroke-dasharray:none;stroke-dashoffset:0;stroke-opacity:1" inkscape:transform-center-x="-104.68937" inkscape:transform-center-y="-50.625377" d="m 603.74053,6216.4165 c -1.7361,-3.1258 0.2534,-18.3221 0.2534,-18.3221 0,0 -6.9021,8.3976 -8.3493,13.5689 -2.7558,9.8471 -3.4814,19.3159 6.7949,18.5373 8.9701,-0.6749 3.4725,-9.8745 1.301,-13.7841 z" id="path11256" inkscape:connector-curvature="0" sodipodi:nodetypes="scsss"/>
      <path style="fill:none;fill-rule:evenodd;stroke:#000000;stroke-width:1.13725531;stroke-linecap:butt;stroke-linejoin:miter;stroke-miterlimit:4;stroke-dasharray:none;stroke-opacity:1" d="m 518.49413,6261.329 51.8341,0" id="path11258" inkscape:connector-curvature="0"/>
      <path inkscape:connector-curvature="0" id="path11260" d="m 623.82933,6168.3514 0,38.6617" style="fill:none;fill-rule:evenodd;stroke:#000000;stroke-width:1.00000012;stroke-linecap:butt;stroke-linejoin:miter;stroke-miterlimit:4;stroke-dasharray:1.00000009, 1.00000009;stroke-dashoffset:0;stroke-opacity:0.43949046"/>
    </g>
  </g>
</svg>
